<mxfile host="65bd71144e">
    <diagram name="Paralel" id="_zPg8T6e8uW-ltyEZq9O">
        <mxGraphModel dx="2853" dy="1193" grid="1" gridSize="10" guides="1" tooltips="1" connect="1" arrows="1" fold="1" page="1" pageScale="1" pageWidth="827" pageHeight="1169" math="0" shadow="0">
            <root>
                <mxCell id="m5X-id6JAVoZ-Rpwvo6L-0"/>
                <mxCell id="m5X-id6JAVoZ-Rpwvo6L-1" parent="m5X-id6JAVoZ-Rpwvo6L-0"/>
                <mxCell id="m5X-id6JAVoZ-Rpwvo6L-2" value="" style="rounded=0;whiteSpace=wrap;html=1;fontSize=29;fontStyle=1;strokeWidth=2;fillColor=#f5f5f5;fontColor=#333333;strokeColor=none;" vertex="1" parent="m5X-id6JAVoZ-Rpwvo6L-1">
                    <mxGeometry x="240" y="60" width="1920" height="1080" as="geometry"/>
                </mxCell>
                <mxCell id="m5X-id6JAVoZ-Rpwvo6L-3" value="Rangkaian Dasar" style="rounded=1;whiteSpace=wrap;html=1;fontSize=40;fontStyle=1;strokeWidth=3;fillColor=#6d8764;strokeColor=none;fontColor=#ffffff;" vertex="1" parent="m5X-id6JAVoZ-Rpwvo6L-1">
                    <mxGeometry x="926.25" y="100" width="517.5" height="100" as="geometry"/>
                </mxCell>
                <mxCell id="m5X-id6JAVoZ-Rpwvo6L-4" value="Dasar Elektronika" style="rounded=1;whiteSpace=wrap;html=1;fontSize=29;fontStyle=1;strokeWidth=3;fillColor=#a0522d;strokeColor=none;fontColor=#ffffff;" vertex="1" parent="m5X-id6JAVoZ-Rpwvo6L-1">
                    <mxGeometry x="270" y="90" width="300" height="60" as="geometry"/>
                </mxCell>
                <mxCell id="m5X-id6JAVoZ-Rpwvo6L-16" value="" style="rounded=1;whiteSpace=wrap;html=1;strokeWidth=4;arcSize=2;fillColor=#e1d5e7;strokeColor=#9673a6;" vertex="1" parent="m5X-id6JAVoZ-Rpwvo6L-1">
                    <mxGeometry x="347" y="260" width="456" height="800" as="geometry"/>
                </mxCell>
                <mxCell id="m5X-id6JAVoZ-Rpwvo6L-17" value="Paralel" style="rounded=1;whiteSpace=wrap;html=1;fontSize=30;fontStyle=1;strokeWidth=3;fillColor=#76608a;strokeColor=none;fontColor=#ffffff;" vertex="1" parent="m5X-id6JAVoZ-Rpwvo6L-1">
                    <mxGeometry x="634" y="282" width="147.5" height="70" as="geometry"/>
                </mxCell>
                <mxCell id="m5X-id6JAVoZ-Rpwvo6L-19" value="" style="shape=image;verticalLabelPosition=bottom;labelBackgroundColor=default;verticalAlign=top;aspect=fixed;imageAspect=0;image=data:image/png,iVBORw0KGgoAAAANSUhEUgAAAQAAAAEACAYAAABccqhmAAAABHNCSVQICAgIfAhkiAAAAAlwSFlzAAAHYgAAB2IBOHqZ2wAAABl0RVh0U29mdHdhcmUAd3d3Lmlua3NjYXBlLm9yZ5vuPBoAACAASURBVHic7Z13lFxnef8/z522s7tayZIly3IvqmsbGa1lWc0S4IorLsGUBEIJ4ReCaSEQwo/fCSEGEgOB/BJKAgRiigDbmGJRrN5suWtXK1my3K0ubZmd2Zm598kfI4Es79yduffO3Cnv5xydo7P3vu/77Ozc733LUwRD06HrzpmEHbsT4TpAEfk5Tu7DsnjHvrBtM1QXCdsAQ3XRtdPHoPIYcPYrr8hO8tZsWdo9GIphhlCwwjbAUG3ko7zq4QfQc4jaH6m6OYZQMQLQbChzi1+Ui6tniKEWMALQbAjx4tc0UUVLDDWAEQCDoYkxAmAwNDFGAAyGJsYIgMHQxBgBMBiaGCMABkMTYwSg2VBsT9cMDYkRgOZje9ErQm8V7TDUANGwDag3dO2sTlTfA9oBdBPLf1Pm7egP266SseSLOPp2oOO4K/0Q+ecwTPKKbjy3g3z0vSizUO3DinxLFvZ0h21XPWGCgcpA106/FZXvA7FjfvwysEQW9RZ/s9YYumrGfCy+A0w98qPtWLxDFvRuCNGsstC106ejshKYfMyPs6i+VRZv+0lIZtUdRgBKRJdf0EZrdhcwcYTLG1nYO18ErbZdXlHFYt2smTiiLOruFcEJ26ZSUUVYO2M9MG+Ey3tJtp0lXQ8PVduuesQsAUqlPbsAZ8SHH2Aea2e+DbZ+r6o2+aDwwNfpdHntzLeBjvTwA0wiPTQf+F01TapXzCZgqdjS6n6D3qErOturY0zzUviM9Q7Xm8QZ5W9lOIoRgFKxrY3AsMsdU4g6f1stc5qWwmc8xeWOYSS/sVrm1DtGAEpElnbvBr7mfpd+VNd3nlsVg5oQXTX9LFD3pCXKV2XBzr1VMqnuMQJQDqL/D9jtckcC2/6napnTdETki0CLyx17Gc5+tlrmNAJGAMpAFm4bQPn0KLfdrGtmLKmGPc2ErpmxBOUm95v4lFz2dF+VTGoIjACUy+7e/wJ9zPUe5RNVsqaZ+KT7ZX2s8LcxlIMRgDKRW7FRud39JmZXyZxm4kLXqyq3y60mlqFcjB+AB2Rx7ypdM3MZ6C1F7jhQXYteifZeNwbbOgfhTDR7NunUa3CyU7GHTwHiYMdRiYJGEWwgV2hp5RBJITKAWv1Y8hxq7SAeewzJPySzN7wY4q91ADhx5EuyTBZvXVVVaxoEIwBeyevfEOUq4NVn/8p3qmGCrlgSZVLH+SCzKbwhZwPTsZkESsEvMQbJcUcaKDjDYGchP1z452TAGeXFmT3SfN35Nlb0MBHrWYg8gsjddG26vypehMJ3UEbaYB0kr39T8fEbFOMK7ANdO/06VP6HY0VA+TmD+Vvl6h1uPgPexluxJMpJHfNRWQKyEPQSRhKg8noFOwf5NOSGIJcCLWMmLZYSSRzAij8I1veZu+FHlRAEXXFmC9GWHwPXHvPjQeAtsqj3vqDHaxaMAPhEV3ROJmZfj8o4VDeyqHd1kDEB2n3LeCT3RtS5BuRyYFxQfRcZEexhyA5CdqAwWygHK+IQSTyDlfgxbXxROjccDMyyQgzApSAXI3qYaPQembdlT1D9NyNGAGoQffzyNqLJ64E3A1eASy7/SmNnIdtf+GfnymsrApHWF4jEvkOq5R9l6cpMRWw0eMYIQA2h3TfMBn0f8BZgTNj2vIpcGrKHCzMDLXOSY0UcYq2bsWJ/L13rf1MZAw3lYgQgZFRvibA1ezPK7Ywc3lp7aB4yfTB8GJx8mY0Foom9xFruZM7GL9ZTGHIjYgQgJHTzta0k5c+BD4GMUKyzDlAtLA3SB8Epc68AwIplSLR/nTmJj4qsLFdJDAFgBKDKaPctcTT7HoS/A04O257AGO6HzP7y9wkAIvFhIq3fZG7Lh4wQVBcjAFVCFaHnureA/ANwVtj2VAaFzGHIHPSwNACiiSGiyU/JRRu/FLxthpEwAlAF9MnrurDkX4FLwralKqgD6f2QOeStfTS5h1j8NunatCJYwwzHYwSgguijN4wjoV9AeRfNGHdhD0NqT8HJqGwsiLX9jjFtN0rnysHAbTMARgAqhm65/lqE/8A9e00TcGRZkN5X/tEhFPYHEu0fkDnrvxm8bQYjAAGjO28ZS2b4ayBvC9uWmsLOQWo35L0k6xWIt6+nve0KMxsIFiMAAaJbb7wEx/kfGnaTzyeqhQ3CzAGvs4E0seTNctGmXwVvXHPSfOvSCqCKaPf1n8RxVmMe/uKIQHICjDkNJFJ+ezubZHjgF7pp3leDN645MTMAnxRi7+W7wI1h21JXOHkYfKEQkuyFeNsWIlMulq77TAEQHxgB8IH2XDMVjdwLzAzblrpEtbAvkPVYWjHa0kdr9GJ5zeZtwRrWPJglgEf0yevno5H1mIffOyLQfjIkiyT6GY18ZiyDw0/q5vlvDNaw5sEIgAe05/obsfgdRVNUGcoiOQHapxQEoVycXIzM4fv0oUv+InjDGh8jAGWiPTe8C+UnQDJsWxqK+BhoPwXEw1dSHSFz+D9087xPBW9YY2P2AMpAe65/P8rXMJ9b5cgNweCLBXfishFIdPyLzN300cDtalDMDKBEtOeG283DXwVirdB+qreZAArD/R/RTXPvDNyuBsUIQAnoluveg+qdmIe/OsSS3pcDKGQHPqQPXmJKtJWA+UKPgm654SZEfwR48Fwx+CI/BP0vgJccqyLQMu5j0rXhnwO3q4GoeQHQzXNiDA2djyVttCQflq6Hq+b4oT3XXYbKL4FYtcY0HMfwAKRe8tZWLCV+wm0yd92PgjWqOLr8gjZacnMQBmltfVK6HvaQIaV61LQA6NppV6HWv/FH99qDwOcYH/mqdHZ7yEFVxtg9N56HOmuBsZUcx1AC6f2Q9lhsyYo4tIxbIHPWbQzWqFei3Z1xDtofoFDDcPyRH+8Cfb8s2nZ/Jcf2Q80KgK6dPh2Vxxi5HPR2VD4si7f+siJjd189GWIbgTMq0b/BA4Mve/cYjCTSaNuZsmD93mCNKqCrZ74R0TuBaSNcTgOzZVHv9kqM7Zfa3QR0eB/Fa8FPQ/QXumbGr3X9tBlBDqsrlkQh9iPMw19btE2GqEfXC3s4iZV+VDXY77uunzZD18z4NaK/YOSHHwr+Iu8NctwgqV0BQCaWcNOV2NaTumbG13XFtGC88iZ2fBFYHEhfhuAQgTFTwPJYzjKfnsKDXb8OwhRdMXucrpl+B7b1OHDl6A1q12O0dgVA2FHinVHgvUStLbpuhq+ce9p9w63IKKW/DeEhUWjzkUg5O3i5Pjj//X5M0NXTFxDN9IJ8nNIrNj3tZ8xKUrt7ABvPO4lcfjvQUUazFxnIn+OlMKc+/qZTidpPACeU29ZQZYb2ek84asVs2sbOktlry16THylQ+jTlpHMX+pDcNFmwsyL7D36p2RlAoeijdTnIzjKanUJHtOzIMNXPWMTs72Ee/vogOREiCW9tnVyEdMpbtuFI4hrKquUgOxHnslp9+KGGBQBAFvVsYiDXifAJCqWgS0AnlT1Qz6MfRllSdjtDOIgciR70+PXNp6foQxd/rfxxrZNKvHMQ4RMM5DplwfaHyh6nitS0AADI1TuGZWHvHahMQ/kuo7mF2VZPOf1r77VnAZ/xbqEhFCJx73kEAIYH3q+PXXJheY20e7QbUL6LyjRZ2HuHl6Votal5ATiKLN76sizufQfqzAOKOXXcz+Kta0rtUxXBtr4JtAVipKG6tIyDaLGT4lFQR8hk7iurzcLeVcDyIlc3os48Wdz7Dlm89WVvRlWfuhGAo8ji7Q+ysHc+qm9HePLIjwcQvkqy7SaRMhzHe274M+D1FTG0WRgegi0PQGYghMEFWifjeS87lz5FN88vOYeACMpQ/Cbg34CBIyY8ierbWdg7XxZvf9CbIeFRs6cApaLrT03K/BfKLj1zJJnnNhqpQGe1SQ/Atg2FBJ8XXul9Te4XP6cCkViOeHyidD3cV25Tr9+9WqLuZgDH4/kPYFufwDz83kkdgt61kEvDCZPDe/ihsBfgJc04gJ2LYUc8BQvV+8MPDSAAXtCtN5wJ+qGw7ahb+vdB73rIH4nHOiHk6mdiFfIKeiU/eLk+unhqcAbVD00pADj6fykeZ2Bw48ALsH3jH8t/WxHoKMVru8K0jAOrVMe843AcITt0V7AG1QdNJwDac81UwNTt88LeXbDrkVfm6xs3uSACoSOQHD/6bcXIprp0w8KLg7OnPmg6AUCtT1OIHzCUw+6n4NknXl3T74Qa2kaJd0DEa+4WBRn+j0DtqQOaSgAKa3+5LWw76gpVeOZxeH4E/yrLgrGlOsdVARFo8bEXkBucrRsvnhWcQbVPUwkADrdjcvuVjjrw9MOw75mRr3dMgkiNTabiHd5PBFDA+VaQ5tQ6TSMA+tRVHaDvDNuOusGxYfsmOPhi8XvC3v0fCRFo8RHTlU/N081LajZ+P2iaRgDIxt5NeaHFzUs+C9vWQb9LEJtYMK6Gpv/HkhjrrcwYFFyE7fTngzWodmkeAUDeFbYFdcHwEPSugcFRPOvGnAhRj8dulcaKQmyM9/Z2umn2iZpCALT7xoVAU23ueCIzUPDuS5cQeT2+hnb/RyLhI5mznU3qg/Ob4qi4KQQAHPP2H43UYdi6FrIleLeKwLgaF4BYq3fHIAAn95HgjKldGl4AdNeSFuBNYdtR0/TvK6z58yWWWmifADGPGXmqScLPMmDoAl2xpOG9RRteABgacwVm8684B4+49tr50tvUkvOPG372ARzbYkz6Y8EZU5s0vgBg3Rq2BTXL3l3w9HGuvaVQLwIQTRQyB3kln39LcMbUJg0tALr5vTHgmrDtqEmKufaORvsJEPdYoCMMYu3e29qZaapLaszTKVgaWgBI7F2Amf6/mue3jOzaWwrjatD5x424DwFwbIuHM+8IzJYapLEFwNIrwjahplAHdm6G3eVkWj+OWj/+O55o0l+yEtt+e3DG1B6NLQCllG1qFhwbnhrFtXc0WsdCog7zp8Z82OxkXxOcIbVHwwqAPnrDOOCCsO2oCfJZ2LYe+nzWp6hF3/9S8FpUFCCfHavr5pdfa6JOaFgBIKYX08i/X6lkM4Uz/sGD/vuqt+n/UaKtPhorJJyGDSJr3AfE0gVhmxA6mUHYuhqG+v33lWyHFh/n6mESifvdB7gsOGNqi8YVAKTp0ju9gqHDBb/+Ulx7S6Fep/9QcF2O+vBc1HzDxpE0rgAoDb1540r/fuhdB7kAK1PVswAARHx49dp5swdQT+jjN04CajRYvcIcehme2lCea+9oJFoLJwD1jNdqwgBOLqKPLZwWnDG1Q0MKADGnOXf/9+6CnQ+BU6Zr72jU+9sf/LkEA+TzrwvGkNqiMQXAYXrYJlQdr669pdAQAuAzetHWi4IxpLZoTD9n4YywTagqz22BPT68+9yItxT8/+sdsQrJQtX22IHTkBuBjSkAyJmUUSS4blGnUKjjgA/vvtFohLf/USJxyHs8FVHnlGCNqQ0aVAC08WcAjg07HoK+PZUdp15Cf0vBTwUjx67zXdCRaVABYHLYBlQUO1dI4hGEd58b0TiM8VFoo9awvFYNAtSuoxjo0mlUAfBRJK7GyWVg2wZIB+DdNxonnAx4TK9di3guGAI4eR/qUbs03CnAkRyAPoLAa5j0IPSsrs7DD/UZ+eeGryKmim68uOFySzScADDc0Zhv/9Rh2Baga28pvNBTqAvoeN05rzV8zmZaYg23tGw8AcjGGi+T68CBQkRfkK69pbLvGehZOXqhkHrAT0AQQJ6GcwluPAEgW6PlanyQGQQ7xLdwerBQLej5nuC9DKuJXwGISMPVDGw8AbD8hH3VKBPPgFmLwg3HVS14G/asLEQaNiM5p+Gel6qdAqhisW7Gm1GZC1r8SEXJItJLsvXb0vXwUNkDWfkI2nB/J2g7ATqXwIu9sGdHZVx+SyE9AN2rYfK5cOoM/2/VquLzMxNvboS6/II22rLvxGE6gssMVdKgm1jY+yMRqjLVqsoZz5EP4Fcoi0tvxA7EuUIWbX+6rLF6bjwPdZ4s28h6YvAg7Hq0sDQIk9YOOOu19RMpmE3B4Ave2yfHXyNd639ZThNdd+45OLHloOeU0WwlybY3enoBlkl15Ds5/NmyHn4A4VzE+nb5g4WxU1Zl2scXZgOTp3ovgx0EQ/2FY8nne8ovLhIGEsIMwIl9p8yHH2AJ6dQ/lD2WB6ojACLeKq0qi3Vt5+nltZHGFwAonGmfNgtmLAj3vF6dwt7A1rXhz0hGw++ySSNl/YK6YsaZoAs9jlaV6sTVWsB5/4Y6ZTr15KMZz2PVI+0TCrOBiWeGa0fqEHSvKIhBWPsTo+F3lhKLPlPe/ZYfZa6KM1u1BGC1x3YvY0/cXlaL3MRDNEUo4DFEonDma2DavEL4blg4TmE5sG0dDFd8+Vo+vhyaBC5Y+VJZTVqS24HdHsdb5a1deVRpCaAfBAbKbGWj+peydGVZua2k6xs5oDnPqcaeBOe9DiacGq4dAwfgwPPh2jASnnMBACJa7s68dD2cA3k/lL2jPwB6e5ltPFEVAZCF27aBMxv4CfAicMjl326EB3BYLIu33etxSJ8VMOqYSAzOngNTQ5wNTDoLTq7BFHp+lgAS8ZRkURZtvRvVxcAKCrMBt+/+iyDLcPQ1sqi3vJmvRxoo1OuPaPf1q4FFYdsROvks7HwY+quoh1OmwykzqjdeOQy8ALmUt7bRlkNyyWMNF2dST14cpSPq47C3gYjGoaNK3qsicMYFtfvwAzg5722tyP7gDKkdGjUfwI6wDagZDpa3b+UJsQoOQRNqPGuW4yNVuloVzLsWHg0qANZTzXYQMCLZdOX99q0InHtRYQOylnFsf3sAljTkS6UxBUBkR82eRVeTQxV++0dihaPH9jpYGttZf+0dWR+MIbVFYwpALttLJKo06CZnyRx8uXJ9x1pg+iWQrJMkOY4fB1EBO1JWDEC90JCbgHLBLw8BZQURNRy5YUhVKGloog1mLqyfhx/A9uEgGolmZcH6hjxabkgBOMLmsA0IlUMvVcYlt20czFxUf/kC8z6WAFa8wrnXw8MIQKNyqALT/zEnwvQFEKu3nCsKto8lgEQbNry8MfcAAEQfRJt0CyCfLZQID5ITToazu8Cqw3dGPu3vBCAidwdnTG3RuAKgiY2QHQJawzLB1ijP5KfzQu5s+nQ8w04SZ4RJV0yyTIk+w5yW1cTwuVsNcGg3gR6Dnng6nDWbIPZUc8R5OHMpL+XPIKevTo5j4dAiaTqsA5wa3cWZ8V4i+MyHmPOTSVkg2fJDfwbULg39itTu638LvKHa49oa5aHhpTyYXkpaS18rj4/s461jvkSr5dFd9ShPbYTDAS1bJ08t5B0IgCGnjf8Z+BAH7Yklt0lag8xtWcFFiZVExKMjjy8X4OQBueTRhksGepQ6nM+Vxe+rPeBh50S+O/ARVg1dU9bDD3DQnsgD6Rv9GWDnoX+fvz6OclpnYA8/wO+H3lTWww+QdtpZNXQt/93/EfpsD2XKVL0XBAWwIg97b1z7NLYAWPLbag532DmR7/d/kH157xV1t2cv8GnE7gBSdwucdWEh8WdgCE/5+N322lP4/sDt5YtAPuVz/Z/8d++Na5/GFoAZ9zwCPFeNoWyN8tOBd5Ny/J2NKxa+VmZ+vf+sCEy9uLDuDxjHZwbhQaeDn6beja1lbF3lfCQmicRy0rXmHu8d1D4NLQAiKFRnB3dT5vXst/2X0j47thXPG3iODX0+/FUiMZg+H8ZVwq9fj/xu/tiXn8KDmdeV3iDrI09hNN6wx39HaWgBKKA/rfQIOU2wOXOp737arX5e3+rD3L493tNexVoKCUYr6Nf/htaf0mb5L2z60PCl5LWEYr12xmcIcOK73hvXB417DHiUWReuo+fRlwDvC/NR2JWfMeqGX4sMMTZyYMTJfYQ8J0efY35yOUnxcQLg1fc/0Vbw66+wd1+HdYh3jb2D9ekreDl/OvYIXz8F+uwJZLT46W3aaWdXbgZTR3tBD/sQGyuaZ078/3vvoD5oeAEQ+YyjPdd/D+XjlRrj+dzZrtdnJ9ZzWdsyrEoWe3Ec6POQf7JtXCGir0oV1ZKS4vWtP3O9xybCb1M38/jw/KL3PJ8/ZxQBUMiWm4byGCLJDSLl5aOsR5pgCQCI9V9UMEHAIaf40VaLDFX+4YfC0Z9d5vf1qGtvjZVTjGBzedsyWqT4Bt5hZ5Sj+WzKXwKQWPRz3hvXD00hADLz7u2g6yrVv9t6dEJkT+Uffih/93/c5MKbP1Kbk0ALh/GR4huaeWeUItDZPu+DR1r6Zc6G+713UD80hQAAINY3KtW125tqj30qQ06lI+e0cP5fKhNOg6lzC0d+NcqQ08Zeu3iKsRbL5XjPyXn3/AOItfyn98b1RfMIwNCkHwIVSVZ/YqT4w5fXGCuGbqjEsH+kf3/p4a6Tp8LZr6XWvcBXDN0wyszKRfAyh7yHQkvMRiZ+ylvj+qNpBEC6vpFD+bdK9H1mbJvr9S3ZuezKT6/E0AVKnf6fGqxrb6XYlZ/Oluxc13uKf+bqb/c/3vob6bqvBssaVYamEQAAcvJ1IPAKlqdGd7muVwGWp95MViuw2aZ6JPrPBRE480I4OUjX3sqQ1QTLU292vWdCZA+nFCvTlznsvQKQWIrV9gFvjeuTphIAufCew0AFfLuVxUn3lHF99nhWp68JfujBg5BzSXdlWXDORTAxeNfeSrA6fQ19trsz0qLkrxjxUEcVMj7SoEXb10nXAzu9d1B/NJUAAGBZnwf8u6Mdx/T4Y5wb2+J6zyOZRbyQd/cZKJvDLs4/R117T/DvolwNXsqfySPD7tW0z45tZXr8sZEvDh/2fvQnlhJtf4e3xvVL0wmAzLz7APDlSvR9WdtPiEvx1FOK8OvUbaW5sZZKsdRfscQR114PIbQhYGuUX6duQ7X4VzImw1zeumzki37f/rG2Nc329ocmFAAAWuJ3AgeC7rbDOsSlrb9wveegPYkNmcuCGTB1eOQy3InWQuLO1rHBjFMF1mWuYL892fWeJa33MTZS5M+WOej97W9FHNR6q7fG9U1TCoCcs6wP4dOV6PvCxBpOjbq/SDam38Ce/Gn+Bxup7FeyA2bUV9beffYUNqXdEzedEn2GCxNrR77o5H2+/cd8T+Ztasp6kk0pAADMjH8dKLKY9I6gXNX2A6JSPArNIcKvUreNmB+wLPqOm/6PORFmLAyvLLgHHCL8atD9s4hInivbfoAU8+ZO7/Oe9CMST9M28F5vjeufphUAkWU2WB+gAjEC4yP7mN+y3PWevfYpPJRe6n2QdD+kjznRPOraGw1wf6EKPJhZym7b/YRiYfL+4s5W+Yy/c/9E28ekszuATKz1SdMKAIB03r0Wkf+uRN8XJx9gctTd8XBN5moO2B6Tbxw7/T+x9l17R+KQPZF16Std75kUeYm5LcVSOyqkPERAHiXWtlXmbKiIc1i90NQCAEAi9kEg8PWfhc1VbXe5BgLZGmX50J/gyS336O7/SWcXSnPXuGvvqxGWD93qeiIy6mc4dMB7wQ+J2thjr/LWuHFoegEobAjq+yrRd+Ht9YDrPc/nzuFRl7j3ERlOFZYAp3XC6ef7sDA8Hs3M59ncNNd75ra4zKLsYX8bf/G2L8iCB5713kFj0PQCACCzfv5LlIosBRYmf82EiHuO/lVD19HvjCu902iiEMcfaNbe6jHojGVV+lrXe8ZH9rEgWWQfRRUGX8bz9k20bbvM3fRJb40bCyMAR5H4/wF6g+42Inmuarur+A42MKwt/Cb1J2V0GoWO+q1V8ZuhWxjWZNHro56kpPd5n/pbsRyx1iXeGjceRgCOIJ3LBrG4FfBTR2pETok+w+yW9a737MzNoif72qCHrjl6snN4Kuu+bJndsq64L0UuVQj39YIIxDreLl1rKlA5tT6pzXQwJaAbzzuJnP0BVM9HZD+WfksW9G7w06fMvPdJ7b7uwyCBBwxdmvw5O7OdrlP93w3dxJmx7bRK4AGLNUFa2/h96k2u97RbfVyaLOJN6eSPTP09khjzA7lo3Y+8d1BAV82Yj8W7USYg8gSxyNdk3pa6LCFeb1vHaHdnnAPO7Yj+HfDKKhwqH5fFW7/gf4zrvg4SuHPI07mZLBtw32+cFd/Mte3fC3romuC+wT+lJzvH9Z6bxnyLc2MjJPtUB/qfL6T69kKsfbvM2+w7KYOunfG3KP903I/7UflHJlhfrjefgrpaAuja6ddxwO5G9PMc//ADiH5O1517ju+B0pP/Cljhu5/jODu2lVnxza739GS7Rp0i1yOFJY77w9+ZeGjkhx8K5/1eH/5ISz9j2t0HLwFd33kuymdHuNSB6Oc5YHfr2unX+R2nmtSFAOjqzlm6esZyVO5FcNv6jmDHfLjXFZCub+SIOreCPu23r+N5Q9vPRp3ij7ZJVm+UssmZtAZ5XWuRKlxD+72n+I7EcrS2XySdK/2vqxz79UBxbyvhXFTu1dUzluvqztpPvUSNC4Cu6GzXNTO/jNiPI1xeUiMhkCmYTL9vP7a+ETSgUrsFkpLi9W3u1X9KOSarJ0o55rws+dORhXH4MGQ8Bm5aEYdY6xtl9trt3jp4FaVNQYTLEftxXTPjK7qisz2gsStCzQqAbp4TI2qvBP0gpW9WDhOxAysJLhfc14tGLgMOB9UnwKz4I6NWtSnFUaYeKMXR6Zx4NzMTj7z6QnYQhjzWOhRLSXS8XS7aFFyF6Fz+90Cp549R4K+J2A/o5jk1G6BRswJAevDtQHnrNpVPy/ztLwZphpx39+NY1g2Uqv4lcnnrMhLiduIoLB+6JdjkIVWmFFfnhGS4ovXHr76QG4LUSx6z+1qQGPth6dpwl4fGRZGlO15A+Ex5jbiIoVTN5hqoXQFA3HNDHYuyA7g2iBOAES2ZefcqlBsI0Eeg3epjSevPXe85ZE8aNVimlikl2GlJ672MsY6bYOWGYPBFjw+/QEvHW4YDowAADMRJREFUx+WiDRXJ+iQLe+8Arj3ynSuxkZb+Xa4ytSsAUtIR5QAqH2cwf54s6nVPxePXnPPuXY7olYCPgnOvZHZiw6gpxUsJl61FSgl3Pi22k9mJ41w3cqkjD7+H+H4RSHR8VC7aWJEXwR+GWdT7Cwbz56HycQL8PoRB7QqA4rZT5gDfJh+ZJou3fkGu3uHRL7Q8ZNbPV6N6FeCj7tSxKFe2/oiYSx7BUhJm1BqlJDyJSo6r2n7AK/z5s4PeH37LUmLj3idzN/1L+Y3LR67eMSyLt36BfGQa8G1wCftU6+5q2OSFmv1WyaLeXyB86VUXlA1YzjxZ1PvnsrTbRzC4R7vO+/k6xFoIPBdEf2MjB1gwSvKQUlJm1RKlpDxblPwVJ1jHHLAM93mf9kvUJnbCbXLxhq+X39gfsrR7tyzq/XMsZx7KSJ6od8rire4540Ok5j0BdfWMS4FrsIiA81sWbL9f3CJrqmVXz5tORu37KHejcqS+1OJ7/bfzsn1G0XsikucdHV90LUNWCxy0J/Ht/r9x3bw8KfoCf9pxJxZHCnik90Pa41FfJJZBxi6RS9Zu8tZBcKgirJt2JViX4WCjcp9cunV12Ha5UfMCUMto9y3tMPxjEN+JJfblp/Cd/o+5TpunRJ/hbWO+gkgVqg17QBHu6v9r19oHFjZ/2nEnJ0VfABQGd0PWY0qvaPIAsfbzTXCPd2p2CVAPSOeyQfb2XwfyX377mhh9iXlJ9yPrUgpnhMkjmcWjFj6Z1/K7wsOvCgMv+nn4X6JFzzUPvz+MAPhElq7MM+uedwP/7Lev+S2/4cSI+/d5VfoaDju1V+yj3zmB1ek3ut4zPrKXS5K/LWzyDTzvvYR3rL2beWPPkAsfC9RBqxkxAhAAIqh03vsx4A4//RSSh/zAdYqf0wT3p95Mra3e7h+l+OkfknxoBvqfg7xHl4p42+Myb/N5Iis9VgExHIsRgCCZde8nAV+xvFOiz/LaxBrXe57NTWPL8EV+hgmULdm57MrNcL1nTsuqQpKP1Eves/lEW/bSnnGvG24oCyMAASKCkj7pXYCveIRLW3/BOMt9V/z3QzeS0jF+hgmEtNPOiqEbXO/psA4VKvqm9hS8/LwQTaRwWs+vt3j7WscIQMBI1zdy2Plb8OEnECPLlW0/xC3pZUZb+V3qJq9DBMZvhm5myHEvQ3Zl2w+JD+8unPV7wYo4SMt8WbDeY2SQoRhGACqAXPDLQ8DbcPMOG4UzYts5P/GQ6z292QvZnr3A6xC+2ZnrpDd7oes95yc2cZb1RCGRp1diHXfKvE1PeO/AUAwjABVCOu9dg/AVP328rvVu2iz3Y7LfDt3suvlWKbKa4P5Rkny0Wf28Lnl3IY+fp8AeINbWK3M3fMxbY8NoGAGoJMm+TwLu0T4utMgQl7WOnjwkjIjBtemrGHTcy49f1voTWoZ95PGzonnaxi3x1thQCkYAKoictTKD8Ak/fUyPP8a0uPvsd3NmCQftSX6GKYsD9kk8nLnU9Z5p8SeYHn3YewpvgHjbf8r5v6/LbLv1ghGACiOz7r0bWOenj8tbl9EixXfPHayqzgLWpa9ydVlOWBne0PpTv2W7M3Ql/8qjiYYSMQJQHXzNAtqsfha3uqc72Jq70Hul4TLYb59Mb3a26z1LkvcyRvfAsI9Q+WjrPxpnn8pjBKAKSOe9awB3755RmB3f4OomrGqxObPEzxAl8VBmCerihTghsocLEpsgfRDPtfuseFrmbhwp/bYhYIwAVA39hp/WIg6XjjIL6B7uIqOtfoZxZViTbB3l2G9p6z1YzjDk/Lz9k8u8NzaUgxGAahHPLfObYvzc2BZOjxZPRZcjPuoD6oee4TnkXI4cz4ht55xYT8Hhx+uxn2Up+Yg59qsSRgCqhEz99TBYvmt+XZR0L1i0bZT1uR+25tyLl85teaDwn6yPjGnR5BPG4696GAGoJuLc67eLs2NbXZ2Dnsufy5AGX4sipWN4IX9W0evtVh9nRbdBfhjsImW9S0Hi3/fe2FAuRgCqyZ7+9fhMKGph0+lSX1DV4tls8AVFns1NR7X41+W8+EOFMOacjwpcIuA4vvZKDOVhBKCKyNKVeUR8Vy46L+4eI/BsfqrfIV7dZ869z86jcQteo/0AosndMm+TxxRBBi8YAag26vguVTUx+pLrMuBFl6m6V17MuU//T4zsLjj95H0IgBWt6QSajYgRgGrjSCBRbVOizxa9dtCeFGhJsbzGOKgTi9sSeabwH9tvqH50lc8ODGViBKDa5KUniG6mRJ8pes0hEqhX4H57suv6/w9ilPdZn8UapUCCIXCMAFQZufCew8BLfvtxmwEA9Dnj/Q5Rcl9/ECPHhwBIzJauB3Z678DgBSMA4eA5RPgor6iqMwIDzji/Q5TcV4d1JOLPzxIgEjGbfyFgBCAMRHzEyBZoswZcswcHmS8w5bj39YdIRa+RfwDiEu5oqBhGAMJA1ffbzsImLsXfuHmN+x3ij31RfEPRwiZhHZn6q+1jFMsIQAgYAQiHQKa7MYoLQC5IAXDpq8XK8IeoP6/+/wCKDw8ig1eMAIRDIDXlLZeco0GWE3ct880xbr9+ZgBiZgBhYAQgDMTPYrmGEV/VihrzM6lxjAAYDE2MEQCDoYkxAmAwNDFGAAyGJsYIgMHQxBgBMBiaGCMABkMTYwTAYGhifHluGLzxyLa7f7lfpl7tt599+SnYREa8lpQUYyMH/Q4BQJ89nrS2jXgtgs3EaCG6efvBFhyP3sBnRbfuu/aia6tX4NAAQDRsA5qRNOPGHBL/abuiseJ/QIexHMK9em/pA0HxagBRDlH4XYbs/TgeFSAVHR9c8IKhZMwSwGBoYowAGAxNjBEAg6GJMQIQAocjp3eHbUOtMajjXwzbhmbECEAIDDLZV5HQRmSIsQfCtqEZMQJgMDQxRgAMhibGCIDB0MQYATAYmhjjCRgC23Y9v/hAXyPWwfCeFXhs+5jTAzTEUCJGAMLBUj8ptBsRUROXEgJmCWAwNDFGAAyGJsYIgMHQxBgBMBiaGCMABkMTY04BQqBjTPuzLYn4orDtCJq+VBqvR4EtLS19wVpjKAUjACFw8okn7PJxZF6zPLvXe0ag1kT8cMDmGErALAEMhibGCIDB0MQYATAYmhgjAAZDE2MEwGBoYowAGAxNjDkGDIGX9x86K5vNhm1G4PjxA3Cc5LhgrTGUghGAEOgfGDxj/2Hj93IsEUsCKmNkKAezBDAYmhgjAAZDE2MEwGBoYowAGAxNjBEAg6GJMacAoaCOSCPmwPQR4qiNGB9Z+xgBCIHpZ5zxM0QvDduOIFFVntmz33P7jrbkgwGaYygRswQIARVeDtuGoMk7jr8ObJ4JxBBDWRgBCAO1t4RtQtDk87av9pZlPxCQKYYyMAIQAm+eNmYr6Paw7QiS1PCw57bRiOTeN2fK/QGaYygRIwAhoSrLwrYhKFSVoYz32IZ4NLYxQHMMZWAEICTsRO5fgINh2xEE/UMZbI97ABFLNGFF3hmwSYYSMQIQEm89Y9whkM+GbYdfbMfhcCrluX1rLH73X3SdtDNAkwxl0IiH0XWDqsqPn0rdhcibw7bFG8rLB/vJeAxtbonHXvzg3Cmni4jPIwSDV8wMIERERFvb294FUnc74KrK3r5Bzw9/IhY72N7efoF5+MPFCEDIXDtFhg73Ja9U+PewbSkV23HYfaiPVDrjqX1rIvHkuPSUU97dObYh9kDqGbMEqCF+sGNovqX6BWBB2LaMhKIMDA1zeDDladMvHo2kksnY3//l7MlfqoB5Bg8YAagxVFV+vDM9H7hOVC9TOA04MRRbUGzbIZe3SQ0PM5TJlvXgRyIRxxKG47HoE5ZY337/ayd900z5awsjAHXAr57SxKF4X2up9z/Z8+yV2UzuLr/jHhuwlGhNvOfkk078faltT0jHDrxt3oR+vzYYKosJBqoDrp4qw0DJrnYf+MmDg6LBBtdl++09n7t88q5AOzWEjtkENBiaGCMABkMTYwSgAbE04Pl/hfo0hI8RgAbEsdR7Zo5iiLMv8D4NoWMEoAGx7OhLQfcZyUUC79MQPkYAGpCv3Nr1HPB0YB0KO++8be7zgfVnqBmMADQoit4dVF8CPwuqL0NtYQSgQdF8/k7Ae5zuH0mJRIzrboNiBKBB+dptC18S+JzffhT+4cs3dTVcElNDAeMK3Mioygd+uukHovInXpoL+rOv3HzxzYiYI8AGxcwAGhkRpXXCn4F8u/y23GWp8zbz8Dc2ZgbQJPz1Tzb9GcpngVPd7lPheXH07/711nnfq5JphhAxAtBEfOjH65O2WNercIMorwE5Igb6AliPiXJPXyp173feudRbpg9D3fG/b2ho8ZJVVCMAAAAASUVORK5CYII=;" vertex="1" parent="m5X-id6JAVoZ-Rpwvo6L-1">
                    <mxGeometry x="473" y="439" width="180" height="180" as="geometry"/>
                </mxCell>
                <mxCell id="m5X-id6JAVoZ-Rpwvo6L-20" value="" style="group;rotation=90;" vertex="1" connectable="0" parent="m5X-id6JAVoZ-Rpwvo6L-1">
                    <mxGeometry x="443" y="819" width="256" height="256" as="geometry"/>
                </mxCell>
                <mxCell id="m5X-id6JAVoZ-Rpwvo6L-21" value="" style="group;rotation=90;" vertex="1" connectable="0" parent="m5X-id6JAVoZ-Rpwvo6L-20">
                    <mxGeometry width="256" height="256" as="geometry"/>
                </mxCell>
                <mxCell id="m5X-id6JAVoZ-Rpwvo6L-22" value="" style="shape=image;verticalLabelPosition=bottom;labelBackgroundColor=default;verticalAlign=top;aspect=fixed;imageAspect=0;image=data:image/png,iVBORw0KGgoAAAANSUhEUgAAAQAAAAEACAYAAABccqhmAAAABHNCSVQICAgIfAhkiAAAAAlwSFlzAAAHYgAAB2IBOHqZ2wAAABl0RVh0U29mdHdhcmUAd3d3Lmlua3NjYXBlLm9yZ5vuPBoAAAp8SURBVHic7d1NjBtnHcfx3zNje71v2by/NDSNgAq1iL5Q1MIBCYFEOSGEiqgQXLkWIYHEbYV6QY3KnQucUMWhXIvooTc4oBbaQpoUFQKtINlsNvuWtT2eeTgEKtI0K3s868nO7/s5bjSzf21mvvbjscdB2Le+sLzcSnX251J8SlJ33O1jUWjQ66nIslK/P2233knnrn7yleXlXqkdoHZJ3QOgvFRnnpbit1Xi5JekkCTqdEttKknKs+FHi53j50rvALUjAPtYDMl9k+4jJJMdAlHxE5POgPoQgH0siUWoewZF1T8DSiMAgDECABgjAIAxAgAYIwCAMQIAGCMAgDECABgjAIAxAgAYIwCAMQIAGCMAgDECABgjAICxVt0D7Hcb5x47OhPDyWFIZ6b9u5/rv3PPv/IDE++n194qve1iR4svnXvisTLbJtu9A0meHS2G+dh/u3YSt4at5C/d5bculvnduImbOZSwce6xo50k/WGUvinpTN3z7GsxSv2BtLmtsLMjxfE2D610WHQ6r4aZ1neIwfgIwJh6zz/xZYX4Qow6VPcsjbPTV1hZvRmFMcUkxGR+/kczz174yR5M1lgEYAw7zz/+eUkvS+rUPUtj9QcKl1fGfiYg6ebRvDD//e6zF39a9VhNRQBGFJ97aL6Xdt+WdKruWZourG9I1zfLbZwk+czS7MmwfPFqtVM1E1cBRrSTdr8rTv6piAcWpVDy0CyKtD/Qz6qdqLkIwIhC0NfrnsFGCIqzE1xUyQZfrG6YZiMAo4p6sO4RrHTKX6EOw3yxwkkajQCMjlf9p6nsEkBSjAXH9Yj4Q42OF0ynKUzw5y5zBcEUAQCMEQDAGAEAjBEAwBifBjQUOolaDxxQeqwrRSlf6Wn41obioKh7NEwZAXDTCuo8cVRhLn3/R+mpWSVLHfV/tyINeQndCUsAM62zC7ec/P8T5lK1zi7UMBHqRADMJAfbpf4NzUQA3CS7vMFmt39DIxEAwBgBAIxxFaDBwmJLoXPrC36hdeen+aEVlBy59WO4cZArbg73ZD7UjwA0UJhN1X7ooJKD4925LCy21fnM4dt+XqwNlL1xXXEnr2pE3CVYAjRNEtT59OGxT/5dd3moo86jh3iRsIEIQMOkx2YUFqp/YhcW20qPTv2rD7DHCEDDhNnb3+RT2b7nWDE2DQFomHhj79bpxY1sz/aNehCAhslXeirWqz9Ri+uZipV+5ftFvQhA00Qpe22t0pO1WOkr++Mat9pqIBZ1DRT7uQavXlPopgoztza+9cCSkqUPf89/sZ5peH79A/sqFHtc/msqAtBgsZfffvIWuzyMF3FPlg+4e7EEAIwRAMAYAXCz2xIg51U+NwTATLE2KPVvaCYCYGb4t23F7ds/3Re3hxpe2q5hItSJqwBuiqj+71fVvn9ByYnuzR9d7in76xZLAEMEwNGwUHZ+Qzq/UfckqBlLAMAYAQCMEQDAGAEAjBEAwBgBAIwRAMAYAQCMEQDAGO8EHNG7R47VPYKV9aUjunbPvRPs4b3KZmkyAjCiX3zpybpHsHJ5mOlSf5JPJ75U2SxNxhIAMEYAAGMEADBGAABjBAAwRgAAYwQAMEYAAGMEADBGAABjBAAwRgAAYwQAMEYAAGMEADBGAABjBAAwRgAAYwQAMEYAAGMEADBGAABjBAAwRgAAYwQAMEYAAGMEADBGAABjBAAwRgAAYwQAMEYAAGMEADBGAABjBAAwRgAAYwQAMEYAAGMEADBGAABjBAAwRgAAYwQAMEYAAGMEADBGAABjBAAwRgAAYwQAMEYAAGMEADBGAABjBAAwRgAAYwQAMEYAAGMEADBGAABjBAAwRgAAYwQAMNaqewAXazcy/WtzRzHWPcney7Jc165tqciLsbcNSaKPnVrS7JHZPZgMH0QApuDfGz29/PYVRYez/7/iINfwynqpbS/9/aoefPgjSo7PVTwVPoglwBRcWrthdfJLUuikUqv84fXPd69XOA3uhABMwbDwOvnfF0LpTWMx/vIB4yMAgDECABgjAIAxAgAYIwCAMQIAGCMAgDECABgjAIAxAgAYIwCAMQIAGCMAgDECABgjAIAxAgAYIwCAMQIAGCMAgDECMAWdtPy98fa1Ce6FmE5wQ1GMjr/yFNx/fEEzZgd0sT2QSnwvgHTzuwHu//jRiifCh+F7AabgYLejr33qtNZuDCZ5UNw3Blmuzc2edN/hsbdNEum+4we01ZIu9Qd7MB3+HwGYkk6a6MRit+4xpufI/ESbbw2zigbBbryelwK4BQEAjBEAwBgBAIwRAMAYAQCMEQDAGAEAjBEAwBgBAIwRAMAYAQCMEQDAGJ8GnJJhEbXRyxQNPg48zAtt3eiX2jZR0KnD8zw0TQkBmIKNXqbfXLisXpbXPcrUFNt95WvbpbYNaaLHP3tWmuPw3Gt0dgouXtmyOvklKZmfkdJyh1fMC114e6XiifBhCMAU9EveGmvfS8rfC3FoFsy6EADAGAEAjBEAwBgBAIwRAMAYAQCMEQDAGAEAjBEAwBgBAIwRAMAYAQCMEQDAGAEAjBEAwBgBAIwRAMAYAQCMEQDAGAGYgpL3xrQWJrifIEbHoTkF9x6ak+R1QMdBLk1wY8/T9xyscBrcCTden4LTB2b1lQdOamWzJ4PvBdEwL7R6dUvFmcMltg46c3JJS8fndKk/qHw23IoATMmx+Y6OzXfqHmN6Tk/2CH55mFU0CHbDEgAwRgAAYwQAMEYAAGMEADBGAABjBAAwRgAAYwQAMEYAAGMEADBGAABjBAAwxqcBRzSTDesewUq7KJTWPYQBAjCiH/z6hbpH8LK5rXDteunNuxWO0mQsAQBjBAAwRgAAYwQAMEYAAGMEADBGAABjBAAwRgAAYwQAMEYAAGMEADBGAABjBAAwRgAAYwQAMEYAAGPcEaipkqDkUEehm0ghlNtHjIr9XMW1TCpitfPhrkAAGigsttR5+JDCfDX/vXFrqMHra4qb3BexaVgCNE0a1HnkcGUnvySFhZY6jxyWkpLPJHDXIgANkx7vKsxVfz/dMJcqPTFT+X5RLwLQMGFm726mHWZYMTYNAWiYYmvv1unFZrZn+0Y9CEDDFFd7Kq72q9/val/FavX7Rb0IQAMNXr+u/L0dKVZw6S5G5e/e0OBP5b+kA3cvFnVNlBXK3ryu7HxQ6Ez2mkAc5FLOewCaigA0WR4Vd7h2jztjCQAYIwCAMQIAGCMAgDECABgjAIAxAgAYIwCAMQIAGCMAgDECMLqi7gGcBE3w+YOy90A0RABGd6XuAZzEYV5625CE8hubIQAjC6/VPYGTkJX/EFORtlYrHKXRCMCoYnyh7hFs5IW00yu/faf1YnXDNBsBGFF3c+6Xinqz7jkchPWN0tvGdqvXbXeeqXCcRiMAIwrLrwxDWjwl6VrdszTa9o60tV1u2ySJrbm5r4blPw+qHaq5CMAYut/7w4UQ9TkpvlH3LI0To8L6psLqmspcAIjtVi9dXHiy/ePzv61+uObiekkJ8VffSHvv/eNbivFpSY9KOiFiOr4YpWEu7fQVtralbMy7DqdJEVutq2q3Xuy2O8/wyD++/wA/A0R8GXInIQAAAABJRU5ErkJggg==;rotation=90;" vertex="1" parent="m5X-id6JAVoZ-Rpwvo6L-21">
                    <mxGeometry width="256" height="256" as="geometry"/>
                </mxCell>
                <mxCell id="m5X-id6JAVoZ-Rpwvo6L-23" value="1.5 V" style="text;html=1;strokeColor=none;fillColor=none;align=center;verticalAlign=middle;whiteSpace=wrap;rounded=0;fontSize=24;fontStyle=1;fontColor=#136E48;rotation=90;" vertex="1" parent="m5X-id6JAVoZ-Rpwvo6L-21">
                    <mxGeometry x="131" y="113" width="60" height="30" as="geometry"/>
                </mxCell>
                <mxCell id="m5X-id6JAVoZ-Rpwvo6L-24" value="1 A" style="text;html=1;strokeColor=none;fillColor=none;align=center;verticalAlign=middle;whiteSpace=wrap;rounded=0;fontSize=21;fontStyle=1;fontColor=#83F29B;rotation=90;" vertex="1" parent="m5X-id6JAVoZ-Rpwvo6L-21">
                    <mxGeometry x="84" y="103" width="60" height="30" as="geometry"/>
                </mxCell>
                <mxCell id="m5X-id6JAVoZ-Rpwvo6L-25" value="" style="group;rotation=90;" vertex="1" connectable="0" parent="m5X-id6JAVoZ-Rpwvo6L-1">
                    <mxGeometry x="443" y="629" width="256" height="256" as="geometry"/>
                </mxCell>
                <mxCell id="m5X-id6JAVoZ-Rpwvo6L-26" value="" style="shape=image;verticalLabelPosition=bottom;labelBackgroundColor=default;verticalAlign=top;aspect=fixed;imageAspect=0;image=data:image/png,iVBORw0KGgoAAAANSUhEUgAAAQAAAAEACAYAAABccqhmAAAABHNCSVQICAgIfAhkiAAAAAlwSFlzAAAHYgAAB2IBOHqZ2wAAABl0RVh0U29mdHdhcmUAd3d3Lmlua3NjYXBlLm9yZ5vuPBoAAAp8SURBVHic7d1NjBtnHcfx3zNje71v2by/NDSNgAq1iL5Q1MIBCYFEOSGEiqgQXLkWIYHEbYV6QY3KnQucUMWhXIvooTc4oBbaQpoUFQKtINlsNvuWtT2eeTgEKtI0K3s868nO7/s5bjSzf21mvvbjscdB2Le+sLzcSnX251J8SlJ33O1jUWjQ66nIslK/P2233knnrn7yleXlXqkdoHZJ3QOgvFRnnpbit1Xi5JekkCTqdEttKknKs+FHi53j50rvALUjAPtYDMl9k+4jJJMdAlHxE5POgPoQgH0siUWoewZF1T8DSiMAgDECABgjAIAxAgAYIwCAMQIAGCMAgDECABgjAIAxAgAYIwCAMQIAGCMAgDECABgjAICxVt0D7Hcb5x47OhPDyWFIZ6b9u5/rv3PPv/IDE++n194qve1iR4svnXvisTLbJtu9A0meHS2G+dh/u3YSt4at5C/d5bculvnduImbOZSwce6xo50k/WGUvinpTN3z7GsxSv2BtLmtsLMjxfE2D610WHQ6r4aZ1neIwfgIwJh6zz/xZYX4Qow6VPcsjbPTV1hZvRmFMcUkxGR+/kczz174yR5M1lgEYAw7zz/+eUkvS+rUPUtj9QcKl1fGfiYg6ebRvDD//e6zF39a9VhNRQBGFJ97aL6Xdt+WdKruWZourG9I1zfLbZwk+czS7MmwfPFqtVM1E1cBRrSTdr8rTv6piAcWpVDy0CyKtD/Qz6qdqLkIwIhC0NfrnsFGCIqzE1xUyQZfrG6YZiMAo4p6sO4RrHTKX6EOw3yxwkkajQCMjlf9p6nsEkBSjAXH9Yj4Q42OF0ynKUzw5y5zBcEUAQCMEQDAGAEAjBEAwBifBjQUOolaDxxQeqwrRSlf6Wn41obioKh7NEwZAXDTCuo8cVRhLn3/R+mpWSVLHfV/tyINeQndCUsAM62zC7ec/P8T5lK1zi7UMBHqRADMJAfbpf4NzUQA3CS7vMFmt39DIxEAwBgBAIxxFaDBwmJLoXPrC36hdeen+aEVlBy59WO4cZArbg73ZD7UjwA0UJhN1X7ooJKD4925LCy21fnM4dt+XqwNlL1xXXEnr2pE3CVYAjRNEtT59OGxT/5dd3moo86jh3iRsIEIQMOkx2YUFqp/YhcW20qPTv2rD7DHCEDDhNnb3+RT2b7nWDE2DQFomHhj79bpxY1sz/aNehCAhslXeirWqz9Ri+uZipV+5ftFvQhA00Qpe22t0pO1WOkr++Mat9pqIBZ1DRT7uQavXlPopgoztza+9cCSkqUPf89/sZ5peH79A/sqFHtc/msqAtBgsZfffvIWuzyMF3FPlg+4e7EEAIwRAMAYAXCz2xIg51U+NwTATLE2KPVvaCYCYGb4t23F7ds/3Re3hxpe2q5hItSJqwBuiqj+71fVvn9ByYnuzR9d7in76xZLAEMEwNGwUHZ+Qzq/UfckqBlLAMAYAQCMEQDAGAEAjBEAwBgBAIwRAMAYAQCMEQDAGO8EHNG7R47VPYKV9aUjunbPvRPs4b3KZmkyAjCiX3zpybpHsHJ5mOlSf5JPJ75U2SxNxhIAMEYAAGMEADBGAABjBAAwRgAAYwQAMEYAAGMEADBGAABjBAAwRgAAYwQAMEYAAGMEADBGAABjBAAwRgAAYwQAMEYAAGMEADBGAABjBAAwRgAAYwQAMEYAAGMEADBGAABjBAAwRgAAYwQAMEYAAGMEADBGAABjBAAwRgAAYwQAMEYAAGMEADBGAABjBAAwRgAAYwQAMEYAAGMEADBGAABjBAAwRgAAYwQAMEYAAGMEADBGAABjBAAwRgAAYwQAMEYAAGMEADBGAABjBAAwRgAAYwQAMNaqewAXazcy/WtzRzHWPcney7Jc165tqciLsbcNSaKPnVrS7JHZPZgMH0QApuDfGz29/PYVRYez/7/iINfwynqpbS/9/aoefPgjSo7PVTwVPoglwBRcWrthdfJLUuikUqv84fXPd69XOA3uhABMwbDwOvnfF0LpTWMx/vIB4yMAgDECABgjAIAxAgAYIwCAMQIAGCMAgDECABgjAIAxAgAYIwCAMQIAGCMAgDECABgjAIAxAgAYIwCAMQIAGCMAgDECMAWdtPy98fa1Ce6FmE5wQ1GMjr/yFNx/fEEzZgd0sT2QSnwvgHTzuwHu//jRiifCh+F7AabgYLejr33qtNZuDCZ5UNw3Blmuzc2edN/hsbdNEum+4we01ZIu9Qd7MB3+HwGYkk6a6MRit+4xpufI/ESbbw2zigbBbryelwK4BQEAjBEAwBgBAIwRAMAYAQCMEQDAGAEAjBEAwBgBAIwRAMAYAQCMEQDAGJ8GnJJhEbXRyxQNPg48zAtt3eiX2jZR0KnD8zw0TQkBmIKNXqbfXLisXpbXPcrUFNt95WvbpbYNaaLHP3tWmuPw3Gt0dgouXtmyOvklKZmfkdJyh1fMC114e6XiifBhCMAU9EveGmvfS8rfC3FoFsy6EADAGAEAjBEAwBgBAIwRAMAYAQCMEQDAGAEAjBEAwBgBAIwRAMAYAQCMEQDAGAEAjBEAwBgBAIwRAMAYAQCMEQDAGAGYgpL3xrQWJrifIEbHoTkF9x6ak+R1QMdBLk1wY8/T9xyscBrcCTden4LTB2b1lQdOamWzJ4PvBdEwL7R6dUvFmcMltg46c3JJS8fndKk/qHw23IoATMmx+Y6OzXfqHmN6Tk/2CH55mFU0CHbDEgAwRgAAYwQAMEYAAGMEADBGAABjBAAwRgAAYwQAMEYAAGMEADBGAABjBAAwxqcBRzSTDesewUq7KJTWPYQBAjCiH/z6hbpH8LK5rXDteunNuxWO0mQsAQBjBAAwRgAAYwQAMEYAAGMEADBGAABjBAAwRgAAYwQAMEYAAGMEADBGAABjBAAwRgAAYwQAMEYAAGPcEaipkqDkUEehm0ghlNtHjIr9XMW1TCpitfPhrkAAGigsttR5+JDCfDX/vXFrqMHra4qb3BexaVgCNE0a1HnkcGUnvySFhZY6jxyWkpLPJHDXIgANkx7vKsxVfz/dMJcqPTFT+X5RLwLQMGFm726mHWZYMTYNAWiYYmvv1unFZrZn+0Y9CEDDFFd7Kq72q9/val/FavX7Rb0IQAMNXr+u/L0dKVZw6S5G5e/e0OBP5b+kA3cvFnVNlBXK3ryu7HxQ6Ez2mkAc5FLOewCaigA0WR4Vd7h2jztjCQAYIwCAMQIAGCMAgDECABgjAIAxAgAYIwCAMQIAGCMAgDECMLqi7gGcBE3w+YOy90A0RABGd6XuAZzEYV5625CE8hubIQAjC6/VPYGTkJX/EFORtlYrHKXRCMCoYnyh7hFs5IW00yu/faf1YnXDNBsBGFF3c+6Xinqz7jkchPWN0tvGdqvXbXeeqXCcRiMAIwrLrwxDWjwl6VrdszTa9o60tV1u2ySJrbm5r4blPw+qHaq5CMAYut/7w4UQ9TkpvlH3LI0To8L6psLqmspcAIjtVi9dXHiy/ePzv61+uObiekkJ8VffSHvv/eNbivFpSY9KOiFiOr4YpWEu7fQVtralbMy7DqdJEVutq2q3Xuy2O8/wyD++/wA/A0R8GXInIQAAAABJRU5ErkJggg==;rotation=90;" vertex="1" parent="m5X-id6JAVoZ-Rpwvo6L-25">
                    <mxGeometry width="256" height="256" as="geometry"/>
                </mxCell>
                <mxCell id="m5X-id6JAVoZ-Rpwvo6L-27" value="3.7 V" style="text;html=1;strokeColor=none;fillColor=none;align=center;verticalAlign=middle;whiteSpace=wrap;rounded=0;fontSize=24;fontStyle=1;fontColor=#136E48;rotation=90;" vertex="1" parent="m5X-id6JAVoZ-Rpwvo6L-25">
                    <mxGeometry x="131" y="113" width="60" height="30" as="geometry"/>
                </mxCell>
                <mxCell id="m5X-id6JAVoZ-Rpwvo6L-28" value="2 A" style="text;html=1;strokeColor=none;fillColor=none;align=center;verticalAlign=middle;whiteSpace=wrap;rounded=0;fontSize=21;fontStyle=1;fontColor=#83f29b;rotation=90;" vertex="1" parent="m5X-id6JAVoZ-Rpwvo6L-25">
                    <mxGeometry x="84" y="104" width="60" height="30" as="geometry"/>
                </mxCell>
                <mxCell id="m5X-id6JAVoZ-Rpwvo6L-29" value="" style="endArrow=none;html=1;strokeWidth=10;exitX=0.5;exitY=0;exitDx=0;exitDy=0;entryX=0.5;entryY=0;entryDx=0;entryDy=0;edgeStyle=orthogonalEdgeStyle;strokeColor=#76608a;" edge="1" parent="m5X-id6JAVoZ-Rpwvo6L-1" source="m5X-id6JAVoZ-Rpwvo6L-22" target="m5X-id6JAVoZ-Rpwvo6L-26">
                    <mxGeometry width="50" height="50" relative="1" as="geometry">
                        <mxPoint x="-457" y="719" as="sourcePoint"/>
                        <mxPoint x="-457" y="685" as="targetPoint"/>
                        <Array as="points">
                            <mxPoint x="733" y="947"/>
                            <mxPoint x="733" y="757"/>
                        </Array>
                    </mxGeometry>
                </mxCell>
                <mxCell id="m5X-id6JAVoZ-Rpwvo6L-30" value="" style="endArrow=none;html=1;strokeWidth=10;exitX=0.5;exitY=1;exitDx=0;exitDy=0;entryX=0.5;entryY=1;entryDx=0;entryDy=0;edgeStyle=orthogonalEdgeStyle;strokeColor=#76608a;" edge="1" parent="m5X-id6JAVoZ-Rpwvo6L-1" source="m5X-id6JAVoZ-Rpwvo6L-22" target="m5X-id6JAVoZ-Rpwvo6L-26">
                    <mxGeometry width="50" height="50" relative="1" as="geometry">
                        <mxPoint x="323" y="939" as="sourcePoint"/>
                        <mxPoint x="323" y="749" as="targetPoint"/>
                        <Array as="points">
                            <mxPoint x="413" y="947"/>
                            <mxPoint x="413" y="757"/>
                        </Array>
                    </mxGeometry>
                </mxCell>
                <mxCell id="m5X-id6JAVoZ-Rpwvo6L-31" value="" style="endArrow=none;html=1;strokeWidth=10;entryX=0.333;entryY=0.833;entryDx=0;entryDy=0;entryPerimeter=0;edgeStyle=orthogonalEdgeStyle;strokeColor=#76608a;" edge="1" parent="m5X-id6JAVoZ-Rpwvo6L-1" target="m5X-id6JAVoZ-Rpwvo6L-19">
                    <mxGeometry width="50" height="50" relative="1" as="geometry">
                        <mxPoint x="443" y="759" as="sourcePoint"/>
                        <mxPoint x="452.99999999999955" y="767" as="targetPoint"/>
                        <Array as="points">
                            <mxPoint x="413" y="759"/>
                            <mxPoint x="413" y="589"/>
                        </Array>
                    </mxGeometry>
                </mxCell>
                <mxCell id="m5X-id6JAVoZ-Rpwvo6L-32" value="" style="endArrow=none;html=1;strokeWidth=10;entryX=0.5;entryY=1;entryDx=0;entryDy=0;edgeStyle=orthogonalEdgeStyle;strokeColor=#76608a;" edge="1" parent="m5X-id6JAVoZ-Rpwvo6L-1" target="m5X-id6JAVoZ-Rpwvo6L-19">
                    <mxGeometry width="50" height="50" relative="1" as="geometry">
                        <mxPoint x="703" y="759" as="sourcePoint"/>
                        <mxPoint x="542.9400000000005" y="598.94" as="targetPoint"/>
                        <Array as="points">
                            <mxPoint x="733" y="759"/>
                            <mxPoint x="733" y="619"/>
                        </Array>
                    </mxGeometry>
                </mxCell>
                <mxCell id="m5X-id6JAVoZ-Rpwvo6L-33" value="" style="shape=image;verticalLabelPosition=bottom;labelBackgroundColor=default;verticalAlign=top;aspect=fixed;imageAspect=0;image=data:image/png,iVBORw0KGgoAAAANSUhEUgAAAWEAAAFOCAYAAABXBaw0AAAWMHpUWHRSYXcgcHJvZmlsZSB0eXBlIGV4aWYAAHjajZppdiQ5cKT/4xRzBOzuOA7W93QDHX8+C7Ja3f2kGTGrkslkZATgMLcFwXD/8z9e+D98tdhrqM28j94jX3XUkScvPP58je85fd/Tz1s9/b5K/3w/1PvzMuV//uLP9zT/+X79vUha/z7R7y+y/+tE+edb0QV4nerPzzZ/T1R49+8n+mvIwy3W//qF35/vZ/85YdH/VibfE8+51Bx57bxOpYWfbzrTb1FM4//9sD6aC9UY6e/vf2MsejH/Oj78foCRlq8g/12dYv7n+38VvPzX+9+J/hT8r6/+nT19V01/e+//Ufzw7+r//4r/Tetvtczz51Xg7X/8YnjKfx/ce8ffu98BddYO1voviv5M/udEHLgYhybRmEr9HoXXP6/a9+iUdANT+328uHiMuFOKL2UeKfBCXyX1tJPxvaaZ2vee83vnp8PjfY+SLOdcc043V46/vHd/hhKqivpzXfuufLmyx8tBlZPVdP93j/C/PfC/e7wntDI9FijY+HqUcWUVmdlo2fXMYSxCOr9rlj9ApH8B5c+XBaYzvqJ6VPf8fry89Gep27eqhePyd6QK8U9869M9cG1jGFlVpsalU/HoqaqmTmuU3HJqPVv2DMekRY1fzKUUK5ODSvOy8knh/ZmCf4Mu/+Pg/4xCEMk/n8k9pd9ps/wabP3ThP/6kCpWKN6HisgoGR840Y8GLlj9d0QrO5YfGvn5QFJtYryFWURX6f2d6nlyyZpyvayRj3THbaNYOm+Bu1bz6rOm0KCYvJ6PzW93Blt+J0e0PfJIbz/wO84sa1hthfMBz7J6G+ON0cea52yumcPkDe8ve2/tjFHTGeWtanmW2/YsvHVqvZkLpjKs1P3O2DDYfbmfOc6YdN894c5eqDPTbixsXm3amsz/pfHmY3LFr+dV+Hi1eu+oXvNdpzCp5blHPu75nPCsdyuXprbd/LVWy9v3WjYrh3bxtf2MZCPX7Y2mq7PUAxI444grQTfg4tawLPM+ZVGZLnBaO/XVYKm0Yz6TStfX30l33/Ke735ZiZuZX1tZEDv5neJhTs/Z7u7LxuFFZ7W9n/asilMtWX8r7z5Gg2FXa6pWXnZeWV7ygXFuX+WG7laypesTaukwxxwFuOaOjOxTx+s9ncoZzrJu3Sdiem2iShS1Iah1ckQuYY1OCY0BzMlsWLC74mPkNpgg80iVAdR8aBk+ZQA73do5IKc+5h4zv253BpZ4+auvrjit9Ye6HY0fUgA712mtPXZ988K57hNg2KbQt72RF8N24DR3D2OdfWY/FsdsbSfws+nHDDoGhcuNA2sEfHHeW+aset61MKYNRu/+msBF/rmO2SlF6xPSXBx6QFIp22hxqEEwH5fCr/TTAJd1L/exsGtAoltd1IL0p9IcwIHueL0twNCp1NylXzAGvuNyRu91vXJni0+DfCwJk7foZTSzFlI5TgkLfUNHf9/4AKsFemB+hrrUmN8Q6yreqkpxcmFoy+yVufZa2YJWglUG0ydR9pNp5rWMAcy0dzultb4HYiAmZZC1bwOSEVjFVworXHwzk8CAfYIPUJAz45htDhAyT92z1+QN+kg00HTb/Hy9+s5W3qRb+p5g/6QuZPcj4LDyRtH6uXmzwg5TABjLm8pS8ESTi1QE/NS41FwApbI+92ix27EAn2QfzxY4KGv2TSX8MB5mDipZ+Vm8XrveM2iCqEejirvR1+OmYXdYmx0T8WgKKrEA6O0tm5qyTKdjeXbYp9iCdwbkgMAyNLj2sTATHLzYOwN62zxQ3jXA6d5wZ7TtfgUOtd3qpuoc+LaK7YFZSvTmXvc4+t6mdIoF2Qw0jP3UUNt3edS3TbpwuHfYJM25al8RMoVZDozs6jiAcPJ2W8CGgvpztxPDZfURB6iRVk4TBm9ngpb2osrUiyiO6tTqsMC4J7EyVgF9BxMNvBZGX1egQWkM+qhN9DAuWgUWF3aet5SRjGyjsgwDOdCgBZyHeel31jVh0WSFJQzYDz7RAH6y13btSBBNR4fDfq5i2GTVqlpkAArA/WbyYb0B9VuctxD6Gwwy3wsebK8xxFv6bpRxONoCL0FisRtVuKAAqoULUbbSACScA3DX3AeqGAFF6B3WNlp6M/5HCdbS0q1+8HxgIs2X2rkX6hbdM35A35CalXqhLw806kSIVs5DKXasNP68fuuq71bmpSHl0lk0xOq9uRcd0EDdB0iMHebM985uvgJc7oN2wnZsppGoKxQDq12m4/X4osvpI28r1ZnkSgrIb6xYAfXeE4yz1gtDVopC+b7rIsF0F+P2gk9Ar/rhsoCaCQBbpOciV9EuJ3x5bqN/ueCsWv7se0KviD2KWPZoC0drzI6Foo85/6PbafSj+qeNAaCsKpXYv8g1IUw5oKUv+Ur0PE2FQYNdoCp4l1a81vClYNohufKKZp5HmwhCqQ5dgv9teG9qRF4aTBykDErkaBunZUYVFqx2OScGilqjKJwgr4QkYySwP7PL4lD1nFiHUN4tSL/BHzT2Qd8j2oZ60Br5dPCM32feqwEURsN5aEw8VlYoYD7ICXVKAVk/fQu0kk1YIe4VqTdTS71VVKohbREw4xtH8musaroHt4T3yhf+h5l8YLSo4229n3UjcHx4+gEIedqiiUyrU5nqKMm9UHolpLH8dYwJKa4qQ0a3h4mq4aqYr+h0RiOy0NKYJexQRpuh2EUlsmPGGNGB5sp8A8eEcaayZ0GABz5iROdEAAFV6QTQboPpWD+c0CFu0Vq7G2Z17VcVN+HhgebPeOmWmgqB5+Xw0QFtUvnYvoqi9HO8iM4XEaGTi1CVwVAqEg4dMCkEia48mBraD9tN73wtApsjLZAQKrM7+p59mbS2bfwwLbKkG5KeAQM+FiEz5l4LDggmm4pegfwNx9PqW7WgMTBA+3K2hbhnmhzCWqXTehQAe7speoNqq0/EiLWQgDGIMFuOtDSqFilsVDKAM049CwO3SxxZ2ABT9DGLhI6iIYMjur3xclq1GAwzMRGLLqvIEN43YvIcdJxJIMHIyuO+OLY1zHU6E9PVgUqeEjhLS3Iswh1GsS/rgjvD9wCXwehWOYjbOMYcO14onnK0+suBIzXorrY1kSimyUrbKGUPsK69tOZ8G3t+7HAy0WMVWduGrE+VgxLKUJ2HsrCQeHVmjIV72BESc+2BysMy9BteDRsAJicjOFwLjcG3D4O04SasPuTiIAsDj/s8Kgl4eQSRh94HkgczZIKgAl9C68Bxeb+tDIF0PVZ3q01obeCJDaQxUCMK59iVg5Kj0Mkw7E/m4+bF4kMxKA0QgW83JIIvodNbBllt4L82ogcVmLLF3rb4OeFU6eEdRi94aqkjdACYMGbwaHvkIEiH9FBIDFdRTxmLODkfDAQJ0AGRia0j9jJoBHzJkq8Om6sWmXxGLwls2igY79U2aY3U+D+JGPgB/ZrAhInl0wUjbpXlP9oCGSAPEw2SWkxfEntYqrdP7xlTgtYBr4oOVLzww3BMmmcpBMKUQCqFcZBTw86Q1LQgtfP8YmWAtDNzqZ0jD5rqTJqFYRAirPrjkgkcB9YahRENCtcnMMS7xo8qUSUSBLYX+G8AU+Dy1fCPZPaOm0RYiUbQ45uVDnQzit0kLo/YgdwYdsAYtmR/YFWv0ATvXbX/wvW1QeOTBTL5BQYo2F96CnnJK2ACQOclE/jTesoRHHzLxUsoOSmFNIwhstpxpQtRrzXTNy7P1z+X93p+QdYCYGHvkJr94GIMIm+AYenlm+2PhaGDF806vqogOxSQsHzQeILcCyVjgPFmBIP6qdVAdqgyqsQzMttLpNkhVaEfFjp0n64NflQnrr8J8yVcONe1NYRuY2IKph65IJHgW1nuQQAHH9ZooAq7EBxgS7OeUWUYF66JeIlqIeVtpJQs74rywYym9IF3IVBgJzFzDZFGLvrEBTZUB8rC7/BSjDUf0r8LtmY8NBsYshRTMo5SPBZWzouABeFlxW4sMxwmHSbyT6I7RAWuwAcMirW6IW0SMIOh0NCXDXLiVsCAnWFTFOCKZhkWnbTA51zUsMIpKQI1TsmaE9JuYJprwKDE0NVHjhc9qlyM7kO6le+Qd5rqgHHWbSP6AHoM7dRIKTM6aXhqlBZRau1yCVw+XEhMRCZIjog/kQUf6YRCMHZoAjT1Ylo7rqErR8PY0MvOiShqcZJJ/EHS+OtcaENqRPvRU8cRIsUBVIX5Iqt0qTlakzExYzzs693fXgwRgq5/5IUDKPem8MzJCGpyhP3b/wES1KthHEgbEwpiAtjOyXLIXInHJ4bdsNbaKLh44Oa0Lc6HyEIUxnD1b30BBbmEyEf0BtVP24/DCPnaAmlwLS4zlEMjnsnCKNKdHOEtPCYlZg1sMPEDTqu2v1ifKiOvnS0EJGOADlTa5SZrWHKsKIvhpJBkOMvoFoe9WRkCeoUTtiIEPyIxtBV+Aq7AOR+4Gz6Q4W8tKIASwlh5DCzB68D3o0A99I3R/TTS5fTpEFbt3EJkQQRQTthmKQQU+BfSCOKwnYv3AicbouyHPiPnI/1oMOkE0VMyo7qPQqmxBxluErgBAPqDcYYGAyYANaLZaCiiBd8IhVpEZI1m4sqohHJbwp9ugN0wCOAHK0h/Gq4L64lU4kbqR6oLdaebrkhlfeJM9D00+cPXTMABKeL+OAnCoD1roq3oVzvjqKIFmoNW8CLGoq7IKaS4yLPt9kOPsMQVJ+Qy8n8NNuX179GFc+0zhRp4BdlmjA6Xn0kqE4xv0QGemKvBk6CbmoEB7ed1KBhRQiOZQTgic2ty/Y1mvcgRFoBcwMIB8PSaEYwkETDa4iRlYrqRaQrwprY/IXuchqyfX1AM7T3oaOEQKsHFdTNkHHgW+zfk9YuyF1Qjg0D/gWkWFh+syMHqBuLM7tpcuAq/WVmYrqKYeAoGhA/eWITm6CjXQQEpgDaPEex0q3wmagMnh8cPTXEht4dP4fr3aW9yIIJZREi0ATEDMOZaRYCU+05sDtxEDTacB2tZMAyzQqqjPMDiLb5EkXR6xQgbUII7EkoHptoblBAvtlRYZoE1wNjAso/ghz29RR1ouCPmkrSpivluhINNXXEgAzRhT1Aa4hCVYO3glHV1wYYenNiCG7pMtEaCEEaIyrH8+wowCsdNz5QFwsDF+8JQUP8r+3kRTgSVJHUnOCIswb/aPIMasM0NLC8uU+XCsxhIqfCykphWZtR2JxaYNn430k1lZVmgES5IYqnMWJs3akmUcMoJauOYF7ggJsckNuy0UBy6CM+B2hX4CrIofHR5gAkRtKzdpklcQ6bo8Puo4SN1HCCmRLdcZaTlWM0pa/xzKwGxRDJAmZegzTAEWnvdhTQmYcdc4DIMTifJVSGSIsBHqDyMg4BoE4Z5aI/JSfoNNwEf7dtcbEEnvsnwSCPE0ydvCrNmWscYh3F9wKhtWnEOkqp8OHXDqSkyomu2fzZh5u8mzPhxMNBlpGnKRcy1lc4UB1yy6CVkkPTZMFlUTm90uFc7o7e2A1GjNfiDfuGgmyfpC4uFHeOaHNgZCr6TSzCAqK2PvEXROHskjwSC9WNSj7WkjU3mlkW7jxEy/CZfaQOBJdwsEE3nZe0gIbfaTNRW3OCopW2f+jy//WnWIfoQ9/EIYz8NRreQlramsRRxJRKpNkMJG8IVnDPRjPHjCvBHfYIqhb+sqGL4EDLDOrAuhhVa5ppFJHl1S4nwNpBeyJBWjKg3vAzb0AiyNVcwXNoXI+vyD8/6SMhPOhOF1IErIe8SDA8Dm0d7cXSYtmML57hQqQXwC7CoI2fCQkxiOypNQx0tdDHk0YlwC8VVrmG9yFUR2uSSkKh8ILF5pQA5VwgB4iIyEmzBJo5bcL4wNTH54Qm1nwgoV4eALg4bMxknVEGjy7SmFHFsCXnQg66FiDCqDq613TzjITOYTCRiXEB+78CM1qc+xEhOsTEEJuOVboBmKRocJE7VmqsDGAGT0sqCzEaAf8TqAh/3yBpxTlYZAotNsYvk6RAbaS9pCwcu1F4LJILwvSKfMOCOmru2t4nMxH8C/lQIb7gnPBR2ijQLBJCEFKghY1mynISyzVJfdAazRcalAgoNWNMi/hbzygw8vCPti9nChxeb/RGeA8uxjjSKkdMJueO/48YdbPQemwHd1vpoFEwy0Z8lp0G043wWXv1uUDe1GR+OIPftMM9KjMIITZwYKjZp30UNbmdGjnA0e5t6akyov/aONqpMPU5t8YR8Etzt2k20hMDrAlBHJg6Ad9x8u0Xbg0/74MoqdscikRHHU/32HLCYiHHIZAgtPL1DD3Ica0vGaGhCgQkNvTUFHbIbnLAlCCBsqZEa1Scey84o+FFZbK9Kxpg3OrWxKYmeGEAbq0F58IXYA0f7iG6X0mtK2lu9un/bDxnohgeXwAOna2vdB5rg2tJBR7JMmb5F7WQOujvigcjujzZZrjo93SlmEbF92hhf3x0pHILrTpM25snIoBVTmhPhB36AQJe2ixYQZdyNSXTdIOzg+ttdSsEk/DGdbw8EXl26VztxPDhWPLAoEiKuMtzayKmoAj2Mya26DaEUxGpAWPjs8kn0jLfp5iz6O0eC3uhdVIfwAAXhTeCQwQzoHHwIR0VJSUGmfCZtfwfMpOH+/XboHR+Gnc54aO1zVN12zOPP1rHj3+pDfTkYsjlF9vK7K61oENpOUIriwJVjfvHPrdW97YKIDNZ12wytibqfrT8USHC5y3nKSVLp3mcir1XYvi5YGJTo1kDSveinjVzK+bRHXGLXvcT6UQR5IwL83eTIyBfahqB8oU+nzBUrdxP0PA5yBhsPCSKqTduqQQujhlzoUCIhelzJeN6BAU63fbEwPDknQmSMGCTSF5PGt6VtCbLEI8nemxagd6XjSaUMribkkbWutoOBPp0aZISNRmr0JZDHFRcuRxdrv4iR6vZevYgL+eAs6bjBwrrPIN3fEIvuPZNpXbdKtZ2OracZKmRmrCBIZwb4qP6ibgY9tTlsipGAbYC8c0UACo1CLddVox21nQaFkLrRmkHyp4E4T9fdIJwT68j6W9PfR1TehbHrvqZGQ+CGLo9h104OarVE/pxGu0lEO5LDnzuw37Z20r8YqeKGxrZ23TcYRcnoVWw+xcYwwSxLBnLI0pMMiX4dYtOfk1wiEMmsT4Xsc/WXAgkZY93XuFgsREC2HO4KdFxSYTPXyzhsLD6iomCMZcSEDrxzJH2yaCtCrpMEwgJM8IlY4nwurZFIR/iB2ux8d9nI31Q+EYm2np1FKmq8SrcCGxS3DnUXac9xG2R2UPXtB45IzOqiAeaD1/GJH8A6Ot5k4/GRd+1ZYFDLwrXvsmUecIv6EwCgQnb+NjmZcdiKJgxUrYrk6w/CYEAX3yUwg/Zj8BEeLACySCp5yhnwWVfM2BjdgnO3iImQrbax1rv3gyE2DO7b3+2HCVsSGaku7gn2ZH06dvg0KdFo+hOOzixI/AGq120FMh4SlY5u4Wjb3CUgjgGaAFt/GEBiwg1iLuhH5//C0BGYl3ZhyH4tDNwFjIQ1XrE2/bkBFgeCafsXPVjFX/4wjMkI/xdipoDCW+t2dAAAAARzQklUCAgICHwIZIgAACAASURBVHic7Z15fFTV3f8/3ztZIGCIkEASEjYhJJlJiIBCoGwqxl1Eoda6PRWl9lGrrfbxqdXa9vGnba3aauuKe9WC4r6gIqsEXCDLzISEnQxJIIRlgLAkc7+/P8Kwmcx67z33zpz369XXizp3zvnMhbxz5txzvgeQSCQSiTBIdABJ7LNo06JuGSkZaezj0xVSUol8qe0+9LQRerCidAejGzEnM3EiWEkAVAWKAqgqAEUFqe3E1MZEh0E4BKBVgdrKsO0DY58twbdX5YS9CXsSduXl5R0W/XklknCQEpZERUVjRd/kBCVX9XGOqir9iShbIWSqQCYBfRnclxh9QNTTgDgHADQz804QbYfK20HUyMwNiqJs86k+j0pqfUlWyQ4DskgkISElLAmKk51J1ETDQL5hDOUMAoaAeQiIBjF4EIG6ic4YBgcBbAHzZhBtZGCj6lM3qIq6PqEloc7hcBwRHVASX0gJS06ibmdd6mHfYYeNUehjFCpAARMNJ2Cw6Gx6wypvhkI1xLyWCG4fwX048bBrdO/Re0Vnk8QuUsJxTk1zzXC1vb0EhBEMKiZwEUADROcyD7yVQdUErgKj0qdyZXH/4rWiU0liBynhOKO6obpAsSmjmdXRBIxkYBSBuovOZSFambEGxN8T4TvVh++KsotqRIeSWBcp4RinorGib6JKpbApYwCMAeNsgx6SxQfM+0H4BsAqBq1Uoa4qzizeLjqWxDpICccgrkaXnYnHEzAejPEgnCE6U7zAjA1E+FoBvvYlYLkj3eEWnUlibqSEY4SahqpRPkWZBOaJBEwAUW/RmSS8ixnLQLTUZrMtKcgo+F50Ion5kBK2MNXbq0cQ0zkETAHzFDnNYGKY94NoEQOLuI2/KsotqhQdSWIOpIQthqvBNVBV1KkEOg/gcwmULjqTJGx2MtSFDPqyndu/PDPrzM2iA0nEISVsARYtWpTQL79PGROVMaOMiPJEZ5JoRi3AnxPzgoLMos+IyCc6kMRYpIRNTE1zzXCfz3cRmC8koqmi80j0hRlfgPCpzeb7pCBjRK3oPBJjkBI2Ia4m13nMfAmgXkKkyJUN8QZjAwMfEdFH9kz7l6LjSPRFStgk1DTXnNbW1na5oiiXEnApALmBIs5h5kMg+gDAB/u9+z8cmzfWKzqTRHukhAVTWV+Zk5hkm8bMVwB0jug8EnOiqvyVzUbvttl8741IH+ERnUeiHVLCgnDtcA1jn+9KQJlOhLNE55FYBf6Gmd9t96nzS3JK6kSnkUSPlLDBVG2ryldsygxiXAVCseg8EmvCjCoQ3k6wJczLz8iXBYUsjJSwQbh3uPNY9c0E00wQikTnkcQGzFxNhLmk2OYW9i2UI2MLIiWsM85tzgGk8NVMuJpAZ4rOI4lNmHkNAW+xSm85+ju2is4jCR0pYZ3YtHtT2sEj+69hla4BYbzoPJJ4gZYTqW+2H+I3iwcW7xadRhIcKWEdcDY5f0LATwFcLDqLJG75mIF/OzIdb4oOIgmMlLCGOBud5xDxdQBdCyBBdB5JfMPMPiK8xkyvObIcX4nOI+kcKWENqPBU5CUlJlzPjBsA5IjOI5GcgocYr7CNXrH3ta8THUZyMlLCUcDMCTXbnTcy6EZAzvtKzA0zVkDFy811zS9NmTKlXXQeSQdSwhFS1VA1SVGUnxFwvegsEkmYvEqq+mJhdvES0UEkUsJhs7phdUYSJd0EYBbJY4MkVoV5PYPmJPGROXnZI5tFx4lnpITDwNXguoiJbybCNNFZJBItYOb3iPl5e3bxJ6KzxCtSwiFQ1VTVLwHKLQzcAvngTRJ7eAh4rh3qc/KkaOOREg6Ce3v1+Qz6ORhXiM4ikegK4V2C8kxhv8LPRUeJJ6SEu6CisaJHIttuBdGtIAwRnUciMQJm3kiMp9vI93RJVskB0XniASnhTqhprhmt+tr/Gx1LzySSOIRfVlT+Z0F28Xeik8Q6UsKn4GpyXctQbyPQGNFZJBKRMHgVQXnKnml/XXSWWEZK+Chrt61Nb1Pa7lCIbgeQJjqPRGIKGHtU8JOJPRL/kZ+av1N0nFhEShiAq9E1BlDvANE1orNIJKaE+Y2ERPr78HTHN6KjxBpxL2FXo2smg+8kQqnoLBKJqSGUg+gJe1/7XNFRYom4lfBcnmuz7yi4i1W6iwjZovNIJFaAmRtIweOFfR2PE5FPdJ5YIC4lXO2pziUb/5pI+aXoLBKJJWE8ofr4saKconrRUaxO3Em4uqH6LALuJoVmis4ikVgZBs9NsOHR/Iyib0VnsTJxJWF3Y9XFKin3EDBJdBaJJBZg8BKF+a+FWcUfi85iVeJGws4G5w1QcA8BdtFZJJKYgtnNTH9xZDteER3FisSFhN1N1Xcy070g9BOdRSKJTbiJgD8XZhY9ITqJ1YhpCS/atKhb327p94LofwB0E51HIollGHyYGI8kZiY/nEd5h0XnsQoxK2G3x92Hbb7fguhXorNIJHEF82Pks/2/wpzCFtFRrEBMSnhdS3XukSO4D0SzRWeRSOIS5mdVHx6SS9iCE3MSdm53DiXm3wF0g+gsEkl8w6+gre0he+5IecJzAGJKws6dzkK0434CrhadRSKRAAy8BRV/cmQ73KKzmJWYkXBNU2WRCuUBgK4SnUUikRyHGe/YyPaHgsyCatFZzEhMSLh6e/UIUvF7IpJHEEkk5mS+DQl/yM/MrxIdxGwoogNES01TZZEUsERieqa3c9uDNU01RaKDmA1LS9i501moQnlAClgiMT9EdIWK9gecDc5C0VnMhGWnI5zbnUPB+JNVHsK1th5C847d2LXLC6+3Fa2th3DkSBtUVYWiKEhKSkRKSjekpqagd+9UZPQ9HSkpcn+JJCZ5C21HHpCrJjqwpITXtVTnHmnDn8y8DM3t3oS62q3YsLEBW7c0oaVlb9ht9OnTCwMGZuKMIdnIGz4AhYWDdUgqkYiAX1Hbcb9cR2xBCR/dCfeQ2TZiHD58BN98U4PV369FZeV6HDnSpnkfSUmJGDFiKEaOysfZZxcgOTlJ8z4kEsNgfpZ8tvvifWedpSR8tBbEQ2baily7dguWLK3A18sr4fOphvVrsykY/6MRmDSxBMPzBxrWr0SiJSrzY8mZyb+N51oTlpKwq7H6QRD9XnQOAPjuuxosWLAKNe7NoqOgoHAQysrGYPToAtFRJJLwYf6DPavoQdExRGEZCbubqu9k0MMQXA2tunoDPnh/GWpqNouM0SkFBYNw2eUTUFR0hugokhjD621FamqKLm0z+LAC3BuvZTAtIWFng/MGIvxZZD3gXbu8mDt3IZYvqxQVIWR+NGEEZs48F717p4qOIokBvN5WLFhQgZycPigtHa5TL9zEKt0bj4XhTS/ho0cS/VnkiRiLF6/G668twKFD1pm26tYtGddeV4bJk0eKjiKxMH4Be+o7np2NLc3TT8TMboLtN4VZhXF1VJKpJVzdUH0WKfRXUWfCtbW148U5H2HZsgpN2uuT3gv9+vbG6aefhtNOS0FychJsNgU+n4rDh49g375W7N69D9t37ELLzvCXtHXGhAkl+NlNlyAxMUGT9iTxw6kC9qOniBm8hFXcU5QdP4eHmlbC1Z7qXFLwqKhTkTdvbsRzz76HrVu3R9xGfv5AFNoHIy9vAIYMyQ5r80Vr6yFs3NiAurqtcLs2Ye3aLRHnGDCgH26ZPQ2DBmVF3IYkvuhKwH50FvFc+OgeR3/HVl06MBmmlPBcnmsrbMr/G5HySxH9r15di6eefDuitb55wwdgXGkRzjq7AL169dQs0969+/HtNzVYUV6Nutrw/20mJSXittuvwsiRes3pSWKFYAL2o+/UBJ4ozLT/moiMW/cpCFNK2LW9+m4w/VVE38uWVeLZZ94N+33jxxfjvKlnYdiwXB1Sncy6dfX48otv8fXX4Rekmv3zKzBhwggdUkligVAF7EdXERPfY+9X9Kg+jZsH00nY1eiayeDHiZBtdN+LF6/GC89/ENZ7xoyx47LLJ2DgwEydUnXNli1N+OD9ZVi1yhXW+2bdfJl8YCf5AeEK2I+OIm6AQnfZ+9rn6tG4WTCVhF2NrjFHBVxqdN8rvq7Gv/71TsjXZ2en4+qrp2LkKPFf71d/X4u33voCDQ07Q37PL35xJcaNl1UFJR1EKmA/eomYmcsTE+nO4emObzRv3CSYRsJrt61N9yltfwfRNUb3XV29AX9+5LWQr596/tm4/voLQWSa2wdmxquvfoovPg/93+r/3Hud3NghiVrAfnQbETO/YeuR+Mv81PzQRxkWwjT1hNuUtjtECLipaRf+9c/QRsBEhNmzp+GGGy4ylYCBjmw33HARZs+eFnK2f/3zHTQ1xXXtlLhHKwEDgNvl0SBRJxBd03ag7Q59GhePKUzianJdC/CTANKM7vtPf3wJtbXBl3/16dML/33bVcjL0//BW7TU1dXjn0+9HVL5zOHDB+L+B/7LgFTWxetthae+BXu9rfB6D8LrbQWALsV14vbe1F7dj/3/3Jw+SO2VgpycPvqHDgEtBZyamoKbZp2rQaouYOwB0e32TPvr+nUiBuESrmmuGe3ztT9FoDFG9/3v1xfg00/Lg17Xv38G7vrV1cjMNMcPTyg0NbXg8cfewrZtzUGvvfDCUvz02jIDUpkf71HR1tfvhMfToomgOiM1NQU5uX2Qm9MHhXbjf7FbSsBHYfAqVnF7rG3kECrhisaKHolkewqgG43ue/XqWjz2tzeDXpeVnY7f/OZaZGQYPkiPmubmPfjLX15HYwgP7H7165/E7Rpir7cVLle9rtINRmpqCgrtOcjNTdd9pGxFAR+HXz7oO/zfo/uPbjWwU10RKmFXQ/XdUIxfD8zM+M09T6GxMfA/wtTUHrjvvhvRPyfDoGTas83TjIceehle74GA12Vl9cFf/nqb6ea69cIvXrfLc2x6wSz4hWy352peuczaAj6KyvfYs2Nn/bCwnzj39urzWaWnQRhidN/z5n6F999fGvS6e++9Do4YWD3grN6AR0JY/XH55RMxY+Y5BiQSh1++K8vrREcJiUJ7Luz2XE1GxzEhYABgbCRFubWwX+HnYgJoixAJVzVV9bOR8jQYhp+S3NTUgrt//WTQ66677gKUXTDWgETGsOCzlXjttc+CXvfo32631Nx3qHi9rSgvr4PbZc0jzVJTU1Bamhfx/HHMCPgozHhXJfXW4sziyIu7mAQhS9QSoNwiQsAA8OGHy4NeM3asI6YEDABlF4zF2LGOoNeFcn+shF8+c15YaFkBAyd/Do8nPJHGmoABgAhXJEC5RXQOLTBcwq4G10UMCLl527Y1Y8niNQGvSUnphmuvi82VAtdeVxa0ktuSxWtCWlFhdjpGvrWWl++peL2tmDd3BRYsqAhpLjsWBeyHgVtcO1wXic4RLYZKeHXD6gwmvhlAjpH9+vnii+C7yWbMPAdpaacZkMZ40tJOC2nON5T7ZGb88rXKvG8kuF31mDe3HOXltV1eE8sCPkoO+9Sb125bmy46SDQYKuEkSrqJCNOM7NPPgQOH8NXC7wNeM2RINqZOPdugRGKYOvVsDBkSuDbSVwu/x4EDhwxKpB1ebyvmzVsR0/I9Ea+3FSvL6zDnhYU/GBXHgYABAEQ0rV1pnyU6RzQYJuGqhqpJAITdrOXLK6GqgUuTXnzJeE37rKnZjPnzF+Oh/3sZS5dWoLl5j6btR0qwz6mqKpYvN/9Zeifi8bR0zJcKWucrko4piuOj4ngRsB8CZrk7/GJJDDnzhpkTXNtdPyNA2Hqv8hXVAV8fPDgbY8ZEf4xdTc3mDvm+s/gH/x0A0jPSMHFiCaZPnxx1X5EyZowdHw3+Gps2NXR5TfmKapSVGb6JMSLKy2vjZvTbFf5Rsf+hXbwIGABAOEOF8rNFixZ9PWXKlHbRccLFEAnXbHfeSKDrjeirM7Zta8b69YGLi5xzzqio+6mp2YyH/u/lgNfsbN5zTNAiRXzOOaMwZ07XEl6/3oNt25rRv795N6poOeKLFbS6F5YR8FGIcH2/gvRlAF4QnSVcdJdwhacijwVsSz4pw5rAo6Ru3ZIwcVJJVH00N+8JKuATES3iiZNK8O9/L8ChQ0e6vKZiTZ1pJSxKwP4dbP7CPKmp3QEAvU7Y2XZqoR/v3oOm25UXCKsJ2I/K9F9uj3tpYU6hpb4W6S7hpMSE65mh7WRrmFRXbwj4+pgxdthstojbb27eg7vufCLs981/ZzHS0zumJ4zGZrNhzBg7lizpesledfUGzefJtcDrbcWcFxYa0peWNR3MUKMiGFYVMAAQYRxs6vUAfic6SzjoKmFno/McZtygZx/B8PlUuN2bAl4zanR+VH3Mn784qveKkDDQ8bkDSdjt3gSfT4XNZpqy0/B4WjBv7gpd+9CrdkPHrreOIkn+8pj1nhbTrGO2soD9qOAbnI3OrxxZjq9EZwkVXSVMxNcBJGRNsJ/16+uhqtzl6zabghEjhkbcfnPzHixbWhHx+3c278HSpRVCRDxixFDYbAp8vs5XjagqY/36egwfPtDgZJ2jp4Cj3RYcSX+F9hQU2nNRWpoHr/fg0YJCYoQcCwIGACLKAfg6AJaRsG5DHGeT8ycAXatX+6GyaVNjwNfz8wdGNRURzShYyzYiwWazIT8/sGCD3T+j0EvAqakpGFuah5tmnSukrq8/Q05OH5SVleCmWeciJ9fY2h2xImA/zLiuwz/WQBcJb9q9KY2An8Kg1ReBqK8PXN9j6NDIB+qhjILTM9Iw/crJAa/xj4ZFEOzzB7t/RqCHgE+Ur25HtkdAamoKZswYh7KyEkNkHGsCBgAishHw0zWb1liiCLgukjx4ZP81AF2sR9vh0tgQ+AHIwIFZEbcdygh29uxpSE9Pw9KlFdgZYLOGqLnhYJ8/2P3TG60F7J/vNZN4O6PQnotCey7crnqUl9fpsroiFgV8AhcnpyRcA+BfooMEQ/ORsHObcwCrxh/Y2RXNzbsDvp7dP/Jt5/4NGF1RUDAIBQWDkJGRFnQp2s7mPUHb04Ngnz/Y/dMTrQWck9vHdCPfYBTaczFjZinGluZp2m6MCxgAwCpd49zmHCA6RzA0lzApfDVI7JI0P8yM3bv3BbwmI+P0iNquqdkccGQL4KRpiIKCQUgPckSSCAkH+/y7d+8Dc9cPNvVCawGPLc3DjBnjNGvPSPyrKsrKtPumlNqru2ZtmRbCeFL4atExgqGphN073HlMMM2H3r//YMDXU1K6ITk5MaK2Q5nDLSgYdOzPGRnB1wOLmBdOTk4MWt4y2H3UGq0FPGPmOEuNfrui0J6Lm2adq8myOU99S8AKbLECA1dXeCq0/RqhMZpKmFXfTAKdqWWb0XDw4OGAr/foEVg+gQg2ap3QiXBPlHJniJqSCHYfgt1HLdFSwKmpKZgxc5xpjpjXgo7PVKrJQzu3yxN2gXirQURnJibYZorOEQjNJFy1rSofTKb6sG1tgWt5JCZFNgoGOh64Tb9ycpdi7WzUG+2UxEP/9zKeffY9zUUd7D4Eu49aoaWA/fO/sSRgP6mpKSgrK4l6ntjrbcWCz8SsyjESBn68tnltdDuydESz1RGKTZkBoEir9owgmoOF/Q/dML1jqZq/epp/NNuVnAsKBmFZc9f/8Gvcm4HpXbxWsxmoAZYtrUB6Rhoy0tNQUDjoeJYIMcMBy1oL2Krzv6Fy4u67aCrI+WtwaDnfbDYI5Gj3tc8A8CfRWTpDEwm7driGwcdXiTu7uXOCbbdtb/Np0k9GRhoyMkpCWmI2cWJJwLXFzTs7f9h36nzxzuY9J01fpGek4Ykn7gw99AkEuw96b1uWAo4cLUTsqW+Bx9MSk98ajsG4ylXvesuea18nOsqpaPLTxT7flSAUa9GWliQnJwV83ci5Tj/p6YGnI7qaFw62KSSakXCw+xDsPkaDFHD02O25Uc0R+8/ji2WIUMwJvitF5+iMqCVcWV+ZAyhdfIEWS48egZfheL0HDEpynIyMtKDCPHXU2xzCA7toNnoEuw/B7mOkSAFrg3+OOJpVE/7RcCxDpEyv3FkptJZNZ0Qt4cQk2zQinKVFGK1JSkoI+uR/Zxdf//WkoHBQwNdPFW4oO/MiHQkH+/w9enRDUpL2GyulgLXFv2oiGuLgId1Ztja6QnSIU4lKwjXNNacxs+k+1In0CfL1v7HR+N/+oSxV84+GQ6lP0dlyuFAJ9vmD3b9IkALWB/+IOFK83taYHw0z0zTndmdP0TlOJCoJt7W1XQ5Q8DPUBZKZ2Tvg6/VbjS9QE8pqhvnzF6O5eQ+ee/a9oO1FMxUR7PMHu3/hIgWsL4X23KiWrsX6aFhR6BwwLhed40SikrCiKJdqFUQvcvr3Dfj6ho3bDEpyMsFGrzuPntYRan2KSAn2+YPdv3CQAjaGaB7UxcNoWAEuE53hRCKWsKvJdR4BppfwwEGZAV+vq91qUJKTCWXjRigEK5MZjGCfP9j9CxUpYOM4cQ1xJMT6SgmV+bKqbVVTRefwE7GEmfkSAKavAnLGGYEfhu7evQ8bN3Z96rBehFJZLRjRjoI3bmwIWuAo2P0LBSlg48nJ6RPxaDjWV0oQUTdFUUxRaheIUMI1zTXDAfUSrcPoQVpaT+Tm9gt4zZrVYn7zRzsajnYUHOxz5+b2Q1padM8wpIDFEc1ouL5+p4ZJzAeBL65prjRFVaeIJOzz+S4iUs7QOoxeOIqGBHz9m2/cBiU5mYyMNNx3340RvfeW2dOiGgUDwT93sPsWDClgsUQzGna7PBqnMRlEQ31ttotExwAikPCiRYsSwHyhHmH0omTEsICvb9vWDKdzo0FpTiYjIw2Ph7ndePqVk6M+hcPp3Iht25oDXhPsvgVCCtgcRDoajocHdCBcuIgXCT+CLWwJ98vvU0ZEppnUDgW7YwhOP/20gNcsXvS9QWl+SEZGGu773Y0hTU1Mv3Jy1HPJQPDPe/rpp8HuiGwkLAVsHqIZDbsEnfxsFESY2q+pT5noHGH/FmAi4aEjYWypA59+Ut7l6ytXunD55ROROyDw/LFeFBQMwhNP3NmxOWNZBWrcHVXZ0o8Wg09PD14UPlTqt27HypWugNeMLXVE1LYUsPkoLR2OefXh/5146mN8JIxjPvtYZIawJOxqcA1kVsvMUPowXMaPLw4oYQD4+OMV+PmtYjcAHls1cbREZoYGy9hO5eOPg/9Ajh8fWT0mrRb7SwFrR2pqZIuYvN5WeL2tmpzkYV7ofFfD9wPt2aO2iEoQ1nSEqqhTicjUR4V0xaBBWSgqDvwscfnySqwVcLJFV+gh4LU1m7F8eWXAa4qKz8CgQeGfQj1v3gpNTgWWAtaW1NSUKDZvGHu0lQCGq0qS0OnVsCRMoPP0CmIE550XvM7QvHmLDEgijlA+Xyj3qTO0+PoqBawPkT6gi/WNG4B4r4Us4ert1SMAtvQZ2aNG5SMvLzfgNbW1W/Dhh8sNSmQsH364HLW1gb915eXlYtSo8E+CkSNgcxPxlMTemB8Jg4Bza7dXjxDVf8gSJqZzCJSuZxgjuOTSHwW95j9vfYm6OjHbmfWirm4r/vPWl0GvC+X+dIYWX1tj+Ygd0UQ6JaHFL1cLkN7G4gqRhS5hYIqeQYxi5MjhIY305rzwoZCTN/Tg4MHDmPPCh0GvGzUqHyNHRva1NdKR1onMm1seLz/0Qoj0+KKYXy/cgTC/hSThmoaqUWCOCQkDwJVXBf8o27Y14+l/zTcgjf48/a/5QTdmAKHdl65ITU2J+im619sqRawjdnvgqbiu8O6N/b8PYp5S1VA1SkTfIUnYpyiTQGSqQsjRMGBAP1wVgnBWr67F88+/b0Ai/Xj++fexOoTaGFddNQUDolwjXRrlEeyAFLGeRPpLcm88/F0Q9VQUZZKIrkObjmCeqHMOw5l2xSTkh1B7YcniNXjpxY/0D6QDL734EZYsXhP0uvyCQZh2RfT//gqjPHDSjxSxfkQi4jiZjhDmuaASdjW67ESYYEQYo7nxxouQmBh8v8rChd/hmaffNSCRdjzz9LtYuPC7oNclJibgxhu1q2MS7YGTfqSI9SG1l+mrzwqDCBNcjS670f0GlTATjwdI2zNuTEJOTl/cfHNoJ50sX16Jhx9+NWj9XdHs3r0PDz/8atANGX5uvvly5ORod3qG/8BJKeLYIR6WqXVAvRXi8Ub3GlTCBBgeykjGjS8K+YGUy7kRD9z/XEhzrCJYvboWD9z/HFwhVoS78qopGDe+SPMcUsTmJba3IEePKsB3ASVc0VjRFxzbEgaAK66YhPOmhrZLbPfufXjsb2/i9dcXwOdTdU4WGj6fitdfX4DH/vZmyCP186aehSs0mAfuCilicxLJUsJ4uu/MGF/RWKHdV8MQCCjhRJVKQbBM8fZouPHGi8M6Ov6zT8tx96+fxLJloX3t14tlyypx96+fxGefBi5OdCITJpbgxhv1P91Fith89JIj4YAQ4YwEShhrZJ+BpyNsyhiDcpiC2bOnYdKkM0O+vrl5N5595l384cE5WLUqcGlIrVm1yoU/PDgHzz7zLpqbd4f8vkmTzsTs2dN0THYyUsTmIrWXlHAwCGyohIMtDYgrCQPAzbdcju4pyfjs05Uhv2fdunqsW1ePd3OWYOKkEowfX4xevbRfVr137358/XUVli6pgMezI+z3X3DhWFx77QWa5wqGX8RaCNQvYq3EHm/Ew8YLDTDUe11WBq5uqC5QCN/E0iaNcPjk4xV4443PI35/cfFQjCgZBodjCPr3z4i4Hf/RS5UV61BVtT7idq655nxcdLHY4jhajmS1HGHHE25XPRYsCL/m812/ulSHNKblgKryWUXZRTVGdNblSFixKaPBHJcCBoCLLh6HrOx0zHnhA+zZsz/s91dVrT8mzV69emLQoCz0z8lAv7690bv3aeh5Wgq6dUuCTVHgU1UcOnQE+/e1Yteufdi+Yxe2eZqxeXMj9u4Nv+8TfWqZvAAAIABJREFUSUvriZtmXYYzzxRfBlqOiMUTF7vfoqcHgLMAGCLhLkfCzqbqvxPoDiNCmJk9e/bj1Vc+EXYiczScfXYhrr/hoqiPrdcaOSIWx4IFFXBHcHZcnI2EweB/ODKLfmlEX10+mCNgpBEBzE5aWk/c8cuZmDXrMvTsaY0f9J49UzBr1mW445czTSdgQD6ssxrx+AvOSP91KuGa5prhDAipKGRWJk8Zib89djvKysz9rLKsbAz+9tjtmDzF3L9DpYjFEMnpJ/G51ZlGVnoqI6vrGiadSlhtby8hUDze+YD06NEd111/IR758y80O/lYKyZOLMEjf/4Frrv+QvToYY2/OiliaxCPI2EAKQk2xZAf8s6nIwjCjvqwAjk5fXHL7Gn466O348KLSpGS0k1IjpSUbrjwolL89dHbccvsaZrWgDAKKWJjieTeaFGw35IY5MFOH8w5m5wfEaD/lqoYQWVG+YpqrFrlwurv9a8rMXLUcIwZY0fpuCIo1OWzVUshH9bpT6TL08rKSlAYYUF4K8PAx45MxyV69/ODn+C6nXWpbe2HqwEaoHfnscihQ0dQVbUebtcm1NZtRf3W7VG3mTugH4bnDUChfTCKi4eiW7ckDZKaDylifYl0ZcRNs86N1/tYfzDpUNHo3qP36tnJDyRcvb16nML0tZ6dxhMHDx5G/dbtaGjYie07dmHXLi+8ew+gtfUQjhxpg6oyFIWQlJSIlJRuSO3VA717p6Jf397Izk5H7oB+6N49WfTHMAwpYv2Y88LCiO5rvC1POxGFbOML+hWs0LOPH2zWsDEKWc8e44zu3ZORN3wA8obLLxahIDd06Eck91OLk1KsDHN7IQBdJfyDB3M+RqGeHUokwZAP67QnkmkIIG5XRhzDCB/+QMIKUKB3pxJJMKSItaU+wnPicnPieyRMRPl693GShJ3sTGIiQxYoSyTBkCLWjkhHwvE+HQFwvtPp1PVJ+EkSpiYaRsBgPTuUSMJBijh6IhVwoT037qcjCDSY+rQN07OPk6cjyKdrZxJJJEgRR4fLHel8cJxu0jgFn2ozTsIMJS6OMpJYDyniyHC76iOqFwEA9jjcoNEZik1fL548HQEM0bMziSQapIjDJ9JRcE5un7ifivCjtxdPno5glhKWmBop4tCJahRcKEfBx9HXi6fMCdMgPTuTSLRAijg0ysvrIn6vXBVxIjRIz9aPSbiisaIvg3XtTCLRCiniwLhd9RF/Hrkq4mSYeXBFY4VuJQqPSTg5QcklkJiajJKI8XpbO752RrgY38pIEXdNNKNg+UDuZIgoWWFFt7oDx2pHqD7O0asTibZ4va1wueqx8pQftNTUFBTac1Baas79Nm5XveYlEWWtiR8yb96KiO9FTm4f5MT5LrnOsCm2/gC+06PtYyNhVVX669GBRFs8nhbMeWHhDwQMdEhkZXldxNWy9GTBgopj/9MaOSI+Tnl5bcQP4wCY9he4aEhVdfPjMQkTUbZenUi0weNpwby5wQs6mU0kJ9axjbSweDCkiDv+fXT2yzlU5Ci4a1Qd/XhMwgohU69OJNETqoD9mEUknRUSlyLWno680VVclKPgAOjox+PTEZASNivhCtiPaJEEOslBilhbor2XhfZcOQoOjP4SJsB6p0TGAZEK2I8okYRylI4UsTbMm7ciqnlgACgtzdMoTcyi/xI1BksJm4xoBezHaJGEc5aZFHF0LFhQEbWAy8pKLL0axAgIyNCrbQUAFm1a1I0Y8ruIidBKwH6MEkkkh0lKEUdGpAd3nkhObp+4PEk5bJjT6+rqdDnsUQGAjJSMNBD11KMDSfhoLWA/eoskGilIEYeHFgIG5MO4kCHqeaTXkdP1aFoBAPaxLo1LwkcvAfvRSyRaSEGKODS0EvCMmePkw7gwSFDUND3aVQBAISVVj8Yl4aG3gP1oLRKtpADod6ZZrIhYq3stV0OEj69d7aVHuwoAEPmkhAVjlID9aCUSLQVcVlai6/yk1UWs1b3Oye2DsrISDRLFGZR4mh7NKgDQ7oOcDxaI0QL2E61IrCRgP1YVsVb3OjU1RQo4cnTxpAIANkIPPRqXBEeUgP1EKhIrCtiP1USs6b2+QC5HixQG6+LJjgdziiJP9BOAaAH7CVckVhawH6uIWMt7LR/ERY0uv706NmswZB1hgzGLgP2EKpJYELAfs4tYCthk6OTJjgdzzLosQpZ0jpYCzsntg5tmnWuISGJJwH7MKmIpYBNCSNKj2Y7pCOJEPRqX/BCtBTxjxjhDRBKLAvZjNhFLAZsUVvWTMFhJCHKdRAP0ELAfPUUSywL2YxYRSwGbGIYunjxawEdVAl8miRY9BexHD5HEg4D9iBaxFLDp0cWTHY0q0sF6YoSA/WgtkngRsB9RIpYCtgA6ebKjVVXVpXGJsQL2o6VItMAqAvZjtIilgC2CTp48qnZFWlgHRAjYj1lEbDUB+zFKxFLAVkIfT3ZImNR2PRqPZ0QK2I9oERslYI+nxZLV16SALYZOnjy6Tpja9Gg8XjGDgP2IErGRAp43d4XlymBKAVsPvTx5dJ0wHdaj8XjETAL2Y7SIjRawH6uIeM4LC6WALQgT6+LJo9MROKRH4/GGGQXsxygRixKwHyuIWCukgA2GFF086V9zIf68FovT8VXTnAL2o7dIRAvYTzyIWApYCLp4suNkDahSwlHgn+PTAr0E7EcvkZhFwH5iWcRSwGJQffp4smNOGLZ9ejQeL2hx7Digv4D9aC2S1NQU5OTqL4Vwp3tiUcRSwOKw2fTxpL+UpZRwhJSX11pKwH5Eb9ENl0jn22NJxFLAgtHJkx0nayT49urReKzj8bRgZXld1O0YLWA/VhFxtA88Y0HEUsDi8an6eFIBAJUTpITDRKsHcaIE7MfsItZqxYnbVa/ZsrATMULEUsDmQElQ9ujSLgAk7EnYBeCAHh3EKlqMrEQL2I9ZRazlkr9Ce65uDw71FLEUsElg3o++2KVH0woA5OXlHQbQrEcHsYjbVR/1PLBZBOzHbCLWWsB6nzCsh4ilgM0DE3Y6yHFEj7aP1WZj5p16dBCLRDsKNpuA/ZhFxFYTsB8t758UsLkgkG6D1OMFMom269VJLBGtgFNTU0wpYD+iRWxVAfvR4v5JAZsPVnmHXm0fl7DKUsJB8Hhaon64U3aBsVKIBFEitrqA/URz/6SAzYmiUJNubR/7E1GjXp3ECuXltVG930o/YEaLOFYE7CeS+2elfx/xhsrQX8LM3KBXJ7GAx9MS1cO4saV5lvsBM0rEsSZgP/77F2w3Ycd1UsBmRk8/HpOwoijb9OokFohmFJyT2welpcM1TGMceos4VgXsx/8MYGxpXqev5+T2wU2zzpUCNjl6+pH8f6hqqBplU5Tv9OrIykQrirt+damGacSg5fpfv9i93oMxLeDO8Hpb4alvQWqvFCleC6HYbKMLMgq+16PtBP8fVFLrbVAOAuiuR0dWxhXFw7iuRkBWwy9OLUSs9c46qwgY6LiPhXbxpTAlocPgQ22+No9e7R+bjijJKtkBYIteHVmZaFZEWHUaojO0nprQAisJWGJRGFuKM4t1Wz2mnPT/mDfr1ZFViUbAsSgHM9TT9SMFLDECAjbp2f7JEibaqGdnVsTljkzCHV87rXfUeyiYQcRSwBKjYLBxEmZASvgUIl2WVhojc8FdIVLEUsASQyFlg57NnyRh1afq2pnViHQqIpZHwSciQsRSwBKjIdB6Pds/WcKKqmtnViPSqYhYHwWfiJEilgKWCIFhnIQTWhLqWJUP5/xEOhVhxHlrZsIIEUsBS0TAwKaDmQejPz4nACdJ2OFwHIFCNXp2aBUinYootOeaYuWA0egpYilgiTh47Wga3aZnD8qp/4GY1+rZoVWo90Q2Cs6N411QeohYClgiEmbo7sMfSpjg1rtTKyCnIiJDaxF76lt0PcVZIgkEqfrPDCSc+h98BLfCencbu8TjVMSp6LHFWfS6ZBG0tOyFp34HGhtb0Ny8G7t378O+fa04ePAw2trbAQZsNhu6dUtEj57dkdbrNPRJ74XMfr3RPycDubn9RH8Ey8MJ7NK7jx9I+HDiYVf3I8lbARqgd+dmJhJ5xMOytFCRIg6fpqZdcDo3oMa9GXXr6rF7lzeq9hITEzBsWC7y8wfC7hiM4cMHapQ0XuCtKYkpukuYOvuPzibnRwRcrHfnZsXtqo/oGKOyshIp4lPQo/paLIm4uXkPVpY78c03bmzapG9J77S0nhg9ugBjx9qRXzBI175ihI/tmY5L9O7kByNhACBwFUBxK+G9EQoj3ueDO0OOiDunsnI9Fi36Ht99a9xipD179uPLL7/Fl19+i4EDMzF5ykice+5oKMoPHg1JAABcZUQvnd99RqURnZsVr/dgRO+zuhj0QvThoWbi229r8Mc/vIi//uV1QwV8Klu2NOGVlz/Bbf/9N3zwwTL4fKqwLGZFNciDnUrYp3IlAGv+KxeEFHBg4l3EtbVb8cjDr+HvT/wHdXVbRcc5htd7AHP/sxB3/vJxfLVQnungh8GtCQlqdEerh0inc8IA4Gx0LifCeCNCmI1581aEvUQtJ7ePqY+yNwvxNkfc1taOt978AgsWrBIdJSQKCgbh6p9MxRln9BcdRTC83J5ZNMGInrqeDCLW5SgPK+DdG/50hJlFYCbiaURcWbkO9/7PvywjYACoqdmM3z/wPN5/b6noKEJhYLVRfXX6YA4AiPAd5HphiQ7Ew8O6+fMXY/47i6NuJzs7HQMGZiI7Ox0ZGacjLa0nevTojqSkBBAR2tt9ONh6CHu9B9DSshdNjS2or9+BjRsb4PP5Iu533ryvsG69B7NmXYq0tNOi/hxWg8i48za7nI6obqguUAjfgKinUWHMwuOPfRj2e8aW5sXUUUZGEItTE+3tPjz99HysWhnZ8tKePbtj5KjhKC4eisLCwUhN7RFRO8yMtWu3oLp6A9asqUP91shO50lP74Wf3zod+flxtMaYeT8zjXFkOwzZPdylhAHA1VS9EKBzjAhiJiKRsFwjHBmxJOKWlr148h/zsH59+GdCnnlmHiZMLMHZZxfqkAzYuHEbli+rwpIlq3H4cPj1aG67/SqMHevQIZkZ4a/smUXnGtVbl9MRR1kFIO4kLDGOWJmaaGzcicf+9hYaG3eG9b4JE0twwQVjMXBgpk7JOhgypD+GDOmPmT8+F58vWIVPPinH/v2h3++nnnwbhw4dweTJI3VMaRoMncQPuEqbQSuNCmJ1It3gIbH+w7qmphY8+tc3whLwmWfm4Y9/uhmzZ0/TXcAn0q1bEi67fAL+/o+7cOmlPwrrvS88/wEWLzbseZUwjPZeQAmrUFcxI+6OPBI9rxiPWFXEe/cewBOP/wfbt+8K6fqePbvjltnT8Ou7r8GQIeKWgSUnJ+LHV5+H/3toNuz2wSG/74XnP8DKlU4dkwmGeX07t5tHwsWZxduJ8LVRYayMJ8L6w5LjWFHE/3zqbXg8O0K69syRw/H/Hr4VEyeapz7yoEFZ+N/f3oArr5wc8nueevJtrF27Rb9QIiFaUZJVEtpfqEYE3TSuIP4knNqru+gIcYuVRPzC8x/A7Q7tNPTLLpuAX//6J+jdO1WXLNFyxfTJuOtXV6N79+SQrn/m6fnYs2efzqmMh1V1hdF9BpWwLwHLAQ7tu1YcE8kGD0nnWEHECxasCnl+9Mb/uhgzf2zYw/aIGTUqH7+7/7+QmRm8ENXOnXvxwgvhryIyNYzdRLblRncbVMKOdIebGcuMCGMW5JywePQQsVZs3NiA1179NKRrf37rdJx33lma9a03Awdm4n/uvQ65uX2DXluxpi6mdtYxeKk9y657/eBTCa2GHVHs3OkQSE0NfzrCrFtnrYzWIi4vr9UgFfD665+FdN3s2dPwox8Va9KnkWRkpOFXv74mpBHxvHlfYcOGbQakMgAW47mQJGyz2ZaAeb/eYcxCbm56RO+TD+e0R0sRu13hb6I4lY8++hp1tcGroP302jJMMNEDuHDJyEjD7XfMCGmO+K03vzAgkb4w8z4b1CUi+g5JwgUZBd+DaJHeYcxCJCNhAKivD2+hviQ0tBKx19sa1S/KXbu8eHveV0Gvm3r+2bjwwtKI+zELAwdm4ue3XhH0upqazZYvg0lEiwuyi4UULQu5pD4DcSThyH7YtRhpSTrHL2KRvPfeUrS3By6Kk5eXixtuuMigRPozalR+SMvX3n13iaULw4v0W+gSbuOvAMTNUC+So4qiHWlJAlNeXhd1G5F+y/F4doQ02rs+hgTs54rpk4Nu6Ni9ex8+/tiaq1kZ3MLEwb/i6ETIEi7KLapkqAv1DGMmcnIiOy9OTknow4IFFXC76qNuJ9JvOZ99FnwT1YwZ52DQoKyI2jc7P7nm/KDXfPbpSqiqFUfD9GVRvyJhR7qFdcIfg77UK4jZkA/nzINWAo60yt2uXV4sXhR4TXBObl9cPm1iRO1bgUGDsoLWmvB6D2ChBeeGGSzUa8GqqJ1EO7d/mUSJtQBivnBupF9b5aYNbdFKwEBHudFIWBLCpoxpl2sj4ObmPZq0cyoZGWlRtzHtiklYtGh1wOprixetxtSpZ0fdl1Ewo1ZhRejyjrAkfGbWmZtdTdWfAxQHEk5BTm6fsM+a888LRzqdITmOlgKeMTPy8/+WLQv8TXXo0ByMLY2+1m5z8x7cdecTUbfTGdOvnIzp0ydH1UZyciIuuqgUc+d2PSu5ZUsT1tZsRn7BoKj6Mgoi/tye5RBaCCOs6QgAIOYFegQxI5GKVKtNAfGM1gKO9O/S5dyIHTt2B7xm6vnWGflFy/llY5CcnBjwmpURnioiAmKbcJ+FLeGCzKLPmGH91dkhYI9wDtFT3yLnhqPALAIGgO++Xxvw9T59emH8eOvtiouUbt2SMGlS4MLu331XY1CaKGF8sX3tdutJmIh8IIS2cd7i+KckImHBZxUap4kPzCRgoKM+QiDGjS+Kqn0r8qMJgX/p7NmzH7W15i91yYRPp0yZ0i46R9gSBgCbzfcJ4qTYu70wstGw19uqmUziBbMJuL5+R9AHZWPG2KPqw4oMGdIfuQP6BbzG5QytxKcomNUNvnbfJ6JzABFKuCBjRC0DH2kdxoxEOhIGtNlcEC+YTcAAgo7msrLSY3ZdcDDOPDMv4OvmL/qufDQiZ4QpHt5EJGEAIKKPmPmQlmHMSGpqSsTrS+VoODTMKGAAQU9NdjiGaNKPFSkqOiPg6+vWmfrf/SEiMs0gMmIJ2zPtX4LoAy3DmJXS0sC/9QMhR8OBMauAAWDz5saArw/PH6BZX6GSnpHW6f+MJj9/IGw2W5evt7W1o75+u4GJQoeBD+yZdtNsPAtrnXAnfABgphZBzEyka4aBjtHwggUVEW8UiGXMLGBVZXjqAx81dsYZOZr1FwrpGWl44ok7O31t/vzFmP/OYsOyEBGGDMkOOOLd5mlGbm7guWNBmGrwGPFIGAD2e/d/qKriCl8YSWlp5PtT3K56uXb4FMwsYABBT0/u0aO7JrvQrEyw0zeaQjyB2kiYeaHNZosdCY/NG+u12ehdrcKYmZycPlE9pHO7PHLt8FHMLmAAaGnZG/D1zMzemvdpNTKzAt/3lp2B76EIFIXeK8goMNUJpVFJGADabL73AP5GizBmJ5opBa+3FQs+q4j7Y5CsIGAA2Ls38EEyffr00qVfKxHsHuzZayrXgRnfJtiS3hOd41SilvCI9BEeZo6L0XA0KyUA7Q+ctBpWETAA7N8fuBBTamoP3fq2Cr2C3IMDQe6h8ajz89LzTHfyQtQSBoB2nzqfGVVatGV2olkpARx/UBdvWEnAAHD48JGAr3dPCX72WqzTPaVbwNcPHWozKElIVJLN9o7oEJ2hiYRLckrqQHhbi7bMTmpqStQrHeLtQZ3VBAwAvvbAxckTErpenhUvBLsHPl/go6CMhIF37H3t60Tn6AxNJAwACbaEecxcrVV7ZiYnN7qHdACwsrwu5kfEXm8r5s1bYTkBAwAo8MvMxsQwMxzsJgS5h4bBqGaVTTtI1EzC+Rn5a4kwV6v2zIwWo2GgY0Q854WFMfmwzj//Hcna6s4wVMAAEhMDL6E/csRUX7WFcORI4No3iQnRbkPQCOK5RdlFpi3tppmEAYAU21xmXqNlm2ZFKxH7ZRVL25s9nhZNf7kYLWAA6N4t8Jxv64GY37EflAMHAj94695d/Lw5M68hxWbqwaGmEi7sW1hHwFtatmlmCu25Ua2W8OP1tqK8vC4m5onLy2sxb+4KzdoTIWAAOO20wAeC7tljruVXItizJ/AyvmD30AgIeKuwb6Gpawdo/n2BVXqLbHQpwIFPBYwBvN5WzUZ7Xm8rVh6tMxHN7jxR+Fd9aDX9AIgTMACknX5awNf1OgvOSjQ3Bz5x5PQg91B3GF9zMpl+UKi5hB39HVvd26vfZKaYlrAe0gE6Hti5XR4U2nMsI+Py8tpjv0C0QqSAgeAHYzY2toBhnmdPImho2Bnw9YyM0w1K0jmk8Bv23kVbhYYIAV1mztsP8Zu2ZLoIwMV6tC8avQR8Yvt+GZeW5mky5aEHesgXEC9goGMUl5KSjNbWw52+rqoqtmxujLqe8Ikj6p079RtdNzfvOakvLepebN3SFPD1rCDbmvWEgY9Tknq+ISxAGOgi4eKBxbudTc5/g/kCIoqpBZV6C7izvsrL61B2QYlwMfnxeFp024JtBgH7yc3th9rargdS69bVRy3hZcsqDKl+tmxpBZYt7VgSGagaW6h4vQeCjoRzghT40QtmVkH078GnD7bEnJGmD+ZOxJHpeJMIr+nVvgiMFPCp/c6buwJzXlgorAiQv0D9nBcWYt7cFTEvYAAYPCQ74Os1NWY/PUI/3O7Axxed3jtVWH0NIrzqyHS8KaTzCNB1IR8zvUaE8wAYW3hVB0QJ+NQM8+auOFbfOPdoZbfUVH2eQnu9rXC56uHxtOj+uc0mYAAYNiwXn326ssvXq6vWG5jGXFQF+ex5w4RNoXmYyVKDP10l7MhyfOVudL7ChPv07EdvzCDgE+kYlR4/OqmjsFAOcnPToxaZX7xul8eQTSSpqSmmmmo5kfz8QQFfP3jwMFavrsXIkdZ4gKolq78PvJyyoHCQMUFOgRiv2LMclqpxrvuWFrbRK+zjKUQYp3dfemA2AXeG/0Ge/yGZf2Sc2qv7sT/nniC5vUfl6vUe7Fhmt/egkF17ZhYwAPTq1QPDhuUGPD1iZbkz7iT8zTfuoFXmHI7AZ9DpAmPFEV/7q8Z3HB26S9je177Ouc35MmzWk7AVBNwZ3mOSbQXQkd1sO/JSU1Nw06xzRccIypkj8wJKeMWKavz02jL06tXTwFRi8T/g64rBg7OFFL0n4pdKckpMvTGjM3R7MHcizXXNLwGw1G8oLQWcmpqCsVGWwIwlCu25lhAwAJx1VkHQaxZ++Z0BSczBli1NWLMmsOfOPrvQoDTHYeDVgn6OlwzvWAMMqbAxZcqUdndD1YtMNA5EQ43oMxq0FvCJwtFjXa2VMOMDuEBkZaWj0D4YblfXqwE+/3wVLrl0PJKSEsNuPz099NOSM9K7vk6rdoLx2WddP6j0M7bUEXH7kcCMDYpNeZGIzFM7MwwM3fDjbHTeS4SHjewzXPQUsNbtW4nU1BTMmFmq20oOPVm+rBLPPBP48Jgrpk/ClVdOMSiRGDZu3IYH7n8+4DWjzyrAnXf+2KBEHTDjfx1ZjkcM7VRDDJmO8JPER+Yws+nOePKjt4D9/72srCRupif8UzE3zTrXkgIGgB9NGIHefVIDXvPeu0uxY0fgWgpW5935S4JeM2XKKAOSHIeZ3zvCR+YY2qnGGCrhvOyRzcT8PADTnfNkhIBPfL20dDhumnVuTMvYP/drlRoYgTj//DEBX2dm/Oc/XxqUxniWLq0IOheclzcAI0YYN9vIjG3EyvMjs0c2G9apDhgqYQCwZxd/QsBzRvcbCCMFfOq1fhlHe1KHmeiYehinSb1ls3DhhWODroBYtdKFxYtXG5TIOHbt8uKNfy8Iet2FF5UakOY4CuFZe7b9E0M71QHDJQwA7VCfA8EUJzSLEvCp75sxY5zlZeyX702zzrXUw7dQsNlsuOzyCUGve+XlT+Dx7DAgkXG89NLHIa0LDmUliWYQ3k3ibs8a16F+CKvE597uPl9VfU8T0RBRGcwg4M7wF3k329rerhhbmge7Pdeyc77h8Lv7nsXmzY0BrxlyRn88+OBNUBQhYxxNmfufhfjgg2VBr7v/gZ9h+PABBiQCwNioqvyLov5FwYfnFkBoOVRXQ/XdUOivIvo2q4BPxOtthae+BS53velWU/i3SsfCfG84VFWux1/+8nrQ684eU4g77phpQCL9+PLLb/HySx8Hva6sbAyuu/5CAxIdReV77NlFjxrXob4IlXBFY0WPRLI9BdCNRvZrBQGfipHFdLrCL954GfV2xauvfILPP/8m6HWTp4zErFmXGZBIe5Yvr8IzT88Pel2/fr3xyJ9/EfRgVO3gl9vYd1tJVskBgzrUHeEHA9Q0VI32KfQUgQI/ftYIKwr4VPwj5HpPy7E/64FfuoA1j1zSC1VVcd9vn0F9ffC5XyuKeNnSCjz7bGgrSe/5zU8xYsQwnRN1wMAqm812W0FGQUxtURQuYQBwNbmuBfOTIERf7j8AsSDgzvDXivB/Lr+cAQQsznNqoZ/U1O4AoEk1tlinrq4ef/xDaMtTzx5TiNtuu8oSc8SfflqOf78e2lTr9CsnY/r0yfoGOs5ugO6wZ9qDzwVZDFNIGACqG6v/qBDdr2cf8+atiDkBS8Tx1Vff48U5H4Z07ZAz+uOWWy5HTo6Y0yZC4ZVXPsEXIUyzAMCYsXbcfvsMnRMdR2X+U1FW0QOGdWggpvnVnNgj8R9g1vVMKC1Gd1LAEj/nnDMqpGVrALBxwzbc/7vnTLmOePPmRvzxD3NCFvDQoTm49dbM9hwYAAAL2klEQVTpOqc6AeY32rjtSeM6NBbTjIQBoHan8+x2H54AQ7dV39EcTikFLOmMF1/8CF8tDH2acsxYO3784/PQt6/Y04gB4P33lmLevNBroGdlpePe/73OsKOLmFEO4E5HliO03xAWxFQSBgDXDtdM9qmPE1HgA76iIBIRSwFLAvHcc+9h6ZLAdXZPhIgw7YqJuPTSH0VUfS1aVpY78d77S+EJ4eGin379euPue65BVla6jsmOw4wGBv+qKKvoP4Z0KAjTSRgAXNur7wbru344HBFLAUtCIdwRMQD07Nkd558/BueeN9qQwvBff12FLz7/BuvXh1e+JSenL+6868fIzDTwgS3xPfZ+sbMeuCtMKWFmtrmbXI+CEN253EEIRcRSwJJwmDt3IT54P/gOs84YN64IY0sdmh+XtHlzI1atcmHF19Voadkb9vsLCwfjv2+7Cr169dA0V0AYT7gy3XfPpJmWrBEcDqaUMABUe6pzKQGPEkjXbUeBRCwFLImEcFZNdEb37skoKh6KgoKBGDYsFwMHZYX1g9rcvAcbNnhQu3YrnM6NaGzcGXGWyZNHYtbNxq5zZvBcbsfdRTlF1ti3HyWmlTAAOBvXnA1K+AuBJunZT2cilgKWRENdXT1eevHDkDZ0BENRFGRl9UFGRhrS0k5DSo9uSEpKBBHQ3u7DwdbD8HoPoKVlL5qaduHAgcDFdkLluusvRFmZIXuojsHMS5hxT1F20beGdiwQU0sYANyNVRcz6C8g0vXgqhNFLAUs0QJVVfH6a5+FtMXZTOQNH4Brr70AQ4bo9my8C9hNzL8pzCoOXrAihjC9hAHA2eC8gRR+BKBMPfspL6+F2+WRApZoSlXlesyduzBo9TXRJCTYcNWMc3DJJeON75y5iZnudWQ7XjG+c7FYQsIA4G6qvlMFHiFQsugsEkkkLFiwCh+8vwx79+4XHeUHnHPuaEybNhG9ewc+xkknDhP43sLMoidEdC4ay0gYAFyN1Q+C6Peic0gkkeLz+fDppyvx+eersKvFKzoOJk8ZiQsuGCt2OzXzH+xZRQ+KCyAWS0m4juuS25oO/z8Q/Up0FokkWpYvq8TSZRVwuzYZ2m/fvqdjwoQRmDR5pKiR73GYH0vcl/zbvLy8w2KDiMNSEgYAt8fdh22+h0A0W3QWiUQLGht34ttva7BmdR3WrdNnVVZGRhpKzszD6FH5sDuEHWZzMszPHlQP/250/9GRr6GLASwnYaBjDbGSgD8BdIPoLBKJluzdewBr127GunX12LSxAfX129HaGv4gMSe3LwYNysLQoTkYPnwgcnPNVr2NX1HbcX+8rAUOhCUlDACu+tXDODHpjwRcLTqLRKInu3fvQ3PzHuzZvQ/79rXi4KHDaGtrBxiwJShITk5Cz57d0atXT/Tp0wv9+vWGopj3R5uBt0ihB+x97etEZzED5v2bCgFng7MQhD8S4UrRWSQSSSjw26zS7x3ZDrfoJGbBNPWEI8GR7XDbyPYHAMEPw5JIJEJh5nd94D9JAZ+MpUfCftY2rS1u57YHiegK0VkkEskPYeZ3E4gfzM8srhKdxWxYeiTsJz8zv8pGCb8H+G3RWSQSyanw26oUcJfExEjYj7PBWUgK7od8WCeRmAIG3oIKOQURgJiSMNCxagKJiffJ5WsSiWj4FSjKQ3IVRGBiTsLA0XXENtwnN3RIJIJgflb14SG5Djg4MSlhoGNnnc/m+60itzhLJMbC/NhB9fDD8b4TLlRiVsLAsVoT/8uEe2X1NYlEdw6D+ZHEfckPx3MtiHCJaQn7cTdV38nA/+hdj1giiVuYm4jw53gtRxkNcSFh4GhheOLf6H1Ch0QSf7CbVfpLPBZk14K4kTAAuBvdF6vku0fvM+skkniBmZco4L/G25FEWhJXEgaA6obqs0jB3Xqf4iyRxDoMnssqHo2nQzn1IO4kDADObc4BpOAuEO4UnUUisSSMJ1QfPyaXoEVPXEoYAJhZce9w/gpMdwEw+lhZicSSMKOBFH7c1bfm8Zk00yc6TywQtxL249rhmsk+9U4iKhWdRSIxM8woZ/Dfi7KK/iM6SywR9xIGgNqdzrPb2/iXILpGdBaJxJQwv8GgvzuyHN+IjhJrSAkfZa13bXrbgbY7FNDtIKSJziORmITdKvNTbdz25Mjskc2iw8QiUsKn4GpyXctQbyPQGNFZJBKRMLCKQE/ZM+2vi84Sy0gJd0J1Q/VZioJfAHSj6CwSiRj4ZcWW8M+CjILvRCeJdaSEu+C7bd+ldKfkX4DoVhBMcka4RKIzjI1gfrqNfE+XZJUcEB0nHpASDoJ7u/t8VVV/TgR5dJIktiG8q7bzs0X9ixaIjhJPSAmHQFVTVb8EKLcwcAuAHNF5JBItYcY2hfBsEnd7dmjW0B2i88QbUsJh4Nrhuoh96s1ENE10FolEC5j5PWLleXu2/RPRWeIVKeEwWbttbXq70j6LgFkgnCE6j0QSCczYAOCFI3xkjlx6JhYp4QhxN1RNUkn5GRGuF51FIgmTV0lRXizsW7hEdBCJlHBULFq0KKFfQfqNKtN/EWGc6DwSSUAYK4j4pYJ+jpeISNZ9MAlSwhrg9rjzYFOvV8E3EJF8cCcxGx5ivHLE1/5qSU5JnegwkpOREtYQZ6PzHCK+jhnXEZFNdB5JfMPMKhFeZabXHFmOr0TnkXSOlLAOOJucPyHgpwAuFp1FEp8w8DGAfzsyHW+KziIJjJSwTqzZtCYtOSXhGlbpGhDGi84jiRMYX5PCb3RP6vnG4NMH7xEdRxIcKWGdcW5zDqAEvppVXE1EZ4rOI4lNmHkNAW9xMr3l6O3YKjqPJHSkhA2iwlORl5hgm8nAjwnkEJ1HEiMwqkE8lxTb3MK+hfKhmwWREjaYtc1r89t97TPAuIoIxaLzSCxLJQPvsMpvF2UX1YgOI4kcKWFBuOpdwzjBdyWRMh3AWaLzSKwBM74F1Plks71j72tfJzqPJHqkhAVTubMyx9ZGVzDTNEWhc0TnkZgTZl6oKPRegi3pvbz0PI/oPBLtkBI2Cc7tzp5gXK4Al6nMlxFRN9GZJMI5xMAHAD6w2WwfFGQU7BMdSKI9UsImpGpb1VRFUS4m8MUgGio6j8RYmNUNgPIREX1kz7R/KTqPRF+khE1MjadyuE+xXQTChUSYKjqPRGcYXzDhU1+775MROSNqRceRGIOUsAVYxIsS+jX1KWOiMoDOBzBcdCaJNjCjlog/J7Yt2L52+4IpU6a0i84kMRYpYYvhavh+oKokTSXQeQScCyBddCZJeDC4BaAvGfyloipf2LPtW0RnkohDStjC1G6vHtHGdA6AKcQ8BUQ9RWeSdA4z7yOixQwsYuKvivoVVYrOJDEHUsIxQlVD1ShFUSaBeSIRJgDUW3SmuIexm8FLwbTUBnVJQXbx96IjScyHlHAM4mp02RXi8SownhnjSR7DZBzM60G0glV1BZFtuT3L7hIdSWJupIRjnIrGir4JlDCWwGMBjGHQGAJ6iM4VMzDvB+EbAKsYtLKd21eWZJXIE4slISMlHGdUN1QXADiLFIwiYCRAIwGkiM5lFRjcSsBqBlYTKd+xj793ZDvconNJrIuUcJxT6akcnmBTSkAYwaBiAooB5IrOZR54K0DVAFepjMqEhISKgowCuYZXohlSwpKT+G7Xd716tPWwM7cX+hiFRJQPcD6BBovOpjcMbAJ4LTPWkko1nMCulMQU1xm9z9grOpskdpESlgTF6XQmUZ+2YT7VNkyxKWcQMATgIQANYubBRJQsOmOoMPgQGFsI2MTgTSBlA4HWg7H+YObButE0uk10Rkl8ISUsiYqKxoq+CisDbIqtP6lqf5UoG4RMAJkA+hKQAeZ0Q9YwM+9nwk4CNbPKOxSFmlRGEzM3KIqyTbH5PG0+eIozi7frnkUiCREpYYnu1NXVJR/pdeT0BEVN87WrvUCJpwHoyeAeAFLA6AZCElhNAiMBgAJFAVQVgKKC1HZiamPiwyDlEIBW1ae22my2fWDs86m+vUqCsgd9sctBjiNCP6xEIpFIJBKJRCKRSELg/wMlvoKItxKmpAAAAABJRU5ErkJggg==;" vertex="1" parent="m5X-id6JAVoZ-Rpwvo6L-1">
                    <mxGeometry x="2010" y="80.39" width="132.76" height="125.61" as="geometry"/>
                </mxCell>
                <mxCell id="mmmZIIYuR7lRWTROqyAx-0" value="&lt;div&gt;&lt;font style=&quot;color: rgb(118, 96, 138);&quot;&gt;Tegangan (V) tetap 💡&lt;/font&gt;&lt;/div&gt;&lt;div&gt;&lt;font style=&quot;color: rgb(118, 96, 138);&quot;&gt;&lt;br&gt;&lt;/font&gt;&lt;/div&gt;&lt;div&gt;&lt;font style=&quot;color: rgb(118, 96, 138);&quot;&gt;Arus (A) bertambah ⚡&lt;/font&gt;&lt;/div&gt;&lt;div&gt;&lt;font style=&quot;color: rgb(118, 96, 138);&quot;&gt;&lt;br&gt;&lt;/font&gt;&lt;/div&gt;&lt;div&gt;&lt;font style=&quot;color: rgb(118, 96, 138);&quot;&gt;Kapasitas (mAh) bertambah 🔋&lt;/font&gt;&lt;/div&gt;" style="rounded=1;whiteSpace=wrap;html=1;strokeWidth=4;arcSize=2;fillColor=#e1d5e7;strokeColor=#9673a6;fontSize=30;fontStyle=1;align=left;spacingTop=0;spacingLeft=22;spacing=2;verticalAlign=middle;" vertex="1" parent="m5X-id6JAVoZ-Rpwvo6L-1">
                    <mxGeometry x="1220" y="291" width="470" height="239" as="geometry"/>
                </mxCell>
                <mxCell id="mmmZIIYuR7lRWTROqyAx-1" value="Karakteristik" style="rounded=1;whiteSpace=wrap;html=1;fontSize=30;fontStyle=1;strokeWidth=3;fillColor=#76608a;strokeColor=none;fontColor=#ffffff;" vertex="1" parent="m5X-id6JAVoZ-Rpwvo6L-1">
                    <mxGeometry x="853.5" y="375.5" width="263" height="70" as="geometry"/>
                </mxCell>
                <mxCell id="mmmZIIYuR7lRWTROqyAx-2" value="Rumus" style="rounded=1;whiteSpace=wrap;html=1;fontSize=30;fontStyle=1;strokeWidth=3;fillColor=#76608a;strokeColor=none;fontColor=#ffffff;" vertex="1" parent="m5X-id6JAVoZ-Rpwvo6L-1">
                    <mxGeometry x="853.5" y="685" width="190" height="70" as="geometry"/>
                </mxCell>
                <mxCell id="mmmZIIYuR7lRWTROqyAx-3" value="&lt;div&gt;&lt;font style=&quot;color: rgb(118, 96, 138);&quot;&gt;Tegangan total (V) → Tetap sama&lt;/font&gt;&lt;/div&gt;&lt;div&gt;&lt;font style=&quot;color: rgb(118, 96, 138);&quot;&gt;&lt;br&gt;&lt;/font&gt;&lt;/div&gt;&lt;div&gt;&lt;font style=&quot;color: rgb(118, 96, 138);&quot;&gt;Arus total (A) → I&lt;sub&gt;total&lt;/sub&gt;=I&lt;sub&gt;1&lt;/sub&gt;+I&lt;sub&gt;2&lt;/sub&gt;+I&lt;sub&gt;3&lt;/sub&gt;+…&lt;/font&gt;&lt;/div&gt;&lt;div&gt;&lt;font style=&quot;color: rgb(118, 96, 138);&quot;&gt;&lt;br&gt;&lt;/font&gt;&lt;/div&gt;&lt;div&gt;&lt;font style=&quot;color: rgb(118, 96, 138);&quot;&gt;Kapasitas total (mAh) → C&lt;sub style=&quot;&quot;&gt;total&lt;/sub&gt;=C&lt;sub style=&quot;&quot;&gt;1&lt;/sub&gt;+C&lt;sub style=&quot;&quot;&gt;2&lt;/sub&gt;+C&lt;sub style=&quot;&quot;&gt;3&lt;/sub&gt;+…&lt;/font&gt;&lt;/div&gt;" style="rounded=1;whiteSpace=wrap;html=1;strokeWidth=4;arcSize=2;fillColor=#e1d5e7;strokeColor=#9673a6;fontSize=30;fontStyle=1;align=left;spacingTop=0;spacingLeft=22;spacing=2;verticalAlign=middle;" vertex="1" parent="m5X-id6JAVoZ-Rpwvo6L-1">
                    <mxGeometry x="1220" y="590" width="730" height="260" as="geometry"/>
                </mxCell>
                <mxCell id="mmmZIIYuR7lRWTROqyAx-4" value="Contoh" style="rounded=1;whiteSpace=wrap;html=1;fontSize=30;fontStyle=1;strokeWidth=3;fillColor=#76608a;strokeColor=none;fontColor=#ffffff;" vertex="1" parent="m5X-id6JAVoZ-Rpwvo6L-1">
                    <mxGeometry x="853.5" y="957" width="190" height="70" as="geometry"/>
                </mxCell>
                <mxCell id="mmmZIIYuR7lRWTROqyAx-5" value="&lt;div&gt;&lt;font color=&quot;#76608a&quot;&gt;Tegangan total: Tetap 3.7V&lt;/font&gt;&lt;/div&gt;&lt;div&gt;&lt;font color=&quot;#76608a&quot;&gt;&lt;br&gt;&lt;/font&gt;&lt;/div&gt;&lt;div&gt;&lt;font color=&quot;#76608a&quot;&gt;Kapasitas total: 2000mAh + 2000mAh + 2000mAh = 6000mAh (6Ah)&lt;/font&gt;&lt;/div&gt;" style="rounded=1;whiteSpace=wrap;html=1;strokeWidth=4;arcSize=2;fillColor=#e1d5e7;strokeColor=#9673a6;fontSize=30;fontStyle=1;align=left;spacingTop=0;spacingLeft=22;spacing=2;verticalAlign=middle;" vertex="1" parent="m5X-id6JAVoZ-Rpwvo6L-1">
                    <mxGeometry x="1220" y="897" width="750" height="190" as="geometry"/>
                </mxCell>
                <mxCell id="mmmZIIYuR7lRWTROqyAx-6" value="" style="endArrow=none;html=1;strokeWidth=10;entryX=1;entryY=0.5;entryDx=0;entryDy=0;strokeColor=#76608a;exitX=0;exitY=0.5;exitDx=0;exitDy=0;" edge="1" parent="m5X-id6JAVoZ-Rpwvo6L-1" source="mmmZIIYuR7lRWTROqyAx-0" target="mmmZIIYuR7lRWTROqyAx-1">
                    <mxGeometry width="50" height="50" relative="1" as="geometry">
                        <mxPoint x="993.5" y="660" as="sourcePoint"/>
                        <mxPoint x="853.5" y="520" as="targetPoint"/>
                    </mxGeometry>
                </mxCell>
                <mxCell id="mmmZIIYuR7lRWTROqyAx-7" value="" style="endArrow=none;html=1;strokeWidth=10;entryX=1;entryY=0.5;entryDx=0;entryDy=0;strokeColor=#76608a;exitX=0;exitY=0.5;exitDx=0;exitDy=0;" edge="1" parent="m5X-id6JAVoZ-Rpwvo6L-1" source="mmmZIIYuR7lRWTROqyAx-3" target="mmmZIIYuR7lRWTROqyAx-2">
                    <mxGeometry width="50" height="50" relative="1" as="geometry">
                        <mxPoint x="1230" y="421" as="sourcePoint"/>
                        <mxPoint x="1127" y="421" as="targetPoint"/>
                    </mxGeometry>
                </mxCell>
                <mxCell id="mmmZIIYuR7lRWTROqyAx-8" value="" style="endArrow=none;html=1;strokeWidth=10;entryX=1;entryY=0.5;entryDx=0;entryDy=0;strokeColor=#76608a;exitX=0;exitY=0.5;exitDx=0;exitDy=0;" edge="1" parent="m5X-id6JAVoZ-Rpwvo6L-1" source="mmmZIIYuR7lRWTROqyAx-5" target="mmmZIIYuR7lRWTROqyAx-4">
                    <mxGeometry width="50" height="50" relative="1" as="geometry">
                        <mxPoint x="1230" y="730" as="sourcePoint"/>
                        <mxPoint x="1054" y="730" as="targetPoint"/>
                    </mxGeometry>
                </mxCell>
            </root>
        </mxGraphModel>
    </diagram>
    <diagram id="qspYXHKXKbUXUEhdgwAc" name="Seri">
        <mxGraphModel dx="3210" dy="1343" grid="1" gridSize="10" guides="1" tooltips="1" connect="1" arrows="1" fold="1" page="1" pageScale="1" pageWidth="827" pageHeight="1169" math="0" shadow="0">
            <root>
                <mxCell id="0"/>
                <mxCell id="1" parent="0"/>
                <mxCell id="52" value="" style="rounded=0;whiteSpace=wrap;html=1;fontSize=29;fontStyle=1;strokeWidth=2;fillColor=#f5f5f5;fontColor=#333333;strokeColor=none;" parent="1" vertex="1">
                    <mxGeometry x="240" y="60" width="1920" height="1080" as="geometry"/>
                </mxCell>
                <mxCell id="53" value="Rangkaian Dasar" style="rounded=1;whiteSpace=wrap;html=1;fontSize=40;fontStyle=1;strokeWidth=3;fillColor=#6d8764;strokeColor=none;fontColor=#ffffff;" parent="1" vertex="1">
                    <mxGeometry x="926.25" y="100" width="517.5" height="100" as="geometry"/>
                </mxCell>
                <mxCell id="54" value="Dasar Elektronika" style="rounded=1;whiteSpace=wrap;html=1;fontSize=29;fontStyle=1;strokeWidth=3;fillColor=#a0522d;strokeColor=none;fontColor=#ffffff;" parent="1" vertex="1">
                    <mxGeometry x="270" y="90" width="300" height="60" as="geometry"/>
                </mxCell>
                <mxCell id="55" value="" style="rounded=1;whiteSpace=wrap;html=1;strokeWidth=4;arcSize=2;fillColor=#fff2cc;strokeColor=#d6b656;" parent="1" vertex="1">
                    <mxGeometry x="348" y="291" width="470" height="800" as="geometry"/>
                </mxCell>
                <mxCell id="92" value="" style="shape=image;verticalLabelPosition=bottom;labelBackgroundColor=default;verticalAlign=top;aspect=fixed;imageAspect=0;image=data:image/png,iVBORw0KGgoAAAANSUhEUgAAAQAAAAEACAYAAABccqhmAAAABHNCSVQICAgIfAhkiAAAAAlwSFlzAAAHYgAAB2IBOHqZ2wAAABl0RVh0U29mdHdhcmUAd3d3Lmlua3NjYXBlLm9yZ5vuPBoAAAp8SURBVHic7d1NjBtnHcfx3zNje71v2by/NDSNgAq1iL5Q1MIBCYFEOSGEiqgQXLkWIYHEbYV6QY3KnQucUMWhXIvooTc4oBbaQpoUFQKtINlsNvuWtT2eeTgEKtI0K3s868nO7/s5bjSzf21mvvbjscdB2Le+sLzcSnX251J8SlJ33O1jUWjQ66nIslK/P2233knnrn7yleXlXqkdoHZJ3QOgvFRnnpbit1Xi5JekkCTqdEttKknKs+FHi53j50rvALUjAPtYDMl9k+4jJJMdAlHxE5POgPoQgH0siUWoewZF1T8DSiMAgDECABgjAIAxAgAYIwCAMQIAGCMAgDECABgjAIAxAgAYIwCAMQIAGCMAgDECABgjAICxVt0D7Hcb5x47OhPDyWFIZ6b9u5/rv3PPv/IDE++n194qve1iR4svnXvisTLbJtu9A0meHS2G+dh/u3YSt4at5C/d5bculvnduImbOZSwce6xo50k/WGUvinpTN3z7GsxSv2BtLmtsLMjxfE2D610WHQ6r4aZ1neIwfgIwJh6zz/xZYX4Qow6VPcsjbPTV1hZvRmFMcUkxGR+/kczz174yR5M1lgEYAw7zz/+eUkvS+rUPUtj9QcKl1fGfiYg6ebRvDD//e6zF39a9VhNRQBGFJ97aL6Xdt+WdKruWZourG9I1zfLbZwk+czS7MmwfPFqtVM1E1cBRrSTdr8rTv6piAcWpVDy0CyKtD/Qz6qdqLkIwIhC0NfrnsFGCIqzE1xUyQZfrG6YZiMAo4p6sO4RrHTKX6EOw3yxwkkajQCMjlf9p6nsEkBSjAXH9Yj4Q42OF0ynKUzw5y5zBcEUAQCMEQDAGAEAjBEAwBifBjQUOolaDxxQeqwrRSlf6Wn41obioKh7NEwZAXDTCuo8cVRhLn3/R+mpWSVLHfV/tyINeQndCUsAM62zC7ec/P8T5lK1zi7UMBHqRADMJAfbpf4NzUQA3CS7vMFmt39DIxEAwBgBAIxxFaDBwmJLoXPrC36hdeen+aEVlBy59WO4cZArbg73ZD7UjwA0UJhN1X7ooJKD4925LCy21fnM4dt+XqwNlL1xXXEnr2pE3CVYAjRNEtT59OGxT/5dd3moo86jh3iRsIEIQMOkx2YUFqp/YhcW20qPTv2rD7DHCEDDhNnb3+RT2b7nWDE2DQFomHhj79bpxY1sz/aNehCAhslXeirWqz9Ri+uZipV+5ftFvQhA00Qpe22t0pO1WOkr++Mat9pqIBZ1DRT7uQavXlPopgoztza+9cCSkqUPf89/sZ5peH79A/sqFHtc/msqAtBgsZfffvIWuzyMF3FPlg+4e7EEAIwRAMAYAXCz2xIg51U+NwTATLE2KPVvaCYCYGb4t23F7ds/3Re3hxpe2q5hItSJqwBuiqj+71fVvn9ByYnuzR9d7in76xZLAEMEwNGwUHZ+Qzq/UfckqBlLAMAYAQCMEQDAGAEAjBEAwBgBAIwRAMAYAQCMEQDAGO8EHNG7R47VPYKV9aUjunbPvRPs4b3KZmkyAjCiX3zpybpHsHJ5mOlSf5JPJ75U2SxNxhIAMEYAAGMEADBGAABjBAAwRgAAYwQAMEYAAGMEADBGAABjBAAwRgAAYwQAMEYAAGMEADBGAABjBAAwRgAAYwQAMEYAAGMEADBGAABjBAAwRgAAYwQAMEYAAGMEADBGAABjBAAwRgAAYwQAMEYAAGMEADBGAABjBAAwRgAAYwQAMEYAAGMEADBGAABjBAAwRgAAYwQAMEYAAGMEADBGAABjBAAwRgAAYwQAMEYAAGMEADBGAABjBAAwRgAAYwQAMEYAAGMEADBGAABjBAAwRgAAYwQAMNaqewAXazcy/WtzRzHWPcney7Jc165tqciLsbcNSaKPnVrS7JHZPZgMH0QApuDfGz29/PYVRYez/7/iINfwynqpbS/9/aoefPgjSo7PVTwVPoglwBRcWrthdfJLUuikUqv84fXPd69XOA3uhABMwbDwOvnfF0LpTWMx/vIB4yMAgDECABgjAIAxAgAYIwCAMQIAGCMAgDECABgjAIAxAgAYIwCAMQIAGCMAgDECABgjAIAxAgAYIwCAMQIAGCMAgDECMAWdtPy98fa1Ce6FmE5wQ1GMjr/yFNx/fEEzZgd0sT2QSnwvgHTzuwHu//jRiifCh+F7AabgYLejr33qtNZuDCZ5UNw3Blmuzc2edN/hsbdNEum+4we01ZIu9Qd7MB3+HwGYkk6a6MRit+4xpufI/ESbbw2zigbBbryelwK4BQEAjBEAwBgBAIwRAMAYAQCMEQDAGAEAjBEAwBgBAIwRAMAYAQCMEQDAGJ8GnJJhEbXRyxQNPg48zAtt3eiX2jZR0KnD8zw0TQkBmIKNXqbfXLisXpbXPcrUFNt95WvbpbYNaaLHP3tWmuPw3Gt0dgouXtmyOvklKZmfkdJyh1fMC114e6XiifBhCMAU9EveGmvfS8rfC3FoFsy6EADAGAEAjBEAwBgBAIwRAMAYAQCMEQDAGAEAjBEAwBgBAIwRAMAYAQCMEQDAGAEAjBEAwBgBAIwRAMAYAQCMEQDAGAGYgpL3xrQWJrifIEbHoTkF9x6ak+R1QMdBLk1wY8/T9xyscBrcCTden4LTB2b1lQdOamWzJ4PvBdEwL7R6dUvFmcMltg46c3JJS8fndKk/qHw23IoATMmx+Y6OzXfqHmN6Tk/2CH55mFU0CHbDEgAwRgAAYwQAMEYAAGMEADBGAABjBAAwRgAAYwQAMEYAAGMEADBGAABjBAAwxqcBRzSTDesewUq7KJTWPYQBAjCiH/z6hbpH8LK5rXDteunNuxWO0mQsAQBjBAAwRgAAYwQAMEYAAGMEADBGAABjBAAwRgAAYwQAMEYAAGMEADBGAABjBAAwRgAAYwQAMEYAAGPcEaipkqDkUEehm0ghlNtHjIr9XMW1TCpitfPhrkAAGigsttR5+JDCfDX/vXFrqMHra4qb3BexaVgCNE0a1HnkcGUnvySFhZY6jxyWkpLPJHDXIgANkx7vKsxVfz/dMJcqPTFT+X5RLwLQMGFm726mHWZYMTYNAWiYYmvv1unFZrZn+0Y9CEDDFFd7Kq72q9/val/FavX7Rb0IQAMNXr+u/L0dKVZw6S5G5e/e0OBP5b+kA3cvFnVNlBXK3ryu7HxQ6Ez2mkAc5FLOewCaigA0WR4Vd7h2jztjCQAYIwCAMQIAGCMAgDECABgjAIAxAgAYIwCAMQIAGCMAgDECMLqi7gGcBE3w+YOy90A0RABGd6XuAZzEYV5625CE8hubIQAjC6/VPYGTkJX/EFORtlYrHKXRCMCoYnyh7hFs5IW00yu/faf1YnXDNBsBGFF3c+6Xinqz7jkchPWN0tvGdqvXbXeeqXCcRiMAIwrLrwxDWjwl6VrdszTa9o60tV1u2ySJrbm5r4blPw+qHaq5CMAYut/7w4UQ9TkpvlH3LI0To8L6psLqmspcAIjtVi9dXHiy/ePzv61+uObiekkJ8VffSHvv/eNbivFpSY9KOiFiOr4YpWEu7fQVtralbMy7DqdJEVutq2q3Xuy2O8/wyD++/wA/A0R8GXInIQAAAABJRU5ErkJggg==;" parent="1" vertex="1">
                    <mxGeometry x="340" y="450" width="256" height="256" as="geometry"/>
                </mxCell>
                <mxCell id="93" value="" style="shape=image;verticalLabelPosition=bottom;labelBackgroundColor=default;verticalAlign=top;aspect=fixed;imageAspect=0;image=data:image/png,iVBORw0KGgoAAAANSUhEUgAAAQAAAAEACAYAAABccqhmAAAABHNCSVQICAgIfAhkiAAAAAlwSFlzAAAHYgAAB2IBOHqZ2wAAABl0RVh0U29mdHdhcmUAd3d3Lmlua3NjYXBlLm9yZ5vuPBoAAAp8SURBVHic7d1NjBtnHcfx3zNje71v2by/NDSNgAq1iL5Q1MIBCYFEOSGEiqgQXLkWIYHEbYV6QY3KnQucUMWhXIvooTc4oBbaQpoUFQKtINlsNvuWtT2eeTgEKtI0K3s868nO7/s5bjSzf21mvvbjscdB2Le+sLzcSnX251J8SlJ33O1jUWjQ66nIslK/P2233knnrn7yleXlXqkdoHZJ3QOgvFRnnpbit1Xi5JekkCTqdEttKknKs+FHi53j50rvALUjAPtYDMl9k+4jJJMdAlHxE5POgPoQgH0siUWoewZF1T8DSiMAgDECABgjAIAxAgAYIwCAMQIAGCMAgDECABgjAIAxAgAYIwCAMQIAGCMAgDECABgjAICxVt0D7Hcb5x47OhPDyWFIZ6b9u5/rv3PPv/IDE++n194qve1iR4svnXvisTLbJtu9A0meHS2G+dh/u3YSt4at5C/d5bculvnduImbOZSwce6xo50k/WGUvinpTN3z7GsxSv2BtLmtsLMjxfE2D610WHQ6r4aZ1neIwfgIwJh6zz/xZYX4Qow6VPcsjbPTV1hZvRmFMcUkxGR+/kczz174yR5M1lgEYAw7zz/+eUkvS+rUPUtj9QcKl1fGfiYg6ebRvDD//e6zF39a9VhNRQBGFJ97aL6Xdt+WdKruWZourG9I1zfLbZwk+czS7MmwfPFqtVM1E1cBRrSTdr8rTv6piAcWpVDy0CyKtD/Qz6qdqLkIwIhC0NfrnsFGCIqzE1xUyQZfrG6YZiMAo4p6sO4RrHTKX6EOw3yxwkkajQCMjlf9p6nsEkBSjAXH9Yj4Q42OF0ynKUzw5y5zBcEUAQCMEQDAGAEAjBEAwBifBjQUOolaDxxQeqwrRSlf6Wn41obioKh7NEwZAXDTCuo8cVRhLn3/R+mpWSVLHfV/tyINeQndCUsAM62zC7ec/P8T5lK1zi7UMBHqRADMJAfbpf4NzUQA3CS7vMFmt39DIxEAwBgBAIxxFaDBwmJLoXPrC36hdeen+aEVlBy59WO4cZArbg73ZD7UjwA0UJhN1X7ooJKD4925LCy21fnM4dt+XqwNlL1xXXEnr2pE3CVYAjRNEtT59OGxT/5dd3moo86jh3iRsIEIQMOkx2YUFqp/YhcW20qPTv2rD7DHCEDDhNnb3+RT2b7nWDE2DQFomHhj79bpxY1sz/aNehCAhslXeirWqz9Ri+uZipV+5ftFvQhA00Qpe22t0pO1WOkr++Mat9pqIBZ1DRT7uQavXlPopgoztza+9cCSkqUPf89/sZ5peH79A/sqFHtc/msqAtBgsZfffvIWuzyMF3FPlg+4e7EEAIwRAMAYAXCz2xIg51U+NwTATLE2KPVvaCYCYGb4t23F7ds/3Re3hxpe2q5hItSJqwBuiqj+71fVvn9ByYnuzR9d7in76xZLAEMEwNGwUHZ+Qzq/UfckqBlLAMAYAQCMEQDAGAEAjBEAwBgBAIwRAMAYAQCMEQDAGO8EHNG7R47VPYKV9aUjunbPvRPs4b3KZmkyAjCiX3zpybpHsHJ5mOlSf5JPJ75U2SxNxhIAMEYAAGMEADBGAABjBAAwRgAAYwQAMEYAAGMEADBGAABjBAAwRgAAYwQAMEYAAGMEADBGAABjBAAwRgAAYwQAMEYAAGMEADBGAABjBAAwRgAAYwQAMEYAAGMEADBGAABjBAAwRgAAYwQAMEYAAGMEADBGAABjBAAwRgAAYwQAMEYAAGMEADBGAABjBAAwRgAAYwQAMEYAAGMEADBGAABjBAAwRgAAYwQAMEYAAGMEADBGAABjBAAwRgAAYwQAMEYAAGMEADBGAABjBAAwRgAAYwQAMNaqewAXazcy/WtzRzHWPcney7Jc165tqciLsbcNSaKPnVrS7JHZPZgMH0QApuDfGz29/PYVRYez/7/iINfwynqpbS/9/aoefPgjSo7PVTwVPoglwBRcWrthdfJLUuikUqv84fXPd69XOA3uhABMwbDwOvnfF0LpTWMx/vIB4yMAgDECABgjAIAxAgAYIwCAMQIAGCMAgDECABgjAIAxAgAYIwCAMQIAGCMAgDECABgjAIAxAgAYIwCAMQIAGCMAgDECMAWdtPy98fa1Ce6FmE5wQ1GMjr/yFNx/fEEzZgd0sT2QSnwvgHTzuwHu//jRiifCh+F7AabgYLejr33qtNZuDCZ5UNw3Blmuzc2edN/hsbdNEum+4we01ZIu9Qd7MB3+HwGYkk6a6MRit+4xpufI/ESbbw2zigbBbryelwK4BQEAjBEAwBgBAIwRAMAYAQCMEQDAGAEAjBEAwBgBAIwRAMAYAQCMEQDAGJ8GnJJhEbXRyxQNPg48zAtt3eiX2jZR0KnD8zw0TQkBmIKNXqbfXLisXpbXPcrUFNt95WvbpbYNaaLHP3tWmuPw3Gt0dgouXtmyOvklKZmfkdJyh1fMC114e6XiifBhCMAU9EveGmvfS8rfC3FoFsy6EADAGAEAjBEAwBgBAIwRAMAYAQCMEQDAGAEAjBEAwBgBAIwRAMAYAQCMEQDAGAEAjBEAwBgBAIwRAMAYAQCMEQDAGAGYgpL3xrQWJrifIEbHoTkF9x6ak+R1QMdBLk1wY8/T9xyscBrcCTden4LTB2b1lQdOamWzJ4PvBdEwL7R6dUvFmcMltg46c3JJS8fndKk/qHw23IoATMmx+Y6OzXfqHmN6Tk/2CH55mFU0CHbDEgAwRgAAYwQAMEYAAGMEADBGAABjBAAwRgAAYwQAMEYAAGMEADBGAABjBAAwxqcBRzSTDesewUq7KJTWPYQBAjCiH/z6hbpH8LK5rXDteunNuxWO0mQsAQBjBAAwRgAAYwQAMEYAAGMEADBGAABjBAAwRgAAYwQAMEYAAGMEADBGAABjBAAwRgAAYwQAMEYAAGPcEaipkqDkUEehm0ghlNtHjIr9XMW1TCpitfPhrkAAGigsttR5+JDCfDX/vXFrqMHra4qb3BexaVgCNE0a1HnkcGUnvySFhZY6jxyWkpLPJHDXIgANkx7vKsxVfz/dMJcqPTFT+X5RLwLQMGFm726mHWZYMTYNAWiYYmvv1unFZrZn+0Y9CEDDFFd7Kq72q9/val/FavX7Rb0IQAMNXr+u/L0dKVZw6S5G5e/e0OBP5b+kA3cvFnVNlBXK3ryu7HxQ6Ez2mkAc5FLOewCaigA0WR4Vd7h2jztjCQAYIwCAMQIAGCMAgDECABgjAIAxAgAYIwCAMQIAGCMAgDECMLqi7gGcBE3w+YOy90A0RABGd6XuAZzEYV5625CE8hubIQAjC6/VPYGTkJX/EFORtlYrHKXRCMCoYnyh7hFs5IW00yu/faf1YnXDNBsBGFF3c+6Xinqz7jkchPWN0tvGdqvXbXeeqXCcRiMAIwrLrwxDWjwl6VrdszTa9o60tV1u2ySJrbm5r4blPw+qHaq5CMAYut/7w4UQ9TkpvlH3LI0To8L6psLqmspcAIjtVi9dXHiy/ePzv61+uObiekkJ8VffSHvv/eNbivFpSY9KOiFiOr4YpWEu7fQVtralbMy7DqdJEVutq2q3Xuy2O8/wyD++/wA/A0R8GXInIQAAAABJRU5ErkJggg==;" parent="1" vertex="1">
                    <mxGeometry x="340" y="740" width="256" height="256" as="geometry"/>
                </mxCell>
                <mxCell id="94" value="" style="endArrow=none;html=1;strokeWidth=10;exitX=0.5;exitY=0;exitDx=0;exitDy=0;entryX=0.5;entryY=1;entryDx=0;entryDy=0;strokeColor=#a0522d;" parent="1" source="93" target="92" edge="1">
                    <mxGeometry width="50" height="50" relative="1" as="geometry">
                        <mxPoint x="1018" y="760" as="sourcePoint"/>
                        <mxPoint x="1068" y="710" as="targetPoint"/>
                    </mxGeometry>
                </mxCell>
                <mxCell id="95" value="" style="endArrow=none;html=1;strokeWidth=10;exitX=0.5;exitY=0;exitDx=0;exitDy=0;entryX=0.5;entryY=1;entryDx=0;entryDy=0;edgeStyle=orthogonalEdgeStyle;strokeColor=#a0522d;" parent="1" source="92" target="96" edge="1">
                    <mxGeometry width="50" height="50" relative="1" as="geometry">
                        <mxPoint x="478" y="750" as="sourcePoint"/>
                        <mxPoint x="478" y="716" as="targetPoint"/>
                        <Array as="points">
                            <mxPoint x="468" y="440"/>
                            <mxPoint x="548" y="440"/>
                            <mxPoint x="548" y="610"/>
                            <mxPoint x="648" y="610"/>
                        </Array>
                    </mxGeometry>
                </mxCell>
                <mxCell id="96" value="" style="shape=image;verticalLabelPosition=bottom;labelBackgroundColor=default;verticalAlign=top;aspect=fixed;imageAspect=0;image=data:image/png,iVBORw0KGgoAAAANSUhEUgAAAQAAAAEACAYAAABccqhmAAAABHNCSVQICAgIfAhkiAAAAAlwSFlzAAAHYgAAB2IBOHqZ2wAAABl0RVh0U29mdHdhcmUAd3d3Lmlua3NjYXBlLm9yZ5vuPBoAACAASURBVHic7Z13lFxnef8/z522s7tayZIly3IvqmsbGa1lWc0S4IorLsGUBEIJ4ReCaSEQwo/fCSEGEgOB/BJKAgRiigDbmGJRrN5suWtXK1my3K0ubZmd2Zm598kfI4Es79yduffO3Cnv5xydo7P3vu/77Ozc733LUwRD06HrzpmEHbsT4TpAEfk5Tu7DsnjHvrBtM1QXCdsAQ3XRtdPHoPIYcPYrr8hO8tZsWdo9GIphhlCwwjbAUG3ko7zq4QfQc4jaH6m6OYZQMQLQbChzi1+Ui6tniKEWMALQbAjx4tc0UUVLDDWAEQCDoYkxAmAwNDFGAAyGJsYIgMHQxBgBMBiaGCMABkMTYwSg2VBsT9cMDYkRgOZje9ErQm8V7TDUANGwDag3dO2sTlTfA9oBdBPLf1Pm7egP266SseSLOPp2oOO4K/0Q+ecwTPKKbjy3g3z0vSizUO3DinxLFvZ0h21XPWGCgcpA106/FZXvA7FjfvwysEQW9RZ/s9YYumrGfCy+A0w98qPtWLxDFvRuCNGsstC106ejshKYfMyPs6i+VRZv+0lIZtUdRgBKRJdf0EZrdhcwcYTLG1nYO18ErbZdXlHFYt2smTiiLOruFcEJ26ZSUUVYO2M9MG+Ey3tJtp0lXQ8PVduuesQsAUqlPbsAZ8SHH2Aea2e+DbZ+r6o2+aDwwNfpdHntzLeBjvTwA0wiPTQf+F01TapXzCZgqdjS6n6D3qErOturY0zzUviM9Q7Xm8QZ5W9lOIoRgFKxrY3AsMsdU4g6f1stc5qWwmc8xeWOYSS/sVrm1DtGAEpElnbvBr7mfpd+VNd3nlsVg5oQXTX9LFD3pCXKV2XBzr1VMqnuMQJQDqL/D9jtckcC2/6napnTdETki0CLyx17Gc5+tlrmNAJGAMpAFm4bQPn0KLfdrGtmLKmGPc2ErpmxBOUm95v4lFz2dF+VTGoIjACUy+7e/wJ9zPUe5RNVsqaZ+KT7ZX2s8LcxlIMRgDKRW7FRud39JmZXyZxm4kLXqyq3y60mlqFcjB+AB2Rx7ypdM3MZ6C1F7jhQXYteifZeNwbbOgfhTDR7NunUa3CyU7GHTwHiYMdRiYJGEWwgV2hp5RBJITKAWv1Y8hxq7SAeewzJPySzN7wY4q91ADhx5EuyTBZvXVVVaxoEIwBeyevfEOUq4NVn/8p3qmGCrlgSZVLH+SCzKbwhZwPTsZkESsEvMQbJcUcaKDjDYGchP1z452TAGeXFmT3SfN35Nlb0MBHrWYg8gsjddG26vypehMJ3UEbaYB0kr39T8fEbFOMK7ANdO/06VP6HY0VA+TmD+Vvl6h1uPgPexluxJMpJHfNRWQKyEPQSRhKg8noFOwf5NOSGIJcCLWMmLZYSSRzAij8I1veZu+FHlRAEXXFmC9GWHwPXHvPjQeAtsqj3vqDHaxaMAPhEV3ROJmZfj8o4VDeyqHd1kDEB2n3LeCT3RtS5BuRyYFxQfRcZEexhyA5CdqAwWygHK+IQSTyDlfgxbXxROjccDMyyQgzApSAXI3qYaPQembdlT1D9NyNGAGoQffzyNqLJ64E3A1eASy7/SmNnIdtf+GfnymsrApHWF4jEvkOq5R9l6cpMRWw0eMYIQA2h3TfMBn0f8BZgTNj2vIpcGrKHCzMDLXOSY0UcYq2bsWJ/L13rf1MZAw3lYgQgZFRvibA1ezPK7Ywc3lp7aB4yfTB8GJx8mY0Foom9xFruZM7GL9ZTGHIjYgQgJHTzta0k5c+BD4GMUKyzDlAtLA3SB8Epc68AwIplSLR/nTmJj4qsLFdJDAFgBKDKaPctcTT7HoS/A04O257AGO6HzP7y9wkAIvFhIq3fZG7Lh4wQVBcjAFVCFaHnureA/ANwVtj2VAaFzGHIHPSwNACiiSGiyU/JRRu/FLxthpEwAlAF9MnrurDkX4FLwralKqgD6f2QOeStfTS5h1j8NunatCJYwwzHYwSgguijN4wjoV9AeRfNGHdhD0NqT8HJqGwsiLX9jjFtN0rnysHAbTMARgAqhm65/lqE/8A9e00TcGRZkN5X/tEhFPYHEu0fkDnrvxm8bQYjAAGjO28ZS2b4ayBvC9uWmsLOQWo35L0k6xWIt6+nve0KMxsIFiMAAaJbb7wEx/kfGnaTzyeqhQ3CzAGvs4E0seTNctGmXwVvXHPSfOvSCqCKaPf1n8RxVmMe/uKIQHICjDkNJFJ+ezubZHjgF7pp3leDN645MTMAnxRi7+W7wI1h21JXOHkYfKEQkuyFeNsWIlMulq77TAEQHxgB8IH2XDMVjdwLzAzblrpEtbAvkPVYWjHa0kdr9GJ5zeZtwRrWPJglgEf0yevno5H1mIffOyLQfjIkiyT6GY18ZiyDw0/q5vlvDNaw5sEIgAe05/obsfgdRVNUGcoiOQHapxQEoVycXIzM4fv0oUv+InjDGh8jAGWiPTe8C+UnQDJsWxqK+BhoPwXEw1dSHSFz+D9087xPBW9YY2P2AMpAe65/P8rXMJ9b5cgNweCLBXfishFIdPyLzN300cDtalDMDKBEtOeG283DXwVirdB+qreZAArD/R/RTXPvDNyuBsUIQAnoluveg+qdmIe/OsSS3pcDKGQHPqQPXmJKtJWA+UKPgm654SZEfwR48Fwx+CI/BP0vgJccqyLQMu5j0rXhnwO3q4GoeQHQzXNiDA2djyVttCQflq6Hq+b4oT3XXYbKL4FYtcY0HMfwAKRe8tZWLCV+wm0yd92PgjWqOLr8gjZacnMQBmltfVK6HvaQIaV61LQA6NppV6HWv/FH99qDwOcYH/mqdHZ7yEFVxtg9N56HOmuBsZUcx1AC6f2Q9lhsyYo4tIxbIHPWbQzWqFei3Z1xDtofoFDDcPyRH+8Cfb8s2nZ/Jcf2Q80KgK6dPh2Vxxi5HPR2VD4si7f+siJjd189GWIbgTMq0b/BA4Mve/cYjCTSaNuZsmD93mCNKqCrZ74R0TuBaSNcTgOzZVHv9kqM7Zfa3QR0eB/Fa8FPQ/QXumbGr3X9tBlBDqsrlkQh9iPMw19btE2GqEfXC3s4iZV+VDXY77uunzZD18z4NaK/YOSHHwr+Iu8NctwgqV0BQCaWcNOV2NaTumbG13XFtGC88iZ2fBFYHEhfhuAQgTFTwPJYzjKfnsKDXb8OwhRdMXucrpl+B7b1OHDl6A1q12O0dgVA2FHinVHgvUStLbpuhq+ce9p9w63IKKW/DeEhUWjzkUg5O3i5Pjj//X5M0NXTFxDN9IJ8nNIrNj3tZ8xKUrt7ABvPO4lcfjvQUUazFxnIn+OlMKc+/qZTidpPACeU29ZQZYb2ek84asVs2sbOktlry16THylQ+jTlpHMX+pDcNFmwsyL7D36p2RlAoeijdTnIzjKanUJHtOzIMNXPWMTs72Ee/vogOREiCW9tnVyEdMpbtuFI4hrKquUgOxHnslp9+KGGBQBAFvVsYiDXifAJCqWgS0AnlT1Qz6MfRllSdjtDOIgciR70+PXNp6foQxd/rfxxrZNKvHMQ4RMM5DplwfaHyh6nitS0AADI1TuGZWHvHahMQ/kuo7mF2VZPOf1r77VnAZ/xbqEhFCJx73kEAIYH3q+PXXJheY20e7QbUL6LyjRZ2HuHl6Votal5ATiKLN76sizufQfqzAOKOXXcz+Kta0rtUxXBtr4JtAVipKG6tIyDaLGT4lFQR8hk7iurzcLeVcDyIlc3os48Wdz7Dlm89WVvRlWfuhGAo8ji7Q+ysHc+qm9HePLIjwcQvkqy7SaRMhzHe274M+D1FTG0WRgegi0PQGYghMEFWifjeS87lz5FN88vOYeACMpQ/Cbg34CBIyY8ierbWdg7XxZvf9CbIeFRs6cApaLrT03K/BfKLj1zJJnnNhqpQGe1SQ/Atg2FBJ8XXul9Te4XP6cCkViOeHyidD3cV25Tr9+9WqLuZgDH4/kPYFufwDz83kkdgt61kEvDCZPDe/ihsBfgJc04gJ2LYUc8BQvV+8MPDSAAXtCtN5wJ+qGw7ahb+vdB73rIH4nHOiHk6mdiFfIKeiU/eLk+unhqcAbVD00pADj6fykeZ2Bw48ALsH3jH8t/WxHoKMVru8K0jAOrVMe843AcITt0V7AG1QdNJwDac81UwNTt88LeXbDrkVfm6xs3uSACoSOQHD/6bcXIprp0w8KLg7OnPmg6AUCtT1OIHzCUw+6n4NknXl3T74Qa2kaJd0DEa+4WBRn+j0DtqQOaSgAKa3+5LWw76gpVeOZxeH4E/yrLgrGlOsdVARFo8bEXkBucrRsvnhWcQbVPUwkADrdjcvuVjjrw9MOw75mRr3dMgkiNTabiHd5PBFDA+VaQ5tQ6TSMA+tRVHaDvDNuOusGxYfsmOPhi8XvC3v0fCRFo8RHTlU/N081LajZ+P2iaRgDIxt5NeaHFzUs+C9vWQb9LEJtYMK6Gpv/HkhjrrcwYFFyE7fTngzWodmkeAUDeFbYFdcHwEPSugcFRPOvGnAhRj8dulcaKQmyM9/Z2umn2iZpCALT7xoVAU23ueCIzUPDuS5cQeT2+hnb/RyLhI5mznU3qg/Ob4qi4KQQAHPP2H43UYdi6FrIleLeKwLgaF4BYq3fHIAAn95HgjKldGl4AdNeSFuBNYdtR0/TvK6z58yWWWmifADGPGXmqScLPMmDoAl2xpOG9RRteABgacwVm8684B4+49tr50tvUkvOPG372ARzbYkz6Y8EZU5s0vgBg3Rq2BTXL3l3w9HGuvaVQLwIQTRQyB3kln39LcMbUJg0tALr5vTHgmrDtqEmKufaORvsJEPdYoCMMYu3e29qZaapLaszTKVgaWgBI7F2Amf6/mue3jOzaWwrjatD5x424DwFwbIuHM+8IzJYapLEFwNIrwjahplAHdm6G3eVkWj+OWj/+O55o0l+yEtt+e3DG1B6NLQCllG1qFhwbnhrFtXc0WsdCog7zp8Z82OxkXxOcIbVHwwqAPnrDOOCCsO2oCfJZ2LYe+nzWp6hF3/9S8FpUFCCfHavr5pdfa6JOaFgBIKYX08i/X6lkM4Uz/sGD/vuqt+n/UaKtPhorJJyGDSJr3AfE0gVhmxA6mUHYuhqG+v33lWyHFh/n6mESifvdB7gsOGNqi8YVAKTp0ju9gqHDBb/+Ulx7S6Fep/9QcF2O+vBc1HzDxpE0rgAoDb1540r/fuhdB7kAK1PVswAARHx49dp5swdQT+jjN04CajRYvcIcehme2lCea+9oJFoLJwD1jNdqwgBOLqKPLZwWnDG1Q0MKADGnOXf/9+6CnQ+BU6Zr72jU+9sf/LkEA+TzrwvGkNqiMQXAYXrYJlQdr669pdAQAuAzetHWi4IxpLZoTD9n4YywTagqz22BPT68+9yItxT8/+sdsQrJQtX22IHTkBuBjSkAyJmUUSS4blGnUKjjgA/vvtFohLf/USJxyHs8FVHnlGCNqQ0aVAC08WcAjg07HoK+PZUdp15Cf0vBTwUjx67zXdCRaVABYHLYBlQUO1dI4hGEd58b0TiM8VFoo9awvFYNAtSuoxjo0mlUAfBRJK7GyWVg2wZIB+DdNxonnAx4TK9di3guGAI4eR/qUbs03CnAkRyAPoLAa5j0IPSsrs7DD/UZ+eeGryKmim68uOFySzScADDc0Zhv/9Rh2Baga28pvNBTqAvoeN05rzV8zmZaYg23tGw8AcjGGi+T68CBQkRfkK69pbLvGehZOXqhkHrAT0AQQJ6GcwluPAEgW6PlanyQGQQ7xLdwerBQLej5nuC9DKuJXwGISMPVDGw8AbD8hH3VKBPPgFmLwg3HVS14G/asLEQaNiM5p+Gel6qdAqhisW7Gm1GZC1r8SEXJItJLsvXb0vXwUNkDWfkI2nB/J2g7ATqXwIu9sGdHZVx+SyE9AN2rYfK5cOoM/2/VquLzMxNvboS6/II22rLvxGE6gssMVdKgm1jY+yMRqjLVqsoZz5EP4Fcoi0tvxA7EuUIWbX+6rLF6bjwPdZ4s28h6YvAg7Hq0sDQIk9YOOOu19RMpmE3B4Ave2yfHXyNd639ZThNdd+45OLHloOeU0WwlybY3enoBlkl15Ds5/NmyHn4A4VzE+nb5g4WxU1Zl2scXZgOTp3ovgx0EQ/2FY8nne8ovLhIGEsIMwIl9p8yHH2AJ6dQ/lD2WB6ojACLeKq0qi3Vt5+nltZHGFwAonGmfNgtmLAj3vF6dwt7A1rXhz0hGw++ySSNl/YK6YsaZoAs9jlaV6sTVWsB5/4Y6ZTr15KMZz2PVI+0TCrOBiWeGa0fqEHSvKIhBWPsTo+F3lhKLPlPe/ZYfZa6KM1u1BGC1x3YvY0/cXlaL3MRDNEUo4DFEonDma2DavEL4blg4TmE5sG0dDFd8+Vo+vhyaBC5Y+VJZTVqS24HdHsdb5a1deVRpCaAfBAbKbGWj+peydGVZua2k6xs5oDnPqcaeBOe9DiacGq4dAwfgwPPh2jASnnMBACJa7s68dD2cA3k/lL2jPwB6e5ltPFEVAZCF27aBMxv4CfAicMjl326EB3BYLIu33etxSJ8VMOqYSAzOngNTQ5wNTDoLTq7BFHp+lgAS8ZRkURZtvRvVxcAKCrMBt+/+iyDLcPQ1sqi3vJmvRxoo1OuPaPf1q4FFYdsROvks7HwY+quoh1OmwykzqjdeOQy8ALmUt7bRlkNyyWMNF2dST14cpSPq47C3gYjGoaNK3qsicMYFtfvwAzg5722tyP7gDKkdGjUfwI6wDagZDpa3b+UJsQoOQRNqPGuW4yNVuloVzLsWHg0qANZTzXYQMCLZdOX99q0InHtRYQOylnFsf3sAljTkS6UxBUBkR82eRVeTQxV++0dihaPH9jpYGttZf+0dWR+MIbVFYwpALttLJKo06CZnyRx8uXJ9x1pg+iWQrJMkOY4fB1EBO1JWDEC90JCbgHLBLw8BZQURNRy5YUhVKGloog1mLqyfhx/A9uEgGolmZcH6hjxabkgBOMLmsA0IlUMvVcYlt20czFxUf/kC8z6WAFa8wrnXw8MIQKNyqALT/zEnwvQFEKu3nCsKto8lgEQbNry8MfcAAEQfRJt0CyCfLZQID5ITToazu8Cqw3dGPu3vBCAidwdnTG3RuAKgiY2QHQJawzLB1ijP5KfzQu5s+nQ8w04SZ4RJV0yyTIk+w5yW1cTwuVsNcGg3gR6Dnng6nDWbIPZUc8R5OHMpL+XPIKevTo5j4dAiaTqsA5wa3cWZ8V4i+MyHmPOTSVkg2fJDfwbULg39itTu638LvKHa49oa5aHhpTyYXkpaS18rj4/s461jvkSr5dFd9ShPbYTDAS1bJ08t5B0IgCGnjf8Z+BAH7Yklt0lag8xtWcFFiZVExKMjjy8X4OQBueTRhksGepQ6nM+Vxe+rPeBh50S+O/ARVg1dU9bDD3DQnsgD6Rv9GWDnoX+fvz6OclpnYA8/wO+H3lTWww+QdtpZNXQt/93/EfpsD2XKVL0XBAWwIg97b1z7NLYAWPLbag532DmR7/d/kH157xV1t2cv8GnE7gBSdwucdWEh8WdgCE/5+N322lP4/sDt5YtAPuVz/Z/8d++Na5/GFoAZ9zwCPFeNoWyN8tOBd5Ny/J2NKxa+VmZ+vf+sCEy9uLDuDxjHZwbhQaeDn6beja1lbF3lfCQmicRy0rXmHu8d1D4NLQAiKFRnB3dT5vXst/2X0j47thXPG3iODX0+/FUiMZg+H8ZVwq9fj/xu/tiXn8KDmdeV3iDrI09hNN6wx39HaWgBKKA/rfQIOU2wOXOp737arX5e3+rD3L493tNexVoKCUYr6Nf/htaf0mb5L2z60PCl5LWEYr12xmcIcOK73hvXB417DHiUWReuo+fRlwDvC/NR2JWfMeqGX4sMMTZyYMTJfYQ8J0efY35yOUnxcQLg1fc/0Vbw66+wd1+HdYh3jb2D9ekreDl/OvYIXz8F+uwJZLT46W3aaWdXbgZTR3tBD/sQGyuaZ078/3vvoD5oeAEQ+YyjPdd/D+XjlRrj+dzZrtdnJ9ZzWdsyrEoWe3Ec6POQf7JtXCGir0oV1ZKS4vWtP3O9xybCb1M38/jw/KL3PJ8/ZxQBUMiWm4byGCLJDSLl5aOsR5pgCQCI9V9UMEHAIaf40VaLDFX+4YfC0Z9d5vf1qGtvjZVTjGBzedsyWqT4Bt5hZ5Sj+WzKXwKQWPRz3hvXD00hADLz7u2g6yrVv9t6dEJkT+Uffih/93/c5MKbP1Kbk0ALh/GR4huaeWeUItDZPu+DR1r6Zc6G+713UD80hQAAINY3KtW125tqj30qQ06lI+e0cP5fKhNOg6lzC0d+NcqQ08Zeu3iKsRbL5XjPyXn3/AOItfyn98b1RfMIwNCkHwIVSVZ/YqT4w5fXGCuGbqjEsH+kf3/p4a6Tp8LZr6XWvcBXDN0wyszKRfAyh7yHQkvMRiZ+ylvj+qNpBEC6vpFD+bdK9H1mbJvr9S3ZuezKT6/E0AVKnf6fGqxrb6XYlZ/Oluxc13uKf+bqb/c/3vob6bqvBssaVYamEQAAcvJ1IPAKlqdGd7muVwGWp95MViuw2aZ6JPrPBRE480I4OUjX3sqQ1QTLU292vWdCZA+nFCvTlznsvQKQWIrV9gFvjeuTphIAufCew0AFfLuVxUn3lHF99nhWp68JfujBg5BzSXdlWXDORTAxeNfeSrA6fQ19trsz0qLkrxjxUEcVMj7SoEXb10nXAzu9d1B/NJUAAGBZnwf8u6Mdx/T4Y5wb2+J6zyOZRbyQd/cZKJvDLs4/R117T/DvolwNXsqfySPD7tW0z45tZXr8sZEvDh/2fvQnlhJtf4e3xvVL0wmAzLz7APDlSvR9WdtPiEvx1FOK8OvUbaW5sZZKsdRfscQR114PIbQhYGuUX6duQ7X4VzImw1zeumzki37f/rG2Nc329ocmFAAAWuJ3AgeC7rbDOsSlrb9wveegPYkNmcuCGTB1eOQy3InWQuLO1rHBjFMF1mWuYL892fWeJa33MTZS5M+WOej97W9FHNR6q7fG9U1TCoCcs6wP4dOV6PvCxBpOjbq/SDam38Ce/Gn+Bxup7FeyA2bUV9beffYUNqXdEzedEn2GCxNrR77o5H2+/cd8T+Ztasp6kk0pAADMjH8dKLKY9I6gXNX2A6JSPArNIcKvUreNmB+wLPqOm/6PORFmLAyvLLgHHCL8atD9s4hInivbfoAU8+ZO7/Oe9CMST9M28F5vjeufphUAkWU2WB+gAjEC4yP7mN+y3PWevfYpPJRe6n2QdD+kjznRPOraGw1wf6EKPJhZym7b/YRiYfL+4s5W+Yy/c/9E28ekszuATKz1SdMKAIB03r0Wkf+uRN8XJx9gctTd8XBN5moO2B6Tbxw7/T+x9l17R+KQPZF16Std75kUeYm5LcVSOyqkPERAHiXWtlXmbKiIc1i90NQCAEAi9kEg8PWfhc1VbXe5BgLZGmX50J/gyS336O7/SWcXSnPXuGvvqxGWD93qeiIy6mc4dMB7wQ+J2thjr/LWuHFoegEobAjq+yrRd+Ht9YDrPc/nzuFRl7j3ERlOFZYAp3XC6ef7sDA8Hs3M59ncNNd75ra4zKLsYX8bf/G2L8iCB5713kFj0PQCACCzfv5LlIosBRYmf82EiHuO/lVD19HvjCu902iiEMcfaNbe6jHojGVV+lrXe8ZH9rEgWWQfRRUGX8bz9k20bbvM3fRJb40bCyMAR5H4/wF6g+42Inmuarur+A42MKwt/Cb1J2V0GoWO+q1V8ZuhWxjWZNHro56kpPd5n/pbsRyx1iXeGjceRgCOIJ3LBrG4FfBTR2pETok+w+yW9a737MzNoif72qCHrjl6snN4Kuu+bJndsq64L0UuVQj39YIIxDreLl1rKlA5tT6pzXQwJaAbzzuJnP0BVM9HZD+WfksW9G7w06fMvPdJ7b7uwyCBBwxdmvw5O7OdrlP93w3dxJmx7bRK4AGLNUFa2/h96k2u97RbfVyaLOJN6eSPTP09khjzA7lo3Y+8d1BAV82Yj8W7USYg8gSxyNdk3pa6LCFeb1vHaHdnnAPO7Yj+HfDKKhwqH5fFW7/gf4zrvg4SuHPI07mZLBtw32+cFd/Mte3fC3romuC+wT+lJzvH9Z6bxnyLc2MjJPtUB/qfL6T69kKsfbvM2+w7KYOunfG3KP903I/7UflHJlhfrjefgrpaAuja6ddxwO5G9PMc//ADiH5O1517ju+B0pP/Cljhu5/jODu2lVnxza739GS7Rp0i1yOFJY77w9+ZeGjkhx8K5/1eH/5ISz9j2t0HLwFd33kuymdHuNSB6Oc5YHfr2unX+R2nmtSFAOjqzlm6esZyVO5FcNv6jmDHfLjXFZCub+SIOreCPu23r+N5Q9vPRp3ij7ZJVm+UssmZtAZ5XWuRKlxD+72n+I7EcrS2XySdK/2vqxz79UBxbyvhXFTu1dUzluvqztpPvUSNC4Cu6GzXNTO/jNiPI1xeUiMhkCmYTL9vP7a+ETSgUrsFkpLi9W3u1X9KOSarJ0o55rws+dORhXH4MGQ8Bm5aEYdY6xtl9trt3jp4FaVNQYTLEftxXTPjK7qisz2gsStCzQqAbp4TI2qvBP0gpW9WDhOxAysJLhfc14tGLgMOB9UnwKz4I6NWtSnFUaYeKMXR6Zx4NzMTj7z6QnYQhjzWOhRLSXS8XS7aFFyF6Fz+90Cp549R4K+J2A/o5jk1G6BRswJAevDtQHnrNpVPy/ztLwZphpx39+NY1g2Uqv4lcnnrMhLiduIoLB+6JdjkIVWmFFfnhGS4ovXHr76QG4LUSx6z+1qQGPth6dpwl4fGRZGlO15A+Ex5jbiIoVTN5hqoXQFA3HNDHYuyA7g2iBOAES2ZefcqlBsI0Eeg3epjSevPXe85ZE8aNVimlikl2GlJ672MsY6bYOWGYPBFjw+/QEvHW4YDowAADMRJREFUx+WiDRXJ+iQLe+8Arj3ynSuxkZb+Xa4ytSsAUtIR5QAqH2cwf54s6nVPxePXnPPuXY7olYCPgnOvZHZiw6gpxUsJl61FSgl3Pi22k9mJ41w3cqkjD7+H+H4RSHR8VC7aWJEXwR+GWdT7Cwbz56HycQL8PoRB7QqA4rZT5gDfJh+ZJou3fkGu3uHRL7Q8ZNbPV6N6FeCj7tSxKFe2/oiYSx7BUhJm1BqlJDyJSo6r2n7AK/z5s4PeH37LUmLj3idzN/1L+Y3LR67eMSyLt36BfGQa8G1wCftU6+5q2OSFmv1WyaLeXyB86VUXlA1YzjxZ1PvnsrTbRzC4R7vO+/k6xFoIPBdEf2MjB1gwSvKQUlJm1RKlpDxblPwVJ1jHHLAM93mf9kvUJnbCbXLxhq+X39gfsrR7tyzq/XMsZx7KSJ6od8rire4540Ok5j0BdfWMS4FrsIiA81sWbL9f3CJrqmVXz5tORu37KHejcqS+1OJ7/bfzsn1G0XsikucdHV90LUNWCxy0J/Ht/r9x3bw8KfoCf9pxJxZHCnik90Pa41FfJJZBxi6RS9Zu8tZBcKgirJt2JViX4WCjcp9cunV12Ha5UfMCUMto9y3tMPxjEN+JJfblp/Cd/o+5TpunRJ/hbWO+gkgVqg17QBHu6v9r19oHFjZ/2nEnJ0VfABQGd0PWY0qvaPIAsfbzTXCPd2p2CVAPSOeyQfb2XwfyX377mhh9iXlJ9yPrUgpnhMkjmcWjFj6Z1/K7wsOvCgMv+nn4X6JFzzUPvz+MAPhElq7MM+uedwP/7Lev+S2/4cSI+/d5VfoaDju1V+yj3zmB1ek3ut4zPrKXS5K/LWzyDTzvvYR3rL2beWPPkAsfC9RBqxkxAhAAIqh03vsx4A4//RSSh/zAdYqf0wT3p95Mra3e7h+l+OkfknxoBvqfg7xHl4p42+Myb/N5Iis9VgExHIsRgCCZde8nAV+xvFOiz/LaxBrXe57NTWPL8EV+hgmULdm57MrNcL1nTsuqQpKP1Eves/lEW/bSnnGvG24oCyMAASKCkj7pXYCveIRLW3/BOMt9V/z3QzeS0jF+hgmEtNPOiqEbXO/psA4VKvqm9hS8/LwQTaRwWs+vt3j7WscIQMBI1zdy2Plb8OEnECPLlW0/xC3pZUZb+V3qJq9DBMZvhm5myHEvQ3Zl2w+JD+8unPV7wYo4SMt8WbDeY2SQoRhGACqAXPDLQ8DbcPMOG4UzYts5P/GQ6z292QvZnr3A6xC+2ZnrpDd7oes95yc2cZb1RCGRp1diHXfKvE1PeO/AUAwjABVCOu9dg/AVP328rvVu2iz3Y7LfDt3suvlWKbKa4P5Rkny0Wf28Lnl3IY+fp8AeINbWK3M3fMxbY8NoGAGoJMm+TwLu0T4utMgQl7WOnjwkjIjBtemrGHTcy49f1voTWoZ95PGzonnaxi3x1thQCkYAKoictTKD8Ak/fUyPP8a0uPvsd3NmCQftSX6GKYsD9kk8nLnU9Z5p8SeYHn3YewpvgHjbf8r5v6/LbLv1ghGACiOz7r0bWOenj8tbl9EixXfPHayqzgLWpa9ydVlOWBne0PpTv2W7M3Ql/8qjiYYSMQJQHXzNAtqsfha3uqc72Jq70Hul4TLYb59Mb3a26z1LkvcyRvfAsI9Q+WjrPxpnn8pjBKAKSOe9awB3755RmB3f4OomrGqxObPEzxAl8VBmCerihTghsocLEpsgfRDPtfuseFrmbhwp/bYhYIwAVA39hp/WIg6XjjIL6B7uIqOtfoZxZViTbB3l2G9p6z1YzjDk/Lz9k8u8NzaUgxGAahHPLfObYvzc2BZOjxZPRZcjPuoD6oee4TnkXI4cz4ht55xYT8Hhx+uxn2Up+Yg59qsSRgCqhEz99TBYvmt+XZR0L1i0bZT1uR+25tyLl85teaDwn6yPjGnR5BPG4696GAGoJuLc67eLs2NbXZ2Dnsufy5AGX4sipWN4IX9W0evtVh9nRbdBfhjsImW9S0Hi3/fe2FAuRgCqyZ7+9fhMKGph0+lSX1DV4tls8AVFns1NR7X41+W8+EOFMOacjwpcIuA4vvZKDOVhBKCKyNKVeUR8Vy46L+4eI/BsfqrfIV7dZ869z86jcQteo/0AosndMm+TxxRBBi8YAag26vguVTUx+pLrMuBFl6m6V17MuU//T4zsLjj95H0IgBWt6QSajYgRgGrjSCBRbVOizxa9dtCeFGhJsbzGOKgTi9sSeabwH9tvqH50lc8ODGViBKDa5KUniG6mRJ8pes0hEqhX4H57suv6/w9ilPdZn8UapUCCIXCMAFQZufCew8BLfvtxmwEA9Dnj/Q5Rcl9/ECPHhwBIzJauB3Z678DgBSMA4eA5RPgor6iqMwIDzji/Q5TcV4d1JOLPzxIgEjGbfyFgBCAMRHzEyBZoswZcswcHmS8w5bj39YdIRa+RfwDiEu5oqBhGAMJA1ffbzsImLsXfuHmN+x3ij31RfEPRwiZhHZn6q+1jFMsIQAgYAQiHQKa7MYoLQC5IAXDpq8XK8IeoP6/+/wCKDw8ig1eMAIRDIDXlLZeco0GWE3ct880xbr9+ZgBiZgBhYAQgDMTPYrmGEV/VihrzM6lxjAAYDE2MEQCDoYkxAmAwNDFGAAyGJsYIgMHQxBgBMBiaGCMABkMTYwTAYGhifHluGLzxyLa7f7lfpl7tt599+SnYREa8lpQUYyMH/Q4BQJ89nrS2jXgtgs3EaCG6efvBFhyP3sBnRbfuu/aia6tX4NAAQDRsA5qRNOPGHBL/abuiseJ/QIexHMK9em/pA0HxagBRDlH4XYbs/TgeFSAVHR9c8IKhZMwSwGBoYowAGAxNjBEAg6GJMQIQAocjp3eHbUOtMajjXwzbhmbECEAIDDLZV5HQRmSIsQfCtqEZMQJgMDQxRgAMhibGCIDB0MQYATAYmhjjCRgC23Y9v/hAXyPWwfCeFXhs+5jTAzTEUCJGAMLBUj8ptBsRUROXEgJmCWAwNDFGAAyGJsYIgMHQxBgBMBiaGCMABkMTY04BQqBjTPuzLYn4orDtCJq+VBqvR4EtLS19wVpjKAUjACFw8okn7PJxZF6zPLvXe0ag1kT8cMDmGErALAEMhibGCIDB0MQYATAYmhgjAAZDE2MEwGBoYowAGAxNjDkGDIGX9x86K5vNhm1G4PjxA3Cc5LhgrTGUghGAEOgfGDxj/2Hj93IsEUsCKmNkKAezBDAYmhgjAAZDE2MEwGBoYowAGAxNjBEAg6GJMacAoaCOSCPmwPQR4qiNGB9Z+xgBCIHpZ5zxM0QvDduOIFFVntmz33P7jrbkgwGaYygRswQIARVeDtuGoMk7jr8ObJ4JxBBDWRgBCAO1t4RtQtDk87av9pZlPxCQKYYyMAIQAm+eNmYr6Paw7QiS1PCw57bRiOTeN2fK/QGaYygRIwAhoSrLwrYhKFSVoYz32IZ4NLYxQHMMZWAEICTsRO5fgINh2xEE/UMZbI97ABFLNGFF3hmwSYYSMQIQEm89Y9whkM+GbYdfbMfhcCrluX1rLH73X3SdtDNAkwxl0IiH0XWDqsqPn0rdhcibw7bFG8rLB/vJeAxtbonHXvzg3Cmni4jPIwSDV8wMIERERFvb294FUnc74KrK3r5Bzw9/IhY72N7efoF5+MPFCEDIXDtFhg73Ja9U+PewbSkV23HYfaiPVDrjqX1rIvHkuPSUU97dObYh9kDqGbMEqCF+sGNovqX6BWBB2LaMhKIMDA1zeDDladMvHo2kksnY3//l7MlfqoB5Bg8YAagxVFV+vDM9H7hOVC9TOA04MRRbUGzbIZe3SQ0PM5TJlvXgRyIRxxKG47HoE5ZY337/ayd900z5awsjAHXAr57SxKF4X2up9z/Z8+yV2UzuLr/jHhuwlGhNvOfkk078faltT0jHDrxt3oR+vzYYKosJBqoDrp4qw0DJrnYf+MmDg6LBBtdl++09n7t88q5AOzWEjtkENBiaGCMABkMTYwSgAbE04Pl/hfo0hI8RgAbEsdR7Zo5iiLMv8D4NoWMEoAGx7OhLQfcZyUUC79MQPkYAGpCv3Nr1HPB0YB0KO++8be7zgfVnqBmMADQoit4dVF8CPwuqL0NtYQSgQdF8/k7Ae5zuH0mJRIzrboNiBKBB+dptC18S+JzffhT+4cs3dTVcElNDAeMK3Mioygd+uukHovInXpoL+rOv3HzxzYiYI8AGxcwAGhkRpXXCn4F8u/y23GWp8zbz8Dc2ZgbQJPz1Tzb9GcpngVPd7lPheXH07/711nnfq5JphhAxAtBEfOjH65O2WNercIMorwE5Igb6AliPiXJPXyp173feudRbpg9D3fG/b2ho8ZJVVCMAAAAASUVORK5CYII=;" parent="1" vertex="1">
                    <mxGeometry x="558" y="420" width="180" height="180" as="geometry"/>
                </mxCell>
                <mxCell id="97" value="" style="endArrow=none;html=1;strokeWidth=10;exitX=0.5;exitY=1;exitDx=0;exitDy=0;entryX=0.611;entryY=0.833;entryDx=0;entryDy=0;entryPerimeter=0;edgeStyle=orthogonalEdgeStyle;strokeColor=#a0522d;" parent="1" source="93" target="96" edge="1">
                    <mxGeometry width="50" height="50" relative="1" as="geometry">
                        <mxPoint x="477.99999999999955" y="750" as="sourcePoint"/>
                        <mxPoint x="477.99999999999955" y="716" as="targetPoint"/>
                        <Array as="points">
                            <mxPoint x="468" y="1006"/>
                            <mxPoint x="718" y="1006"/>
                            <mxPoint x="718" y="570"/>
                        </Array>
                    </mxGeometry>
                </mxCell>
                <mxCell id="99" value="1.5 V" style="text;html=1;strokeColor=none;fillColor=none;align=center;verticalAlign=middle;whiteSpace=wrap;rounded=0;fontSize=24;fontStyle=1;fontColor=#136E48;" parent="1" vertex="1">
                    <mxGeometry x="438" y="530" width="60" height="30" as="geometry"/>
                </mxCell>
                <mxCell id="100" value="3.7 V" style="text;html=1;strokeColor=none;fillColor=none;align=center;verticalAlign=middle;whiteSpace=wrap;rounded=0;fontSize=24;fontStyle=1;fontColor=#136E48;" parent="1" vertex="1">
                    <mxGeometry x="438" y="820" width="60" height="30" as="geometry"/>
                </mxCell>
                <mxCell id="101" value="2 A" style="text;html=1;strokeColor=none;fillColor=none;align=center;verticalAlign=middle;whiteSpace=wrap;rounded=0;fontSize=21;fontStyle=1;fontColor=#83f29b;" parent="1" vertex="1">
                    <mxGeometry x="429" y="867" width="60" height="30" as="geometry"/>
                </mxCell>
                <mxCell id="102" value="Seri" style="rounded=1;whiteSpace=wrap;html=1;fontSize=30;fontStyle=1;strokeWidth=3;fillColor=#a0522d;strokeColor=none;fontColor=#ffffff;" parent="1" vertex="1">
                    <mxGeometry x="662" y="320" width="127.5" height="70" as="geometry"/>
                </mxCell>
                <mxCell id="107" value="1 A" style="text;html=1;strokeColor=none;fillColor=none;align=center;verticalAlign=middle;whiteSpace=wrap;rounded=0;fontSize=21;fontStyle=1;fontColor=#83F29B;" parent="1" vertex="1">
                    <mxGeometry x="428" y="577" width="60" height="30" as="geometry"/>
                </mxCell>
                <mxCell id="131" value="" style="shape=image;verticalLabelPosition=bottom;labelBackgroundColor=default;verticalAlign=top;aspect=fixed;imageAspect=0;image=data:image/png,iVBORw0KGgoAAAANSUhEUgAAAWEAAAFOCAYAAABXBaw0AAAWMHpUWHRSYXcgcHJvZmlsZSB0eXBlIGV4aWYAAHjajZppdiQ5cKT/4xRzBOzuOA7W93QDHX8+C7Ja3f2kGTGrkslkZATgMLcFwXD/8z9e+D98tdhrqM28j94jX3XUkScvPP58je85fd/Tz1s9/b5K/3w/1PvzMuV//uLP9zT/+X79vUha/z7R7y+y/+tE+edb0QV4nerPzzZ/T1R49+8n+mvIwy3W//qF35/vZ/85YdH/VibfE8+51Bx57bxOpYWfbzrTb1FM4//9sD6aC9UY6e/vf2MsejH/Oj78foCRlq8g/12dYv7n+38VvPzX+9+J/hT8r6/+nT19V01/e+//Ufzw7+r//4r/Tetvtczz51Xg7X/8YnjKfx/ce8ffu98BddYO1voviv5M/udEHLgYhybRmEr9HoXXP6/a9+iUdANT+328uHiMuFOKL2UeKfBCXyX1tJPxvaaZ2vee83vnp8PjfY+SLOdcc043V46/vHd/hhKqivpzXfuufLmyx8tBlZPVdP93j/C/PfC/e7wntDI9FijY+HqUcWUVmdlo2fXMYSxCOr9rlj9ApH8B5c+XBaYzvqJ6VPf8fry89Gep27eqhePyd6QK8U9869M9cG1jGFlVpsalU/HoqaqmTmuU3HJqPVv2DMekRY1fzKUUK5ODSvOy8knh/ZmCf4Mu/+Pg/4xCEMk/n8k9pd9ps/wabP3ThP/6kCpWKN6HisgoGR840Y8GLlj9d0QrO5YfGvn5QFJtYryFWURX6f2d6nlyyZpyvayRj3THbaNYOm+Bu1bz6rOm0KCYvJ6PzW93Blt+J0e0PfJIbz/wO84sa1hthfMBz7J6G+ON0cea52yumcPkDe8ve2/tjFHTGeWtanmW2/YsvHVqvZkLpjKs1P3O2DDYfbmfOc6YdN894c5eqDPTbixsXm3amsz/pfHmY3LFr+dV+Hi1eu+oXvNdpzCp5blHPu75nPCsdyuXprbd/LVWy9v3WjYrh3bxtf2MZCPX7Y2mq7PUAxI444grQTfg4tawLPM+ZVGZLnBaO/XVYKm0Yz6TStfX30l33/Ke735ZiZuZX1tZEDv5neJhTs/Z7u7LxuFFZ7W9n/asilMtWX8r7z5Gg2FXa6pWXnZeWV7ygXFuX+WG7laypesTaukwxxwFuOaOjOxTx+s9ncoZzrJu3Sdiem2iShS1Iah1ckQuYY1OCY0BzMlsWLC74mPkNpgg80iVAdR8aBk+ZQA73do5IKc+5h4zv253BpZ4+auvrjit9Ye6HY0fUgA712mtPXZ988K57hNg2KbQt72RF8N24DR3D2OdfWY/FsdsbSfws+nHDDoGhcuNA2sEfHHeW+aset61MKYNRu/+msBF/rmO2SlF6xPSXBx6QFIp22hxqEEwH5fCr/TTAJd1L/exsGtAoltd1IL0p9IcwIHueL0twNCp1NylXzAGvuNyRu91vXJni0+DfCwJk7foZTSzFlI5TgkLfUNHf9/4AKsFemB+hrrUmN8Q6yreqkpxcmFoy+yVufZa2YJWglUG0ydR9pNp5rWMAcy0dzultb4HYiAmZZC1bwOSEVjFVworXHwzk8CAfYIPUJAz45htDhAyT92z1+QN+kg00HTb/Hy9+s5W3qRb+p5g/6QuZPcj4LDyRtH6uXmzwg5TABjLm8pS8ESTi1QE/NS41FwApbI+92ix27EAn2QfzxY4KGv2TSX8MB5mDipZ+Vm8XrveM2iCqEejirvR1+OmYXdYmx0T8WgKKrEA6O0tm5qyTKdjeXbYp9iCdwbkgMAyNLj2sTATHLzYOwN62zxQ3jXA6d5wZ7TtfgUOtd3qpuoc+LaK7YFZSvTmXvc4+t6mdIoF2Qw0jP3UUNt3edS3TbpwuHfYJM25al8RMoVZDozs6jiAcPJ2W8CGgvpztxPDZfURB6iRVk4TBm9ngpb2osrUiyiO6tTqsMC4J7EyVgF9BxMNvBZGX1egQWkM+qhN9DAuWgUWF3aet5SRjGyjsgwDOdCgBZyHeel31jVh0WSFJQzYDz7RAH6y13btSBBNR4fDfq5i2GTVqlpkAArA/WbyYb0B9VuctxD6Gwwy3wsebK8xxFv6bpRxONoCL0FisRtVuKAAqoULUbbSACScA3DX3AeqGAFF6B3WNlp6M/5HCdbS0q1+8HxgIs2X2rkX6hbdM35A35CalXqhLw806kSIVs5DKXasNP68fuuq71bmpSHl0lk0xOq9uRcd0EDdB0iMHebM985uvgJc7oN2wnZsppGoKxQDq12m4/X4osvpI28r1ZnkSgrIb6xYAfXeE4yz1gtDVopC+b7rIsF0F+P2gk9Ar/rhsoCaCQBbpOciV9EuJ3x5bqN/ueCsWv7se0KviD2KWPZoC0drzI6Foo85/6PbafSj+qeNAaCsKpXYv8g1IUw5oKUv+Ur0PE2FQYNdoCp4l1a81vClYNohufKKZp5HmwhCqQ5dgv9teG9qRF4aTBykDErkaBunZUYVFqx2OScGilqjKJwgr4QkYySwP7PL4lD1nFiHUN4tSL/BHzT2Qd8j2oZ60Br5dPCM32feqwEURsN5aEw8VlYoYD7ICXVKAVk/fQu0kk1YIe4VqTdTS71VVKohbREw4xtH8musaroHt4T3yhf+h5l8YLSo4229n3UjcHx4+gEIedqiiUyrU5nqKMm9UHolpLH8dYwJKa4qQ0a3h4mq4aqYr+h0RiOy0NKYJexQRpuh2EUlsmPGGNGB5sp8A8eEcaayZ0GABz5iROdEAAFV6QTQboPpWD+c0CFu0Vq7G2Z17VcVN+HhgebPeOmWmgqB5+Xw0QFtUvnYvoqi9HO8iM4XEaGTi1CVwVAqEg4dMCkEia48mBraD9tN73wtApsjLZAQKrM7+p59mbS2bfwwLbKkG5KeAQM+FiEz5l4LDggmm4pegfwNx9PqW7WgMTBA+3K2hbhnmhzCWqXTehQAe7speoNqq0/EiLWQgDGIMFuOtDSqFilsVDKAM049CwO3SxxZ2ABT9DGLhI6iIYMjur3xclq1GAwzMRGLLqvIEN43YvIcdJxJIMHIyuO+OLY1zHU6E9PVgUqeEjhLS3Iswh1GsS/rgjvD9wCXwehWOYjbOMYcO14onnK0+suBIzXorrY1kSimyUrbKGUPsK69tOZ8G3t+7HAy0WMVWduGrE+VgxLKUJ2HsrCQeHVmjIV72BESc+2BysMy9BteDRsAJicjOFwLjcG3D4O04SasPuTiIAsDj/s8Kgl4eQSRh94HkgczZIKgAl9C68Bxeb+tDIF0PVZ3q01obeCJDaQxUCMK59iVg5Kj0Mkw7E/m4+bF4kMxKA0QgW83JIIvodNbBllt4L82ogcVmLLF3rb4OeFU6eEdRi94aqkjdACYMGbwaHvkIEiH9FBIDFdRTxmLODkfDAQJ0AGRia0j9jJoBHzJkq8Om6sWmXxGLwls2igY79U2aY3U+D+JGPgB/ZrAhInl0wUjbpXlP9oCGSAPEw2SWkxfEntYqrdP7xlTgtYBr4oOVLzww3BMmmcpBMKUQCqFcZBTw86Q1LQgtfP8YmWAtDNzqZ0jD5rqTJqFYRAirPrjkgkcB9YahRENCtcnMMS7xo8qUSUSBLYX+G8AU+Dy1fCPZPaOm0RYiUbQ45uVDnQzit0kLo/YgdwYdsAYtmR/YFWv0ATvXbX/wvW1QeOTBTL5BQYo2F96CnnJK2ACQOclE/jTesoRHHzLxUsoOSmFNIwhstpxpQtRrzXTNy7P1z+X93p+QdYCYGHvkJr94GIMIm+AYenlm+2PhaGDF806vqogOxSQsHzQeILcCyVjgPFmBIP6qdVAdqgyqsQzMttLpNkhVaEfFjp0n64NflQnrr8J8yVcONe1NYRuY2IKph65IJHgW1nuQQAHH9ZooAq7EBxgS7OeUWUYF66JeIlqIeVtpJQs74rywYym9IF3IVBgJzFzDZFGLvrEBTZUB8rC7/BSjDUf0r8LtmY8NBsYshRTMo5SPBZWzouABeFlxW4sMxwmHSbyT6I7RAWuwAcMirW6IW0SMIOh0NCXDXLiVsCAnWFTFOCKZhkWnbTA51zUsMIpKQI1TsmaE9JuYJprwKDE0NVHjhc9qlyM7kO6le+Qd5rqgHHWbSP6AHoM7dRIKTM6aXhqlBZRau1yCVw+XEhMRCZIjog/kQUf6YRCMHZoAjT1Ylo7rqErR8PY0MvOiShqcZJJ/EHS+OtcaENqRPvRU8cRIsUBVIX5Iqt0qTlakzExYzzs693fXgwRgq5/5IUDKPem8MzJCGpyhP3b/wES1KthHEgbEwpiAtjOyXLIXInHJ4bdsNbaKLh44Oa0Lc6HyEIUxnD1b30BBbmEyEf0BtVP24/DCPnaAmlwLS4zlEMjnsnCKNKdHOEtPCYlZg1sMPEDTqu2v1ifKiOvnS0EJGOADlTa5SZrWHKsKIvhpJBkOMvoFoe9WRkCeoUTtiIEPyIxtBV+Aq7AOR+4Gz6Q4W8tKIASwlh5DCzB68D3o0A99I3R/TTS5fTpEFbt3EJkQQRQTthmKQQU+BfSCOKwnYv3AicbouyHPiPnI/1oMOkE0VMyo7qPQqmxBxluErgBAPqDcYYGAyYANaLZaCiiBd8IhVpEZI1m4sqohHJbwp9ugN0wCOAHK0h/Gq4L64lU4kbqR6oLdaebrkhlfeJM9D00+cPXTMABKeL+OAnCoD1roq3oVzvjqKIFmoNW8CLGoq7IKaS4yLPt9kOPsMQVJ+Qy8n8NNuX179GFc+0zhRp4BdlmjA6Xn0kqE4xv0QGemKvBk6CbmoEB7ed1KBhRQiOZQTgic2ty/Y1mvcgRFoBcwMIB8PSaEYwkETDa4iRlYrqRaQrwprY/IXuchqyfX1AM7T3oaOEQKsHFdTNkHHgW+zfk9YuyF1Qjg0D/gWkWFh+syMHqBuLM7tpcuAq/WVmYrqKYeAoGhA/eWITm6CjXQQEpgDaPEex0q3wmagMnh8cPTXEht4dP4fr3aW9yIIJZREi0ATEDMOZaRYCU+05sDtxEDTacB2tZMAyzQqqjPMDiLb5EkXR6xQgbUII7EkoHptoblBAvtlRYZoE1wNjAso/ghz29RR1ouCPmkrSpivluhINNXXEgAzRhT1Aa4hCVYO3glHV1wYYenNiCG7pMtEaCEEaIyrH8+wowCsdNz5QFwsDF+8JQUP8r+3kRTgSVJHUnOCIswb/aPIMasM0NLC8uU+XCsxhIqfCykphWZtR2JxaYNn430k1lZVmgES5IYqnMWJs3akmUcMoJauOYF7ggJsckNuy0UBy6CM+B2hX4CrIofHR5gAkRtKzdpklcQ6bo8Puo4SN1HCCmRLdcZaTlWM0pa/xzKwGxRDJAmZegzTAEWnvdhTQmYcdc4DIMTifJVSGSIsBHqDyMg4BoE4Z5aI/JSfoNNwEf7dtcbEEnvsnwSCPE0ydvCrNmWscYh3F9wKhtWnEOkqp8OHXDqSkyomu2fzZh5u8mzPhxMNBlpGnKRcy1lc4UB1yy6CVkkPTZMFlUTm90uFc7o7e2A1GjNfiDfuGgmyfpC4uFHeOaHNgZCr6TSzCAqK2PvEXROHskjwSC9WNSj7WkjU3mlkW7jxEy/CZfaQOBJdwsEE3nZe0gIbfaTNRW3OCopW2f+jy//WnWIfoQ9/EIYz8NRreQlramsRRxJRKpNkMJG8IVnDPRjPHjCvBHfYIqhb+sqGL4EDLDOrAuhhVa5ppFJHl1S4nwNpBeyJBWjKg3vAzb0AiyNVcwXNoXI+vyD8/6SMhPOhOF1IErIe8SDA8Dm0d7cXSYtmML57hQqQXwC7CoI2fCQkxiOypNQx0tdDHk0YlwC8VVrmG9yFUR2uSSkKh8ILF5pQA5VwgB4iIyEmzBJo5bcL4wNTH54Qm1nwgoV4eALg4bMxknVEGjy7SmFHFsCXnQg66FiDCqDq613TzjITOYTCRiXEB+78CM1qc+xEhOsTEEJuOVboBmKRocJE7VmqsDGAGT0sqCzEaAf8TqAh/3yBpxTlYZAotNsYvk6RAbaS9pCwcu1F4LJILwvSKfMOCOmru2t4nMxH8C/lQIb7gnPBR2ijQLBJCEFKghY1mynISyzVJfdAazRcalAgoNWNMi/hbzygw8vCPti9nChxeb/RGeA8uxjjSKkdMJueO/48YdbPQemwHd1vpoFEwy0Z8lp0G043wWXv1uUDe1GR+OIPftMM9KjMIITZwYKjZp30UNbmdGjnA0e5t6akyov/aONqpMPU5t8YR8Etzt2k20hMDrAlBHJg6Ad9x8u0Xbg0/74MoqdscikRHHU/32HLCYiHHIZAgtPL1DD3Ica0vGaGhCgQkNvTUFHbIbnLAlCCBsqZEa1Scey84o+FFZbK9Kxpg3OrWxKYmeGEAbq0F58IXYA0f7iG6X0mtK2lu9un/bDxnohgeXwAOna2vdB5rg2tJBR7JMmb5F7WQOujvigcjujzZZrjo93SlmEbF92hhf3x0pHILrTpM25snIoBVTmhPhB36AQJe2ixYQZdyNSXTdIOzg+ttdSsEk/DGdbw8EXl26VztxPDhWPLAoEiKuMtzayKmoAj2Mya26DaEUxGpAWPjs8kn0jLfp5iz6O0eC3uhdVIfwAAXhTeCQwQzoHHwIR0VJSUGmfCZtfwfMpOH+/XboHR+Gnc54aO1zVN12zOPP1rHj3+pDfTkYsjlF9vK7K61oENpOUIriwJVjfvHPrdW97YKIDNZ12wytibqfrT8USHC5y3nKSVLp3mcir1XYvi5YGJTo1kDSveinjVzK+bRHXGLXvcT6UQR5IwL83eTIyBfahqB8oU+nzBUrdxP0PA5yBhsPCSKqTduqQQujhlzoUCIhelzJeN6BAU63fbEwPDknQmSMGCTSF5PGt6VtCbLEI8nemxagd6XjSaUMribkkbWutoOBPp0aZISNRmr0JZDHFRcuRxdrv4iR6vZevYgL+eAs6bjBwrrPIN3fEIvuPZNpXbdKtZ2OracZKmRmrCBIZwb4qP6ibgY9tTlsipGAbYC8c0UACo1CLddVox21nQaFkLrRmkHyp4E4T9fdIJwT68j6W9PfR1TehbHrvqZGQ+CGLo9h104OarVE/pxGu0lEO5LDnzuw37Z20r8YqeKGxrZ23TcYRcnoVWw+xcYwwSxLBnLI0pMMiX4dYtOfk1wiEMmsT4Xsc/WXAgkZY93XuFgsREC2HO4KdFxSYTPXyzhsLD6iomCMZcSEDrxzJH2yaCtCrpMEwgJM8IlY4nwurZFIR/iB2ux8d9nI31Q+EYm2np1FKmq8SrcCGxS3DnUXac9xG2R2UPXtB45IzOqiAeaD1/GJH8A6Ot5k4/GRd+1ZYFDLwrXvsmUecIv6EwCgQnb+NjmZcdiKJgxUrYrk6w/CYEAX3yUwg/Zj8BEeLACySCp5yhnwWVfM2BjdgnO3iImQrbax1rv3gyE2DO7b3+2HCVsSGaku7gn2ZH06dvg0KdFo+hOOzixI/AGq120FMh4SlY5u4Wjb3CUgjgGaAFt/GEBiwg1iLuhH5//C0BGYl3ZhyH4tDNwFjIQ1XrE2/bkBFgeCafsXPVjFX/4wjMkI/xdipoDCW+t2dAAAAARzQklUCAgICHwIZIgAACAASURBVHic7Z15fFTV3f8/3ztZIGCIkEASEjYhJJlJiIBCoGwqxl1Eoda6PRWl9lGrrfbxqdXa9vGnba3aauuKe9WC4r6gIqsEXCDLzISEnQxJIIRlgLAkc7+/P8Kwmcx67z33zpz369XXizp3zvnMhbxz5txzvgeQSCQSiTBIdABJ7LNo06JuGSkZaezj0xVSUol8qe0+9LQRerCidAejGzEnM3EiWEkAVAWKAqgqAEUFqe3E1MZEh0E4BKBVgdrKsO0DY58twbdX5YS9CXsSduXl5R0W/XklknCQEpZERUVjRd/kBCVX9XGOqir9iShbIWSqQCYBfRnclxh9QNTTgDgHADQz804QbYfK20HUyMwNiqJs86k+j0pqfUlWyQ4DskgkISElLAmKk51J1ETDQL5hDOUMAoaAeQiIBjF4EIG6ic4YBgcBbAHzZhBtZGCj6lM3qIq6PqEloc7hcBwRHVASX0gJS06ibmdd6mHfYYeNUehjFCpAARMNJ2Cw6Gx6wypvhkI1xLyWCG4fwX048bBrdO/Re0Vnk8QuUsJxTk1zzXC1vb0EhBEMKiZwEUADROcyD7yVQdUErgKj0qdyZXH/4rWiU0liBynhOKO6obpAsSmjmdXRBIxkYBSBuovOZSFambEGxN8T4TvVh++KsotqRIeSWBcp4RinorGib6JKpbApYwCMAeNsgx6SxQfM+0H4BsAqBq1Uoa4qzizeLjqWxDpICccgrkaXnYnHEzAejPEgnCE6U7zAjA1E+FoBvvYlYLkj3eEWnUlibqSEY4SahqpRPkWZBOaJBEwAUW/RmSS8ixnLQLTUZrMtKcgo+F50Ion5kBK2MNXbq0cQ0zkETAHzFDnNYGKY94NoEQOLuI2/KsotqhQdSWIOpIQthqvBNVBV1KkEOg/gcwmULjqTJGx2MtSFDPqyndu/PDPrzM2iA0nEISVsARYtWpTQL79PGROVMaOMiPJEZ5JoRi3AnxPzgoLMos+IyCc6kMRYpIRNTE1zzXCfz3cRmC8koqmi80j0hRlfgPCpzeb7pCBjRK3oPBJjkBI2Ia4m13nMfAmgXkKkyJUN8QZjAwMfEdFH9kz7l6LjSPRFStgk1DTXnNbW1na5oiiXEnApALmBIs5h5kMg+gDAB/u9+z8cmzfWKzqTRHukhAVTWV+Zk5hkm8bMVwB0jug8EnOiqvyVzUbvttl8741IH+ERnUeiHVLCgnDtcA1jn+9KQJlOhLNE55FYBf6Gmd9t96nzS3JK6kSnkUSPlLDBVG2ryldsygxiXAVCseg8EmvCjCoQ3k6wJczLz8iXBYUsjJSwQbh3uPNY9c0E00wQikTnkcQGzFxNhLmk2OYW9i2UI2MLIiWsM85tzgGk8NVMuJpAZ4rOI4lNmHkNAW+xSm85+ju2is4jCR0pYZ3YtHtT2sEj+69hla4BYbzoPJJ4gZYTqW+2H+I3iwcW7xadRhIcKWEdcDY5f0LATwFcLDqLJG75mIF/OzIdb4oOIgmMlLCGOBud5xDxdQBdCyBBdB5JfMPMPiK8xkyvObIcX4nOI+kcKWENqPBU5CUlJlzPjBsA5IjOI5GcgocYr7CNXrH3ta8THUZyMlLCUcDMCTXbnTcy6EZAzvtKzA0zVkDFy811zS9NmTKlXXQeSQdSwhFS1VA1SVGUnxFwvegsEkmYvEqq+mJhdvES0UEkUsJhs7phdUYSJd0EYBbJY4MkVoV5PYPmJPGROXnZI5tFx4lnpITDwNXguoiJbybCNNFZJBItYOb3iPl5e3bxJ6KzxCtSwiFQ1VTVLwHKLQzcAvngTRJ7eAh4rh3qc/KkaOOREg6Ce3v1+Qz6ORhXiM4ikegK4V2C8kxhv8LPRUeJJ6SEu6CisaJHIttuBdGtIAwRnUciMQJm3kiMp9vI93RJVskB0XniASnhTqhprhmt+tr/Gx1LzySSOIRfVlT+Z0F28Xeik8Q6UsKn4GpyXctQbyPQGNFZJBKRMHgVQXnKnml/XXSWWEZK+Chrt61Nb1Pa7lCIbgeQJjqPRGIKGHtU8JOJPRL/kZ+av1N0nFhEShiAq9E1BlDvANE1orNIJKaE+Y2ERPr78HTHN6KjxBpxL2FXo2smg+8kQqnoLBKJqSGUg+gJe1/7XNFRYom4lfBcnmuz7yi4i1W6iwjZovNIJFaAmRtIweOFfR2PE5FPdJ5YIC4lXO2pziUb/5pI+aXoLBKJJWE8ofr4saKconrRUaxO3Em4uqH6LALuJoVmis4ikVgZBs9NsOHR/Iyib0VnsTJxJWF3Y9XFKin3EDBJdBaJJBZg8BKF+a+FWcUfi85iVeJGws4G5w1QcA8BdtFZJJKYgtnNTH9xZDteER3FisSFhN1N1Xcy070g9BOdRSKJTbiJgD8XZhY9ITqJ1YhpCS/atKhb327p94LofwB0E51HIollGHyYGI8kZiY/nEd5h0XnsQoxK2G3x92Hbb7fguhXorNIJHEF82Pks/2/wpzCFtFRrEBMSnhdS3XukSO4D0SzRWeRSOIS5mdVHx6SS9iCE3MSdm53DiXm3wF0g+gsEkl8w6+gre0he+5IecJzAGJKws6dzkK0434CrhadRSKRAAy8BRV/cmQ73KKzmJWYkXBNU2WRCuUBgK4SnUUikRyHGe/YyPaHgsyCatFZzEhMSLh6e/UIUvF7IpJHEEkk5mS+DQl/yM/MrxIdxGwoogNES01TZZEUsERieqa3c9uDNU01RaKDmA1LS9i501moQnlAClgiMT9EdIWK9gecDc5C0VnMhGWnI5zbnUPB+JNVHsK1th5C847d2LXLC6+3Fa2th3DkSBtUVYWiKEhKSkRKSjekpqagd+9UZPQ9HSkpcn+JJCZ5C21HHpCrJjqwpITXtVTnHmnDn8y8DM3t3oS62q3YsLEBW7c0oaVlb9ht9OnTCwMGZuKMIdnIGz4AhYWDdUgqkYiAX1Hbcb9cR2xBCR/dCfeQ2TZiHD58BN98U4PV369FZeV6HDnSpnkfSUmJGDFiKEaOysfZZxcgOTlJ8z4kEsNgfpZ8tvvifWedpSR8tBbEQ2baily7dguWLK3A18sr4fOphvVrsykY/6MRmDSxBMPzBxrWr0SiJSrzY8mZyb+N51oTlpKwq7H6QRD9XnQOAPjuuxosWLAKNe7NoqOgoHAQysrGYPToAtFRJJLwYf6DPavoQdExRGEZCbubqu9k0MMQXA2tunoDPnh/GWpqNouM0SkFBYNw2eUTUFR0hugokhjD621FamqKLm0z+LAC3BuvZTAtIWFng/MGIvxZZD3gXbu8mDt3IZYvqxQVIWR+NGEEZs48F717p4qOIokBvN5WLFhQgZycPigtHa5TL9zEKt0bj4XhTS/ho0cS/VnkiRiLF6/G668twKFD1pm26tYtGddeV4bJk0eKjiKxMH4Be+o7np2NLc3TT8TMboLtN4VZhXF1VJKpJVzdUH0WKfRXUWfCtbW148U5H2HZsgpN2uuT3gv9+vbG6aefhtNOS0FychJsNgU+n4rDh49g375W7N69D9t37ELLzvCXtHXGhAkl+NlNlyAxMUGT9iTxw6kC9qOniBm8hFXcU5QdP4eHmlbC1Z7qXFLwqKhTkTdvbsRzz76HrVu3R9xGfv5AFNoHIy9vAIYMyQ5r80Vr6yFs3NiAurqtcLs2Ye3aLRHnGDCgH26ZPQ2DBmVF3IYkvuhKwH50FvFc+OgeR3/HVl06MBmmlPBcnmsrbMr/G5HySxH9r15di6eefDuitb55wwdgXGkRzjq7AL169dQs0969+/HtNzVYUV6Nutrw/20mJSXittuvwsiRes3pSWKFYAL2o+/UBJ4ozLT/moiMW/cpCFNK2LW9+m4w/VVE38uWVeLZZ94N+33jxxfjvKlnYdiwXB1Sncy6dfX48otv8fXX4Rekmv3zKzBhwggdUkligVAF7EdXERPfY+9X9Kg+jZsH00nY1eiayeDHiZBtdN+LF6/GC89/ENZ7xoyx47LLJ2DgwEydUnXNli1N+OD9ZVi1yhXW+2bdfJl8YCf5AeEK2I+OIm6AQnfZ+9rn6tG4WTCVhF2NrjFHBVxqdN8rvq7Gv/71TsjXZ2en4+qrp2LkKPFf71d/X4u33voCDQ07Q37PL35xJcaNl1UFJR1EKmA/eomYmcsTE+nO4emObzRv3CSYRsJrt61N9yltfwfRNUb3XV29AX9+5LWQr596/tm4/voLQWSa2wdmxquvfoovPg/93+r/3Hud3NghiVrAfnQbETO/YeuR+Mv81PzQRxkWwjT1hNuUtjtECLipaRf+9c/QRsBEhNmzp+GGGy4ylYCBjmw33HARZs+eFnK2f/3zHTQ1xXXtlLhHKwEDgNvl0SBRJxBd03ag7Q59GhePKUzianJdC/CTANKM7vtPf3wJtbXBl3/16dML/33bVcjL0//BW7TU1dXjn0+9HVL5zOHDB+L+B/7LgFTWxetthae+BXu9rfB6D8LrbQWALsV14vbe1F7dj/3/3Jw+SO2VgpycPvqHDgEtBZyamoKbZp2rQaouYOwB0e32TPvr+nUiBuESrmmuGe3ztT9FoDFG9/3v1xfg00/Lg17Xv38G7vrV1cjMNMcPTyg0NbXg8cfewrZtzUGvvfDCUvz02jIDUpkf71HR1tfvhMfToomgOiM1NQU5uX2Qm9MHhXbjf7FbSsBHYfAqVnF7rG3kECrhisaKHolkewqgG43ue/XqWjz2tzeDXpeVnY7f/OZaZGQYPkiPmubmPfjLX15HYwgP7H7165/E7Rpir7cVLle9rtINRmpqCgrtOcjNTdd9pGxFAR+HXz7oO/zfo/uPbjWwU10RKmFXQ/XdUIxfD8zM+M09T6GxMfA/wtTUHrjvvhvRPyfDoGTas83TjIceehle74GA12Vl9cFf/nqb6ea69cIvXrfLc2x6wSz4hWy352peuczaAj6KyvfYs2Nn/bCwnzj39urzWaWnQRhidN/z5n6F999fGvS6e++9Do4YWD3grN6AR0JY/XH55RMxY+Y5BiQSh1++K8vrREcJiUJ7Luz2XE1GxzEhYABgbCRFubWwX+HnYgJoixAJVzVV9bOR8jQYhp+S3NTUgrt//WTQ66677gKUXTDWgETGsOCzlXjttc+CXvfo32631Nx3qHi9rSgvr4PbZc0jzVJTU1Bamhfx/HHMCPgozHhXJfXW4sziyIu7mAQhS9QSoNwiQsAA8OGHy4NeM3asI6YEDABlF4zF2LGOoNeFcn+shF8+c15YaFkBAyd/Do8nPJHGmoABgAhXJEC5RXQOLTBcwq4G10UMCLl527Y1Y8niNQGvSUnphmuvi82VAtdeVxa0ktuSxWtCWlFhdjpGvrWWl++peL2tmDd3BRYsqAhpLjsWBeyHgVtcO1wXic4RLYZKeHXD6gwmvhlAjpH9+vnii+C7yWbMPAdpaacZkMZ40tJOC2nON5T7ZGb88rXKvG8kuF31mDe3HOXltV1eE8sCPkoO+9Sb125bmy46SDQYKuEkSrqJCNOM7NPPgQOH8NXC7wNeM2RINqZOPdugRGKYOvVsDBkSuDbSVwu/x4EDhwxKpB1ebyvmzVsR0/I9Ea+3FSvL6zDnhYU/GBXHgYABAEQ0rV1pnyU6RzQYJuGqhqpJAITdrOXLK6GqgUuTXnzJeE37rKnZjPnzF+Oh/3sZS5dWoLl5j6btR0qwz6mqKpYvN/9Zeifi8bR0zJcKWucrko4piuOj4ngRsB8CZrk7/GJJDDnzhpkTXNtdPyNA2Hqv8hXVAV8fPDgbY8ZEf4xdTc3mDvm+s/gH/x0A0jPSMHFiCaZPnxx1X5EyZowdHw3+Gps2NXR5TfmKapSVGb6JMSLKy2vjZvTbFf5Rsf+hXbwIGABAOEOF8rNFixZ9PWXKlHbRccLFEAnXbHfeSKDrjeirM7Zta8b69YGLi5xzzqio+6mp2YyH/u/lgNfsbN5zTNAiRXzOOaMwZ07XEl6/3oNt25rRv795N6poOeKLFbS6F5YR8FGIcH2/gvRlAF4QnSVcdJdwhacijwVsSz4pw5rAo6Ru3ZIwcVJJVH00N+8JKuATES3iiZNK8O9/L8ChQ0e6vKZiTZ1pJSxKwP4dbP7CPKmp3QEAvU7Y2XZqoR/v3oOm25UXCKsJ2I/K9F9uj3tpYU6hpb4W6S7hpMSE65mh7WRrmFRXbwj4+pgxdthstojbb27eg7vufCLs981/ZzHS0zumJ4zGZrNhzBg7lizpesledfUGzefJtcDrbcWcFxYa0peWNR3MUKMiGFYVMAAQYRxs6vUAfic6SzjoKmFno/McZtygZx/B8PlUuN2bAl4zanR+VH3Mn784qveKkDDQ8bkDSdjt3gSfT4XNZpqy0/B4WjBv7gpd+9CrdkPHrreOIkn+8pj1nhbTrGO2soD9qOAbnI3OrxxZjq9EZwkVXSVMxNcBJGRNsJ/16+uhqtzl6zabghEjhkbcfnPzHixbWhHx+3c278HSpRVCRDxixFDYbAp8vs5XjagqY/36egwfPtDgZJ2jp4Cj3RYcSX+F9hQU2nNRWpoHr/fg0YJCYoQcCwIGACLKAfg6AJaRsG5DHGeT8ycAXatX+6GyaVNjwNfz8wdGNRURzShYyzYiwWazIT8/sGCD3T+j0EvAqakpGFuah5tmnSukrq8/Q05OH5SVleCmWeciJ9fY2h2xImA/zLiuwz/WQBcJb9q9KY2An8Kg1ReBqK8PXN9j6NDIB+qhjILTM9Iw/crJAa/xj4ZFEOzzB7t/RqCHgE+Ur25HtkdAamoKZswYh7KyEkNkHGsCBgAishHw0zWb1liiCLgukjx4ZP81AF2sR9vh0tgQ+AHIwIFZEbcdygh29uxpSE9Pw9KlFdgZYLOGqLnhYJ8/2P3TG60F7J/vNZN4O6PQnotCey7crnqUl9fpsroiFgV8AhcnpyRcA+BfooMEQ/ORsHObcwCrxh/Y2RXNzbsDvp7dP/Jt5/4NGF1RUDAIBQWDkJGRFnQp2s7mPUHb04Ngnz/Y/dMTrQWck9vHdCPfYBTaczFjZinGluZp2m6MCxgAwCpd49zmHCA6RzA0lzApfDVI7JI0P8yM3bv3BbwmI+P0iNquqdkccGQL4KRpiIKCQUgPckSSCAkH+/y7d+8Dc9cPNvVCawGPLc3DjBnjNGvPSPyrKsrKtPumlNqru2ZtmRbCeFL4atExgqGphN073HlMMM2H3r//YMDXU1K6ITk5MaK2Q5nDLSgYdOzPGRnB1wOLmBdOTk4MWt4y2H3UGq0FPGPmOEuNfrui0J6Lm2adq8myOU99S8AKbLECA1dXeCq0/RqhMZpKmFXfTAKdqWWb0XDw4OGAr/foEVg+gQg2ap3QiXBPlHJniJqSCHYfgt1HLdFSwKmpKZgxc5xpjpjXgo7PVKrJQzu3yxN2gXirQURnJibYZorOEQjNJFy1rSofTKb6sG1tgWt5JCZFNgoGOh64Tb9ycpdi7WzUG+2UxEP/9zKeffY9zUUd7D4Eu49aoaWA/fO/sSRgP6mpKSgrK4l6ntjrbcWCz8SsyjESBn68tnltdDuydESz1RGKTZkBoEir9owgmoOF/Q/dML1jqZq/epp/NNuVnAsKBmFZc9f/8Gvcm4HpXbxWsxmoAZYtrUB6Rhoy0tNQUDjoeJYIMcMBy1oL2Krzv6Fy4u67aCrI+WtwaDnfbDYI5Gj3tc8A8CfRWTpDEwm7driGwcdXiTu7uXOCbbdtb/Np0k9GRhoyMkpCWmI2cWJJwLXFzTs7f9h36nzxzuY9J01fpGek4Ykn7gw99AkEuw96b1uWAo4cLUTsqW+Bx9MSk98ajsG4ylXvesuea18nOsqpaPLTxT7flSAUa9GWliQnJwV83ci5Tj/p6YGnI7qaFw62KSSakXCw+xDsPkaDFHD02O25Uc0R+8/ji2WIUMwJvitF5+iMqCVcWV+ZAyhdfIEWS48egZfheL0HDEpynIyMtKDCPHXU2xzCA7toNnoEuw/B7mOkSAFrg3+OOJpVE/7RcCxDpEyv3FkptJZNZ0Qt4cQk2zQinKVFGK1JSkoI+uR/Zxdf//WkoHBQwNdPFW4oO/MiHQkH+/w9enRDUpL2GyulgLXFv2oiGuLgId1Ztja6QnSIU4lKwjXNNacxs+k+1In0CfL1v7HR+N/+oSxV84+GQ6lP0dlyuFAJ9vmD3b9IkALWB/+IOFK83taYHw0z0zTndmdP0TlOJCoJt7W1XQ5Q8DPUBZKZ2Tvg6/VbjS9QE8pqhvnzF6O5eQ+ee/a9oO1FMxUR7PMHu3/hIgWsL4X23KiWrsX6aFhR6BwwLhed40SikrCiKJdqFUQvcvr3Dfj6ho3bDEpyMsFGrzuPntYRan2KSAn2+YPdv3CQAjaGaB7UxcNoWAEuE53hRCKWsKvJdR4BppfwwEGZAV+vq91qUJKTCWXjRigEK5MZjGCfP9j9CxUpYOM4cQ1xJMT6SgmV+bKqbVVTRefwE7GEmfkSAKavAnLGGYEfhu7evQ8bN3Z96rBehFJZLRjRjoI3bmwIWuAo2P0LBSlg48nJ6RPxaDjWV0oQUTdFUUxRaheIUMI1zTXDAfUSrcPoQVpaT+Tm9gt4zZrVYn7zRzsajnYUHOxz5+b2Q1padM8wpIDFEc1ouL5+p4ZJzAeBL65prjRFVaeIJOzz+S4iUs7QOoxeOIqGBHz9m2/cBiU5mYyMNNx3340RvfeW2dOiGgUDwT93sPsWDClgsUQzGna7PBqnMRlEQ31ttotExwAikPCiRYsSwHyhHmH0omTEsICvb9vWDKdzo0FpTiYjIw2Ph7ndePqVk6M+hcPp3Iht25oDXhPsvgVCCtgcRDoajocHdCBcuIgXCT+CLWwJ98vvU0ZEppnUDgW7YwhOP/20gNcsXvS9QWl+SEZGGu773Y0hTU1Mv3Jy1HPJQPDPe/rpp8HuiGwkLAVsHqIZDbsEnfxsFESY2q+pT5noHGH/FmAi4aEjYWypA59+Ut7l6ytXunD55ROROyDw/LFeFBQMwhNP3NmxOWNZBWrcHVXZ0o8Wg09PD14UPlTqt27HypWugNeMLXVE1LYUsPkoLR2OefXh/5146mN8JIxjPvtYZIawJOxqcA1kVsvMUPowXMaPLw4oYQD4+OMV+PmtYjcAHls1cbREZoYGy9hO5eOPg/9Ajh8fWT0mrRb7SwFrR2pqZIuYvN5WeL2tmpzkYV7ofFfD9wPt2aO2iEoQ1nSEqqhTicjUR4V0xaBBWSgqDvwscfnySqwVcLJFV+gh4LU1m7F8eWXAa4qKz8CgQeGfQj1v3gpNTgWWAtaW1NSUKDZvGHu0lQCGq0qS0OnVsCRMoPP0CmIE550XvM7QvHmLDEgijlA+Xyj3qTO0+PoqBawPkT6gi/WNG4B4r4Us4ert1SMAtvQZ2aNG5SMvLzfgNbW1W/Dhh8sNSmQsH364HLW1gb915eXlYtSo8E+CkSNgcxPxlMTemB8Jg4Bza7dXjxDVf8gSJqZzCJSuZxgjuOTSHwW95j9vfYm6OjHbmfWirm4r/vPWl0GvC+X+dIYWX1tj+Ygd0UQ6JaHFL1cLkN7G4gqRhS5hYIqeQYxi5MjhIY305rzwoZCTN/Tg4MHDmPPCh0GvGzUqHyNHRva1NdKR1onMm1seLz/0Qoj0+KKYXy/cgTC/hSThmoaqUWCOCQkDwJVXBf8o27Y14+l/zTcgjf48/a/5QTdmAKHdl65ITU2J+im619sqRawjdnvgqbiu8O6N/b8PYp5S1VA1SkTfIUnYpyiTQGSqQsjRMGBAP1wVgnBWr67F88+/b0Ai/Xj++fexOoTaGFddNQUDolwjXRrlEeyAFLGeRPpLcm88/F0Q9VQUZZKIrkObjmCeqHMOw5l2xSTkh1B7YcniNXjpxY/0D6QDL734EZYsXhP0uvyCQZh2RfT//gqjPHDSjxSxfkQi4jiZjhDmuaASdjW67ESYYEQYo7nxxouQmBh8v8rChd/hmaffNSCRdjzz9LtYuPC7oNclJibgxhu1q2MS7YGTfqSI9SG1l+mrzwqDCBNcjS670f0GlTATjwdI2zNuTEJOTl/cfHNoJ50sX16Jhx9+NWj9XdHs3r0PDz/8atANGX5uvvly5ORod3qG/8BJKeLYIR6WqXVAvRXi8Ub3GlTCBBgeykjGjS8K+YGUy7kRD9z/XEhzrCJYvboWD9z/HFwhVoS78qopGDe+SPMcUsTmJba3IEePKsB3ASVc0VjRFxzbEgaAK66YhPOmhrZLbPfufXjsb2/i9dcXwOdTdU4WGj6fitdfX4DH/vZmyCP186aehSs0mAfuCilicxLJUsJ4uu/MGF/RWKHdV8MQCCjhRJVKQbBM8fZouPHGi8M6Ov6zT8tx96+fxLJloX3t14tlyypx96+fxGefBi5OdCITJpbgxhv1P91Fith89JIj4YAQ4YwEShhrZJ+BpyNsyhiDcpiC2bOnYdKkM0O+vrl5N5595l384cE5WLUqcGlIrVm1yoU/PDgHzz7zLpqbd4f8vkmTzsTs2dN0THYyUsTmIrWXlHAwCGyohIMtDYgrCQPAzbdcju4pyfjs05Uhv2fdunqsW1ePd3OWYOKkEowfX4xevbRfVr137358/XUVli6pgMezI+z3X3DhWFx77QWa5wqGX8RaCNQvYq3EHm/Ew8YLDTDUe11WBq5uqC5QCN/E0iaNcPjk4xV4443PI35/cfFQjCgZBodjCPr3z4i4Hf/RS5UV61BVtT7idq655nxcdLHY4jhajmS1HGHHE25XPRYsCL/m812/ulSHNKblgKryWUXZRTVGdNblSFixKaPBHJcCBoCLLh6HrOx0zHnhA+zZsz/s91dVrT8mzV69emLQoCz0z8lAv7690bv3aeh5Wgq6dUuCTVHgU1UcOnQE+/e1Yteufdi+Yxe2eZqxeXMj9u4Nv+8TfWqZvAAAIABJREFUSUvriZtmXYYzzxRfBlqOiMUTF7vfoqcHgLMAGCLhLkfCzqbqvxPoDiNCmJk9e/bj1Vc+EXYiczScfXYhrr/hoqiPrdcaOSIWx4IFFXBHcHZcnI2EweB/ODKLfmlEX10+mCNgpBEBzE5aWk/c8cuZmDXrMvTsaY0f9J49UzBr1mW445czTSdgQD6ssxrx+AvOSP91KuGa5prhDAipKGRWJk8Zib89djvKysz9rLKsbAz+9tjtmDzF3L9DpYjFEMnpJ/G51ZlGVnoqI6vrGiadSlhtby8hUDze+YD06NEd111/IR758y80O/lYKyZOLMEjf/4Frrv+QvToYY2/OiliaxCPI2EAKQk2xZAf8s6nIwjCjvqwAjk5fXHL7Gn466O348KLSpGS0k1IjpSUbrjwolL89dHbccvsaZrWgDAKKWJjieTeaFGw35IY5MFOH8w5m5wfEaD/lqoYQWVG+YpqrFrlwurv9a8rMXLUcIwZY0fpuCIo1OWzVUshH9bpT6TL08rKSlAYYUF4K8PAx45MxyV69/ODn+C6nXWpbe2HqwEaoHfnscihQ0dQVbUebtcm1NZtRf3W7VG3mTugH4bnDUChfTCKi4eiW7ckDZKaDylifYl0ZcRNs86N1/tYfzDpUNHo3qP36tnJDyRcvb16nML0tZ6dxhMHDx5G/dbtaGjYie07dmHXLi+8ew+gtfUQjhxpg6oyFIWQlJSIlJRuSO3VA717p6Jf397Izk5H7oB+6N49WfTHMAwpYv2Y88LCiO5rvC1POxGFbOML+hWs0LOPH2zWsDEKWc8e44zu3ZORN3wA8obLLxahIDd06Eck91OLk1KsDHN7IQBdJfyDB3M+RqGeHUokwZAP67QnkmkIIG5XRhzDCB/+QMIKUKB3pxJJMKSItaU+wnPicnPieyRMRPl693GShJ3sTGIiQxYoSyTBkCLWjkhHwvE+HQFwvtPp1PVJ+EkSpiYaRsBgPTuUSMJBijh6IhVwoT037qcjCDSY+rQN07OPk6cjyKdrZxJJJEgRR4fLHel8cJxu0jgFn2ozTsIMJS6OMpJYDyniyHC76iOqFwEA9jjcoNEZik1fL548HQEM0bMziSQapIjDJ9JRcE5un7ifivCjtxdPno5glhKWmBop4tCJahRcKEfBx9HXi6fMCdMgPTuTSLRAijg0ysvrIn6vXBVxIjRIz9aPSbiisaIvg3XtTCLRCiniwLhd9RF/Hrkq4mSYeXBFY4VuJQqPSTg5QcklkJiajJKI8XpbO752RrgY38pIEXdNNKNg+UDuZIgoWWFFt7oDx2pHqD7O0asTibZ4va1wueqx8pQftNTUFBTac1Baas79Nm5XveYlEWWtiR8yb96KiO9FTm4f5MT5LrnOsCm2/gC+06PtYyNhVVX669GBRFs8nhbMeWHhDwQMdEhkZXldxNWy9GTBgopj/9MaOSI+Tnl5bcQP4wCY9he4aEhVdfPjMQkTUbZenUi0weNpwby5wQs6mU0kJ9axjbSweDCkiDv+fXT2yzlU5Ci4a1Qd/XhMwgohU69OJNETqoD9mEUknRUSlyLWno680VVclKPgAOjox+PTEZASNivhCtiPaJEEOslBilhbor2XhfZcOQoOjP4SJsB6p0TGAZEK2I8okYRylI4UsTbMm7ciqnlgACgtzdMoTcyi/xI1BksJm4xoBezHaJGEc5aZFHF0LFhQEbWAy8pKLL0axAgIyNCrbQUAFm1a1I0Y8ruIidBKwH6MEkkkh0lKEUdGpAd3nkhObp+4PEk5bJjT6+rqdDnsUQGAjJSMNBD11KMDSfhoLWA/eoskGilIEYeHFgIG5MO4kCHqeaTXkdP1aFoBAPaxLo1LwkcvAfvRSyRaSEGKODS0EvCMmePkw7gwSFDUND3aVQBAISVVj8Yl4aG3gP1oLRKtpADod6ZZrIhYq3stV0OEj69d7aVHuwoAEPmkhAVjlID9aCUSLQVcVlai6/yk1UWs1b3Oye2DsrISDRLFGZR4mh7NKgDQ7oOcDxaI0QL2E61IrCRgP1YVsVb3OjU1RQo4cnTxpAIANkIPPRqXBEeUgP1EKhIrCtiP1USs6b2+QC5HixQG6+LJjgdziiJP9BOAaAH7CVckVhawH6uIWMt7LR/ERY0uv706NmswZB1hgzGLgP2EKpJYELAfs4tYCthk6OTJjgdzzLosQpZ0jpYCzsntg5tmnWuISGJJwH7MKmIpYBNCSNKj2Y7pCOJEPRqX/BCtBTxjxjhDRBKLAvZjNhFLAZsUVvWTMFhJCHKdRAP0ELAfPUUSywL2YxYRSwGbGIYunjxawEdVAl8miRY9BexHD5HEg4D9iBaxFLDp0cWTHY0q0sF6YoSA/WgtkngRsB9RIpYCtgA6ebKjVVXVpXGJsQL2o6VItMAqAvZjtIilgC2CTp48qnZFWlgHRAjYj1lEbDUB+zFKxFLAVkIfT3ZImNR2PRqPZ0QK2I9oERslYI+nxZLV16SALYZOnjy6Tpja9Gg8XjGDgP2IErGRAp43d4XlymBKAVsPvTx5dJ0wHdaj8XjETAL2Y7SIjRawH6uIeM4LC6WALQgT6+LJo9MROKRH4/GGGQXsxygRixKwHyuIWCukgA2GFF086V9zIf68FovT8VXTnAL2o7dIRAvYTzyIWApYCLp4suNkDahSwlHgn+PTAr0E7EcvkZhFwH5iWcRSwGJQffp4smNOGLZ9ejQeL2hx7Digv4D9aC2S1NQU5OTqL4Vwp3tiUcRSwOKw2fTxpL+UpZRwhJSX11pKwH5Eb9ENl0jn22NJxFLAgtHJkx0nayT49urReKzj8bRgZXld1O0YLWA/VhFxtA88Y0HEUsDi8an6eFIBAJUTpITDRKsHcaIE7MfsItZqxYnbVa/ZsrATMULEUsDmQElQ9ujSLgAk7EnYBeCAHh3EKlqMrEQL2I9ZRazlkr9Ce65uDw71FLEUsElg3o++2KVH0woA5OXlHQbQrEcHsYjbVR/1PLBZBOzHbCLWWsB6nzCsh4ilgM0DE3Y6yHFEj7aP1WZj5p16dBCLRDsKNpuA/ZhFxFYTsB8t758UsLkgkG6D1OMFMom269VJLBGtgFNTU0wpYD+iRWxVAfvR4v5JAZsPVnmHXm0fl7DKUsJB8Hhaon64U3aBsVKIBFEitrqA/URz/6SAzYmiUJNubR/7E1GjXp3ECuXltVG930o/YEaLOFYE7CeS+2elfx/xhsrQX8LM3KBXJ7GAx9MS1cO4saV5lvsBM0rEsSZgP/77F2w3Ycd1UsBmRk8/HpOwoijb9OokFohmFJyT2welpcM1TGMceos4VgXsx/8MYGxpXqev5+T2wU2zzpUCNjl6+pH8f6hqqBplU5Tv9OrIykQrirt+damGacSg5fpfv9i93oMxLeDO8Hpb4alvQWqvFCleC6HYbKMLMgq+16PtBP8fVFLrbVAOAuiuR0dWxhXFw7iuRkBWwy9OLUSs9c46qwgY6LiPhXbxpTAlocPgQ22+No9e7R+bjijJKtkBYIteHVmZaFZEWHUaojO0nprQAisJWGJRGFuKM4t1Wz2mnPT/mDfr1ZFViUbAsSgHM9TT9SMFLDECAjbp2f7JEibaqGdnVsTljkzCHV87rXfUeyiYQcRSwBKjYLBxEmZASvgUIl2WVhojc8FdIVLEUsASQyFlg57NnyRh1afq2pnViHQqIpZHwSciQsRSwBKjIdB6Pds/WcKKqmtnViPSqYhYHwWfiJEilgKWCIFhnIQTWhLqWJUP5/xEOhVhxHlrZsIIEUsBS0TAwKaDmQejPz4nACdJ2OFwHIFCNXp2aBUinYootOeaYuWA0egpYilgiTh47Wga3aZnD8qp/4GY1+rZoVWo90Q2Cs6N411QeohYClgiEmbo7sMfSpjg1rtTKyCnIiJDaxF76lt0PcVZIgkEqfrPDCSc+h98BLfCencbu8TjVMSp6LHFWfS6ZBG0tOyFp34HGhtb0Ny8G7t378O+fa04ePAw2trbAQZsNhu6dUtEj57dkdbrNPRJ74XMfr3RPycDubn9RH8Ey8MJ7NK7jx9I+HDiYVf3I8lbARqgd+dmJhJ5xMOytFCRIg6fpqZdcDo3oMa9GXXr6rF7lzeq9hITEzBsWC7y8wfC7hiM4cMHapQ0XuCtKYkpukuYOvuPzibnRwRcrHfnZsXtqo/oGKOyshIp4lPQo/paLIm4uXkPVpY78c03bmzapG9J77S0nhg9ugBjx9qRXzBI175ihI/tmY5L9O7kByNhACBwFUBxK+G9EQoj3ueDO0OOiDunsnI9Fi36Ht99a9xipD179uPLL7/Fl19+i4EDMzF5ykice+5oKMoPHg1JAABcZUQvnd99RqURnZsVr/dgRO+zuhj0QvThoWbi229r8Mc/vIi//uV1QwV8Klu2NOGVlz/Bbf/9N3zwwTL4fKqwLGZFNciDnUrYp3IlAGv+KxeEFHBg4l3EtbVb8cjDr+HvT/wHdXVbRcc5htd7AHP/sxB3/vJxfLVQnungh8GtCQlqdEerh0inc8IA4Gx0LifCeCNCmI1581aEvUQtJ7ePqY+yNwvxNkfc1taOt978AgsWrBIdJSQKCgbh6p9MxRln9BcdRTC83J5ZNMGInrqeDCLW5SgPK+DdG/50hJlFYCbiaURcWbkO9/7PvywjYACoqdmM3z/wPN5/b6noKEJhYLVRfXX6YA4AiPAd5HphiQ7Ew8O6+fMXY/47i6NuJzs7HQMGZiI7Ox0ZGacjLa0nevTojqSkBBAR2tt9ONh6CHu9B9DSshdNjS2or9+BjRsb4PP5Iu533ryvsG69B7NmXYq0tNOi/hxWg8i48za7nI6obqguUAjfgKinUWHMwuOPfRj2e8aW5sXUUUZGEItTE+3tPjz99HysWhnZ8tKePbtj5KjhKC4eisLCwUhN7RFRO8yMtWu3oLp6A9asqUP91shO50lP74Wf3zod+flxtMaYeT8zjXFkOwzZPdylhAHA1VS9EKBzjAhiJiKRsFwjHBmxJOKWlr148h/zsH59+GdCnnlmHiZMLMHZZxfqkAzYuHEbli+rwpIlq3H4cPj1aG67/SqMHevQIZkZ4a/smUXnGtVbl9MRR1kFIO4kLDGOWJmaaGzcicf+9hYaG3eG9b4JE0twwQVjMXBgpk7JOhgypD+GDOmPmT8+F58vWIVPPinH/v2h3++nnnwbhw4dweTJI3VMaRoMncQPuEqbQSuNCmJ1It3gIbH+w7qmphY8+tc3whLwmWfm4Y9/uhmzZ0/TXcAn0q1bEi67fAL+/o+7cOmlPwrrvS88/wEWLzbseZUwjPZeQAmrUFcxI+6OPBI9rxiPWFXEe/cewBOP/wfbt+8K6fqePbvjltnT8Ou7r8GQIeKWgSUnJ+LHV5+H/3toNuz2wSG/74XnP8DKlU4dkwmGeX07t5tHwsWZxduJ8LVRYayMJ8L6w5LjWFHE/3zqbXg8O0K69syRw/H/Hr4VEyeapz7yoEFZ+N/f3oArr5wc8nueevJtrF27Rb9QIiFaUZJVEtpfqEYE3TSuIP4knNqru+gIcYuVRPzC8x/A7Q7tNPTLLpuAX//6J+jdO1WXLNFyxfTJuOtXV6N79+SQrn/m6fnYs2efzqmMh1V1hdF9BpWwLwHLAQ7tu1YcE8kGD0nnWEHECxasCnl+9Mb/uhgzf2zYw/aIGTUqH7+7/7+QmRm8ENXOnXvxwgvhryIyNYzdRLblRncbVMKOdIebGcuMCGMW5JywePQQsVZs3NiA1179NKRrf37rdJx33lma9a03Awdm4n/uvQ65uX2DXluxpi6mdtYxeKk9y657/eBTCa2GHVHs3OkQSE0NfzrCrFtnrYzWIi4vr9UgFfD665+FdN3s2dPwox8Va9KnkWRkpOFXv74mpBHxvHlfYcOGbQakMgAW47mQJGyz2ZaAeb/eYcxCbm56RO+TD+e0R0sRu13hb6I4lY8++hp1tcGroP302jJMMNEDuHDJyEjD7XfMCGmO+K03vzAgkb4w8z4b1CUi+g5JwgUZBd+DaJHeYcxCJCNhAKivD2+hviQ0tBKx19sa1S/KXbu8eHveV0Gvm3r+2bjwwtKI+zELAwdm4ue3XhH0upqazZYvg0lEiwuyi4UULQu5pD4DcSThyH7YtRhpSTrHL2KRvPfeUrS3By6Kk5eXixtuuMigRPozalR+SMvX3n13iaULw4v0W+gSbuOvAMTNUC+So4qiHWlJAlNeXhd1G5F+y/F4doQ02rs+hgTs54rpk4Nu6Ni9ex8+/tiaq1kZ3MLEwb/i6ETIEi7KLapkqAv1DGMmcnIiOy9OTknow4IFFXC76qNuJ9JvOZ99FnwT1YwZ52DQoKyI2jc7P7nm/KDXfPbpSqiqFUfD9GVRvyJhR7qFdcIfg77UK4jZkA/nzINWAo60yt2uXV4sXhR4TXBObl9cPm1iRO1bgUGDsoLWmvB6D2ChBeeGGSzUa8GqqJ1EO7d/mUSJtQBivnBupF9b5aYNbdFKwEBHudFIWBLCpoxpl2sj4ObmPZq0cyoZGWlRtzHtiklYtGh1wOprixetxtSpZ0fdl1Ewo1ZhRejyjrAkfGbWmZtdTdWfAxQHEk5BTm6fsM+a888LRzqdITmOlgKeMTPy8/+WLQv8TXXo0ByMLY2+1m5z8x7cdecTUbfTGdOvnIzp0ydH1UZyciIuuqgUc+d2PSu5ZUsT1tZsRn7BoKj6Mgoi/tye5RBaCCOs6QgAIOYFegQxI5GKVKtNAfGM1gKO9O/S5dyIHTt2B7xm6vnWGflFy/llY5CcnBjwmpURnioiAmKbcJ+FLeGCzKLPmGH91dkhYI9wDtFT3yLnhqPALAIGgO++Xxvw9T59emH8eOvtiouUbt2SMGlS4MLu331XY1CaKGF8sX3tdutJmIh8IIS2cd7i+KckImHBZxUap4kPzCRgoKM+QiDGjS+Kqn0r8qMJgX/p7NmzH7W15i91yYRPp0yZ0i46R9gSBgCbzfcJ4qTYu70wstGw19uqmUziBbMJuL5+R9AHZWPG2KPqw4oMGdIfuQP6BbzG5QytxKcomNUNvnbfJ6JzABFKuCBjRC0DH2kdxoxEOhIGtNlcEC+YTcAAgo7msrLSY3ZdcDDOPDMv4OvmL/qufDQiZ4QpHt5EJGEAIKKPmPmQlmHMSGpqSsTrS+VoODTMKGAAQU9NdjiGaNKPFSkqOiPg6+vWmfrf/SEiMs0gMmIJ2zPtX4LoAy3DmJXS0sC/9QMhR8OBMauAAWDz5saArw/PH6BZX6GSnpHW6f+MJj9/IGw2W5evt7W1o75+u4GJQoeBD+yZdtNsPAtrnXAnfABgphZBzEyka4aBjtHwggUVEW8UiGXMLGBVZXjqAx81dsYZOZr1FwrpGWl44ok7O31t/vzFmP/OYsOyEBGGDMkOOOLd5mlGbm7guWNBmGrwGPFIGAD2e/d/qKriCl8YSWlp5PtT3K56uXb4FMwsYABBT0/u0aO7JrvQrEyw0zeaQjyB2kiYeaHNZosdCY/NG+u12ehdrcKYmZycPlE9pHO7PHLt8FHMLmAAaGnZG/D1zMzemvdpNTKzAt/3lp2B76EIFIXeK8goMNUJpVFJGADabL73AP5GizBmJ5opBa+3FQs+q4j7Y5CsIGAA2Ls38EEyffr00qVfKxHsHuzZayrXgRnfJtiS3hOd41SilvCI9BEeZo6L0XA0KyUA7Q+ctBpWETAA7N8fuBBTamoP3fq2Cr2C3IMDQe6h8ajz89LzTHfyQtQSBoB2nzqfGVVatGV2olkpARx/UBdvWEnAAHD48JGAr3dPCX72WqzTPaVbwNcPHWozKElIVJLN9o7oEJ2hiYRLckrqQHhbi7bMTmpqStQrHeLtQZ3VBAwAvvbAxckTErpenhUvBLsHPl/go6CMhIF37H3t60Tn6AxNJAwACbaEecxcrVV7ZiYnN7qHdACwsrwu5kfEXm8r5s1bYTkBAwAo8MvMxsQwMxzsJgS5h4bBqGaVTTtI1EzC+Rn5a4kwV6v2zIwWo2GgY0Q854WFMfmwzj//Hcna6s4wVMAAEhMDL6E/csRUX7WFcORI4No3iQnRbkPQCOK5RdlFpi3tppmEAYAU21xmXqNlm2ZFKxH7ZRVL25s9nhZNf7kYLWAA6N4t8Jxv64GY37EflAMHAj94695d/Lw5M68hxWbqwaGmEi7sW1hHwFtatmlmCu25Ua2W8OP1tqK8vC4m5onLy2sxb+4KzdoTIWAAOO20wAeC7tljruVXItizJ/AyvmD30AgIeKuwb6Gpawdo/n2BVXqLbHQpwIFPBYwBvN5WzUZ7Xm8rVh6tMxHN7jxR+Fd9aDX9AIgTMACknX5awNf1OgvOSjQ3Bz5x5PQg91B3GF9zMpl+UKi5hB39HVvd26vfZKaYlrAe0gE6Hti5XR4U2nMsI+Py8tpjv0C0QqSAgeAHYzY2toBhnmdPImho2Bnw9YyM0w1K0jmk8Bv23kVbhYYIAV1mztsP8Zu2ZLoIwMV6tC8avQR8Yvt+GZeW5mky5aEHesgXEC9goGMUl5KSjNbWw52+rqoqtmxujLqe8Ikj6p079RtdNzfvOakvLepebN3SFPD1rCDbmvWEgY9Tknq+ISxAGOgi4eKBxbudTc5/g/kCIoqpBZV6C7izvsrL61B2QYlwMfnxeFp024JtBgH7yc3th9rargdS69bVRy3hZcsqDKl+tmxpBZYt7VgSGagaW6h4vQeCjoRzghT40QtmVkH078GnD7bEnJGmD+ZOxJHpeJMIr+nVvgiMFPCp/c6buwJzXlgorAiQv0D9nBcWYt7cFTEvYAAYPCQ74Os1NWY/PUI/3O7Axxed3jtVWH0NIrzqyHS8KaTzCNB1IR8zvUaE8wAYW3hVB0QJ+NQM8+auOFbfOPdoZbfUVH2eQnu9rXC56uHxtOj+uc0mYAAYNiwXn326ssvXq6vWG5jGXFQF+ex5w4RNoXmYyVKDP10l7MhyfOVudL7ChPv07EdvzCDgE+kYlR4/OqmjsFAOcnPToxaZX7xul8eQTSSpqSmmmmo5kfz8QQFfP3jwMFavrsXIkdZ4gKolq78PvJyyoHCQMUFOgRiv2LMclqpxrvuWFrbRK+zjKUQYp3dfemA2AXeG/0Ge/yGZf2Sc2qv7sT/nniC5vUfl6vUe7Fhmt/egkF17ZhYwAPTq1QPDhuUGPD1iZbkz7iT8zTfuoFXmHI7AZ9DpAmPFEV/7q8Z3HB26S9je177Ouc35MmzWk7AVBNwZ3mOSbQXQkd1sO/JSU1Nw06xzRccIypkj8wJKeMWKavz02jL06tXTwFRi8T/g64rBg7OFFL0n4pdKckpMvTGjM3R7MHcizXXNLwGw1G8oLQWcmpqCsVGWwIwlCu25lhAwAJx1VkHQaxZ++Z0BSczBli1NWLMmsOfOPrvQoDTHYeDVgn6OlwzvWAMMqbAxZcqUdndD1YtMNA5EQ43oMxq0FvCJwtFjXa2VMOMDuEBkZaWj0D4YblfXqwE+/3wVLrl0PJKSEsNuPz099NOSM9K7vk6rdoLx2WddP6j0M7bUEXH7kcCMDYpNeZGIzFM7MwwM3fDjbHTeS4SHjewzXPQUsNbtW4nU1BTMmFmq20oOPVm+rBLPPBP48Jgrpk/ClVdOMSiRGDZu3IYH7n8+4DWjzyrAnXf+2KBEHTDjfx1ZjkcM7VRDDJmO8JPER+Yws+nOePKjt4D9/72srCRupif8UzE3zTrXkgIGgB9NGIHefVIDXvPeu0uxY0fgWgpW5935S4JeM2XKKAOSHIeZ3zvCR+YY2qnGGCrhvOyRzcT8PADTnfNkhIBPfL20dDhumnVuTMvYP/drlRoYgTj//DEBX2dm/Oc/XxqUxniWLq0IOheclzcAI0YYN9vIjG3EyvMjs0c2G9apDhgqYQCwZxd/QsBzRvcbCCMFfOq1fhlHe1KHmeiYehinSb1ls3DhhWODroBYtdKFxYtXG5TIOHbt8uKNfy8Iet2FF5UakOY4CuFZe7b9E0M71QHDJQwA7VCfA8EUJzSLEvCp75sxY5zlZeyX702zzrXUw7dQsNlsuOzyCUGve+XlT+Dx7DAgkXG89NLHIa0LDmUliWYQ3k3ibs8a16F+CKvE597uPl9VfU8T0RBRGcwg4M7wF3k329rerhhbmge7Pdeyc77h8Lv7nsXmzY0BrxlyRn88+OBNUBQhYxxNmfufhfjgg2VBr7v/gZ9h+PABBiQCwNioqvyLov5FwYfnFkBoOVRXQ/XdUOivIvo2q4BPxOtthae+BS53velWU/i3SsfCfG84VFWux1/+8nrQ684eU4g77phpQCL9+PLLb/HySx8Hva6sbAyuu/5CAxIdReV77NlFjxrXob4IlXBFY0WPRLI9BdCNRvZrBQGfipHFdLrCL954GfV2xauvfILPP/8m6HWTp4zErFmXGZBIe5Yvr8IzT88Pel2/fr3xyJ9/EfRgVO3gl9vYd1tJVskBgzrUHeEHA9Q0VI32KfQUgQI/ftYIKwr4VPwj5HpPy7E/64FfuoA1j1zSC1VVcd9vn0F9ffC5XyuKeNnSCjz7bGgrSe/5zU8xYsQwnRN1wMAqm812W0FGQUxtURQuYQBwNbmuBfOTIERf7j8AsSDgzvDXivB/Lr+cAQQsznNqoZ/U1O4AoEk1tlinrq4ef/xDaMtTzx5TiNtuu8oSc8SfflqOf78e2lTr9CsnY/r0yfoGOs5ugO6wZ9qDzwVZDFNIGACqG6v/qBDdr2cf8+atiDkBS8Tx1Vff48U5H4Z07ZAz+uOWWy5HTo6Y0yZC4ZVXPsEXIUyzAMCYsXbcfvsMnRMdR2X+U1FW0QOGdWggpvnVnNgj8R9g1vVMKC1Gd1LAEj/nnDMqpGVrALBxwzbc/7vnTLmOePPmRvzxD3NCFvDQoTm49dbM9hwYAAAL2klEQVTpOqc6AeY32rjtSeM6NBbTjIQBoHan8+x2H54AQ7dV39EcTikFLOmMF1/8CF8tDH2acsxYO3784/PQt6/Y04gB4P33lmLevNBroGdlpePe/73OsKOLmFEO4E5HliO03xAWxFQSBgDXDtdM9qmPE1HgA76iIBIRSwFLAvHcc+9h6ZLAdXZPhIgw7YqJuPTSH0VUfS1aVpY78d77S+EJ4eGin379euPue65BVla6jsmOw4wGBv+qKKvoP4Z0KAjTSRgAXNur7wbru344HBFLAUtCIdwRMQD07Nkd558/BueeN9qQwvBff12FLz7/BuvXh1e+JSenL+6868fIzDTwgS3xPfZ+sbMeuCtMKWFmtrmbXI+CEN253EEIRcRSwJJwmDt3IT54P/gOs84YN64IY0sdmh+XtHlzI1atcmHF19Voadkb9vsLCwfjv2+7Cr169dA0V0AYT7gy3XfPpJmWrBEcDqaUMABUe6pzKQGPEkjXbUeBRCwFLImEcFZNdEb37skoKh6KgoKBGDYsFwMHZYX1g9rcvAcbNnhQu3YrnM6NaGzcGXGWyZNHYtbNxq5zZvBcbsfdRTlF1ti3HyWmlTAAOBvXnA1K+AuBJunZT2cilgKWRENdXT1eevHDkDZ0BENRFGRl9UFGRhrS0k5DSo9uSEpKBBHQ3u7DwdbD8HoPoKVlL5qaduHAgcDFdkLluusvRFmZIXuojsHMS5hxT1F20beGdiwQU0sYANyNVRcz6C8g0vXgqhNFLAUs0QJVVfH6a5+FtMXZTOQNH4Brr70AQ4bo9my8C9hNzL8pzCoOXrAihjC9hAHA2eC8gRR+BKBMPfspL6+F2+WRApZoSlXlesyduzBo9TXRJCTYcNWMc3DJJeON75y5iZnudWQ7XjG+c7FYQsIA4G6qvlMFHiFQsugsEkkkLFiwCh+8vwx79+4XHeUHnHPuaEybNhG9ewc+xkknDhP43sLMoidEdC4ay0gYAFyN1Q+C6Peic0gkkeLz+fDppyvx+eersKvFKzoOJk8ZiQsuGCt2OzXzH+xZRQ+KCyAWS0m4juuS25oO/z8Q/Up0FokkWpYvq8TSZRVwuzYZ2m/fvqdjwoQRmDR5pKiR73GYH0vcl/zbvLy8w2KDiMNSEgYAt8fdh22+h0A0W3QWiUQLGht34ttva7BmdR3WrdNnVVZGRhpKzszD6FH5sDuEHWZzMszPHlQP/250/9GRr6GLASwnYaBjDbGSgD8BdIPoLBKJluzdewBr127GunX12LSxAfX129HaGv4gMSe3LwYNysLQoTkYPnwgcnPNVr2NX1HbcX+8rAUOhCUlDACu+tXDODHpjwRcLTqLRKInu3fvQ3PzHuzZvQ/79rXi4KHDaGtrBxiwJShITk5Cz57d0atXT/Tp0wv9+vWGopj3R5uBt0ihB+x97etEZzED5v2bCgFng7MQhD8S4UrRWSQSSSjw26zS7x3ZDrfoJGbBNPWEI8GR7XDbyPYHAMEPw5JIJEJh5nd94D9JAZ+MpUfCftY2rS1u57YHiegK0VkkEskPYeZ3E4gfzM8srhKdxWxYeiTsJz8zv8pGCb8H+G3RWSQSyanw26oUcJfExEjYj7PBWUgK7od8WCeRmAIG3oIKOQURgJiSMNCxagKJiffJ5WsSiWj4FSjKQ3IVRGBiTsLA0XXENtwnN3RIJIJgflb14SG5Djg4MSlhoGNnnc/m+60itzhLJMbC/NhB9fDD8b4TLlRiVsLAsVoT/8uEe2X1NYlEdw6D+ZHEfckPx3MtiHCJaQn7cTdV38nA/+hdj1giiVuYm4jw53gtRxkNcSFh4GhheOLf6H1Ch0QSf7CbVfpLPBZk14K4kTAAuBvdF6vku0fvM+skkniBmZco4L/G25FEWhJXEgaA6obqs0jB3Xqf4iyRxDoMnssqHo2nQzn1IO4kDADObc4BpOAuEO4UnUUisSSMJ1QfPyaXoEVPXEoYAJhZce9w/gpMdwEw+lhZicSSMKOBFH7c1bfm8Zk00yc6TywQtxL249rhmsk+9U4iKhWdRSIxM8woZ/Dfi7KK/iM6SywR9xIGgNqdzrPb2/iXILpGdBaJxJQwv8GgvzuyHN+IjhJrSAkfZa13bXrbgbY7FNDtIKSJziORmITdKvNTbdz25Mjskc2iw8QiUsKn4GpyXctQbyPQGNFZJBKRMLCKQE/ZM+2vi84Sy0gJd0J1Q/VZioJfAHSj6CwSiRj4ZcWW8M+CjILvRCeJdaSEu+C7bd+ldKfkX4DoVhBMcka4RKIzjI1gfrqNfE+XZJUcEB0nHpASDoJ7u/t8VVV/TgR5dJIktiG8q7bzs0X9ixaIjhJPSAmHQFVTVb8EKLcwcAuAHNF5JBItYcY2hfBsEnd7dmjW0B2i88QbUsJh4Nrhuoh96s1ENE10FolEC5j5PWLleXu2/RPRWeIVKeEwWbttbXq70j6LgFkgnCE6j0QSCczYAOCFI3xkjlx6JhYp4QhxN1RNUkn5GRGuF51FIgmTV0lRXizsW7hEdBCJlHBULFq0KKFfQfqNKtN/EWGc6DwSSUAYK4j4pYJ+jpeISNZ9MAlSwhrg9rjzYFOvV8E3EJF8cCcxGx5ivHLE1/5qSU5JnegwkpOREtYQZ6PzHCK+jhnXEZFNdB5JfMPMKhFeZabXHFmOr0TnkXSOlLAOOJucPyHgpwAuFp1FEp8w8DGAfzsyHW+KziIJjJSwTqzZtCYtOSXhGlbpGhDGi84jiRMYX5PCb3RP6vnG4NMH7xEdRxIcKWGdcW5zDqAEvppVXE1EZ4rOI4lNmHkNAW9xMr3l6O3YKjqPJHSkhA2iwlORl5hgm8nAjwnkEJ1HEiMwqkE8lxTb3MK+hfKhmwWREjaYtc1r89t97TPAuIoIxaLzSCxLJQPvsMpvF2UX1YgOI4kcKWFBuOpdwzjBdyWRMh3AWaLzSKwBM74F1Plks71j72tfJzqPJHqkhAVTubMyx9ZGVzDTNEWhc0TnkZgTZl6oKPRegi3pvbz0PI/oPBLtkBI2Cc7tzp5gXK4Al6nMlxFRN9GZJMI5xMAHAD6w2WwfFGQU7BMdSKI9UsImpGpb1VRFUS4m8MUgGio6j8RYmNUNgPIREX1kz7R/KTqPRF+khE1MjadyuE+xXQTChUSYKjqPRGcYXzDhU1+775MROSNqRceRGIOUsAVYxIsS+jX1KWOiMoDOBzBcdCaJNjCjlog/J7Yt2L52+4IpU6a0i84kMRYpYYvhavh+oKokTSXQeQScCyBddCZJeDC4BaAvGfyloipf2LPtW0RnkohDStjC1G6vHtHGdA6AKcQ8BUQ9RWeSdA4z7yOixQwsYuKvivoVVYrOJDEHUsIxQlVD1ShFUSaBeSIRJgDUW3SmuIexm8FLwbTUBnVJQXbx96IjScyHlHAM4mp02RXi8SownhnjSR7DZBzM60G0glV1BZFtuT3L7hIdSWJupIRjnIrGir4JlDCWwGMBjGHQGAJ6iM4VMzDvB+EbAKsYtLKd21eWZJXIE4slISMlHGdUN1QXADiLFIwiYCRAIwGkiM5lFRjcSsBqBlYTKd+xj793ZDvconNJrIuUcJxT6akcnmBTSkAYwaBiAooB5IrOZR54K0DVAFepjMqEhISKgowCuYZXohlSwpKT+G7Xd716tPWwM7cX+hiFRJQPcD6BBovOpjcMbAJ4LTPWkko1nMCulMQU1xm9z9grOpskdpESlgTF6XQmUZ+2YT7VNkyxKWcQMATgIQANYubBRJQsOmOoMPgQGFsI2MTgTSBlA4HWg7H+YObButE0uk10Rkl8ISUsiYqKxoq+CisDbIqtP6lqf5UoG4RMAJkA+hKQAeZ0Q9YwM+9nwk4CNbPKOxSFmlRGEzM3KIqyTbH5PG0+eIozi7frnkUiCREpYYnu1NXVJR/pdeT0BEVN87WrvUCJpwHoyeAeAFLA6AZCElhNAiMBgAJFAVQVgKKC1HZiamPiwyDlEIBW1ae22my2fWDs86m+vUqCsgd9sctBjiNCP6xEIpFIJBKJRCKRSELg/wMlvoKItxKmpAAAAABJRU5ErkJggg==;" parent="1" vertex="1">
                    <mxGeometry x="2010" y="80.39" width="132.76" height="125.61" as="geometry"/>
                </mxCell>
                <mxCell id="IVw7iSOfBAubLjoAxZae-131" value="&lt;div&gt;&lt;font style=&quot;color: rgb(160, 82, 45);&quot;&gt;Tegangan (V) bertambah 💡&lt;/font&gt;&lt;/div&gt;&lt;div&gt;&lt;font style=&quot;color: rgb(160, 82, 45);&quot;&gt;&lt;br&gt;&lt;/font&gt;&lt;/div&gt;&lt;div&gt;&lt;font style=&quot;color: rgb(160, 82, 45);&quot;&gt;Arus (A) tetap ⚡&lt;/font&gt;&lt;/div&gt;&lt;div&gt;&lt;font style=&quot;color: rgb(160, 82, 45);&quot;&gt;&lt;br&gt;&lt;/font&gt;&lt;/div&gt;&lt;div&gt;&lt;font style=&quot;color: rgb(160, 82, 45);&quot;&gt;Kapasitas (mAh) tetap 🔋&lt;/font&gt;&lt;/div&gt;" style="rounded=1;whiteSpace=wrap;html=1;strokeWidth=4;arcSize=2;fillColor=#fff2cc;strokeColor=#d6b656;fontSize=30;fontStyle=1;fontColor=#A0522D;align=left;spacingTop=0;spacingLeft=22;spacing=2;verticalAlign=middle;" vertex="1" parent="1">
                    <mxGeometry x="1220" y="291" width="470" height="239" as="geometry"/>
                </mxCell>
                <mxCell id="IVw7iSOfBAubLjoAxZae-132" value="Karakteristik" style="rounded=1;whiteSpace=wrap;html=1;fontSize=30;fontStyle=1;strokeWidth=3;fillColor=#a0522d;strokeColor=none;fontColor=#ffffff;" vertex="1" parent="1">
                    <mxGeometry x="853.5" y="375.5" width="263" height="70" as="geometry"/>
                </mxCell>
                <mxCell id="IVw7iSOfBAubLjoAxZae-133" value="Rumus" style="rounded=1;whiteSpace=wrap;html=1;fontSize=30;fontStyle=1;strokeWidth=3;fillColor=#a0522d;strokeColor=none;fontColor=#ffffff;" vertex="1" parent="1">
                    <mxGeometry x="853.5" y="685" width="190" height="70" as="geometry"/>
                </mxCell>
                <mxCell id="IVw7iSOfBAubLjoAxZae-134" value="&lt;div&gt;&lt;font color=&quot;#a0522d&quot;&gt;Tegangan total (V) → V&lt;sub&gt;total&lt;/sub&gt;=V&lt;sub&gt;1&lt;/sub&gt;+V&lt;sub&gt;2&lt;/sub&gt;+V&lt;sub&gt;3&lt;/sub&gt;+…&lt;/font&gt;&lt;/div&gt;&lt;div&gt;&lt;font color=&quot;#a0522d&quot;&gt;&lt;br&gt;&lt;/font&gt;&lt;/div&gt;&lt;div&gt;&lt;font color=&quot;#a0522d&quot;&gt;Arus total (A) → I&lt;sub&gt;total&lt;/sub&gt;=I&lt;sub&gt;1&lt;/sub&gt;=I&lt;sub&gt;2&lt;/sub&gt;=I&lt;sub&gt;3&lt;/sub&gt;​&lt;/font&gt;&lt;/div&gt;&lt;div&gt;&lt;font color=&quot;#a0522d&quot;&gt;&lt;br&gt;&lt;/font&gt;&lt;/div&gt;&lt;div&gt;&lt;font color=&quot;#a0522d&quot;&gt;Kapasitas total (mAh) → Tetap sama&lt;/font&gt;&lt;/div&gt;" style="rounded=1;whiteSpace=wrap;html=1;strokeWidth=4;arcSize=2;fillColor=#fff2cc;strokeColor=#d6b656;fontSize=30;fontStyle=1;fontColor=#A0522D;align=left;spacingTop=0;spacingLeft=22;spacing=2;verticalAlign=middle;" vertex="1" parent="1">
                    <mxGeometry x="1220" y="590" width="640" height="260" as="geometry"/>
                </mxCell>
                <mxCell id="IVw7iSOfBAubLjoAxZae-135" value="Contoh" style="rounded=1;whiteSpace=wrap;html=1;fontSize=30;fontStyle=1;strokeWidth=3;fillColor=#a0522d;strokeColor=none;fontColor=#ffffff;" vertex="1" parent="1">
                    <mxGeometry x="853.5" y="957" width="190" height="70" as="geometry"/>
                </mxCell>
                <mxCell id="IVw7iSOfBAubLjoAxZae-136" value="&lt;div&gt;&lt;font color=&quot;#a0522d&quot;&gt;3 Baterai Li-ion 3.7V 2000mAh dalam Seri&lt;/font&gt;&lt;/div&gt;&lt;div&gt;&lt;font color=&quot;#a0522d&quot;&gt;&lt;br&gt;&lt;/font&gt;&lt;/div&gt;&lt;div&gt;&lt;font color=&quot;#a0522d&quot;&gt;&amp;nbsp; &amp;nbsp; Tegangan total: 3.7V + 3.7V + 3.7V = 11.1V&lt;/font&gt;&lt;/div&gt;&lt;div&gt;&lt;font color=&quot;#a0522d&quot;&gt;&amp;nbsp; &amp;nbsp; Kapasitas total: 2000mAh (tetap)&lt;/font&gt;&lt;/div&gt;" style="rounded=1;whiteSpace=wrap;html=1;strokeWidth=4;arcSize=2;fillColor=#fff2cc;strokeColor=#d6b656;fontSize=30;fontStyle=1;fontColor=#A0522D;align=left;spacingTop=0;spacingLeft=22;spacing=2;verticalAlign=middle;" vertex="1" parent="1">
                    <mxGeometry x="1220" y="897" width="700" height="190" as="geometry"/>
                </mxCell>
                <mxCell id="yMHmUGtXg-l4HKtW28zz-131" value="" style="endArrow=none;html=1;strokeWidth=10;exitX=0;exitY=0.5;exitDx=0;exitDy=0;entryX=1;entryY=0.5;entryDx=0;entryDy=0;strokeColor=#a0522d;" edge="1" parent="1" source="IVw7iSOfBAubLjoAxZae-131" target="IVw7iSOfBAubLjoAxZae-132">
                    <mxGeometry width="50" height="50" relative="1" as="geometry">
                        <mxPoint x="810" y="906" as="sourcePoint"/>
                        <mxPoint x="1010" y="480" as="targetPoint"/>
                    </mxGeometry>
                </mxCell>
                <mxCell id="yMHmUGtXg-l4HKtW28zz-132" value="" style="endArrow=none;html=1;strokeWidth=10;exitX=0;exitY=0.5;exitDx=0;exitDy=0;entryX=1;entryY=0.5;entryDx=0;entryDy=0;strokeColor=#a0522d;" edge="1" parent="1" source="IVw7iSOfBAubLjoAxZae-134" target="IVw7iSOfBAubLjoAxZae-133">
                    <mxGeometry width="50" height="50" relative="1" as="geometry">
                        <mxPoint x="1230" y="421" as="sourcePoint"/>
                        <mxPoint x="1127" y="421" as="targetPoint"/>
                    </mxGeometry>
                </mxCell>
                <mxCell id="yMHmUGtXg-l4HKtW28zz-133" value="" style="endArrow=none;html=1;strokeWidth=10;exitX=0;exitY=0.5;exitDx=0;exitDy=0;entryX=1;entryY=0.5;entryDx=0;entryDy=0;strokeColor=#a0522d;" edge="1" parent="1" source="IVw7iSOfBAubLjoAxZae-136" target="IVw7iSOfBAubLjoAxZae-135">
                    <mxGeometry width="50" height="50" relative="1" as="geometry">
                        <mxPoint x="1230" y="730" as="sourcePoint"/>
                        <mxPoint x="1054" y="730" as="targetPoint"/>
                    </mxGeometry>
                </mxCell>
            </root>
        </mxGraphModel>
    </diagram>
</mxfile>